<svg xmlns="http://www.w3.org/2000/svg" viewBox="0 0 1584.32 236.24"><defs><style>.cls-2{fill:#5757f7;stroke-width:0}</style></defs><path class="cls-2" d="M1002.39 207.71v-99.57h63.62v17.55h-42.23v22.82h40.8v17.55h-40.8v24.11h42.23v17.55h-63.62ZM1085.85 207.71V134.1h21.11v13.41h.86c3.28-8.27 9.84-15.12 21.68-15.12 14.12 0 23.97 9.84 23.97 27.67v47.65h-21.11v-44.79c0-9.27-4.14-14.27-12.41-14.27-6.56 0-12.98 3.57-12.98 10.7v48.36h-21.11ZM1173.59 207.71v-99.57h66.05v17.55h-44.65v22.82h39.94v17.55h-39.94v41.65h-21.4ZM1257.48 191.3h22.54v-72.76h-22.54v-16.41h43.65v89.16h22.54v16.41h-66.19v-16.41ZM1388.58 194.3h-.86c-3.28 8.28-9.84 15.12-21.68 15.12-14.12 0-23.97-9.84-23.97-27.68v-47.65h21.11v44.79c0 9.27 4.14 14.27 12.41 14.27 6.56 0 12.98-3.57 12.98-10.7v-48.36h21.11v73.61h-21.11v-13.41ZM1432.1 219.83h28.25V150.5h-28.53v-16.41h49.64v80.89c0 12.41-7.28 21.26-22.4 21.26h-26.96v-16.41Zm26.11-105.14v-4.14c0-5.71 3.28-9.99 12.7-9.99s12.7 4.28 12.7 9.99v4.14c0 5.56-3.42 9.99-12.7 9.99s-12.7-4.42-12.7-9.99ZM1510.42 170.9c0-23.82 13.98-38.52 36.95-38.52s36.95 14.69 36.95 38.52-13.98 38.52-36.95 38.52-36.95-14.69-36.95-38.52Zm52.07 5.85v-11.7c0-10.84-5.71-16.98-15.12-16.98s-15.12 6.13-15.12 16.98v11.7c0 10.84 5.71 16.98 15.12 16.98s15.12-6.13 15.12-16.98ZM1002.39 67.86V4.54h7.62v56.7h30.03v6.62h-37.65ZM1090.85 67.86c-5.63 0-7.8-3.27-8.35-7.62h-.45c-2 5.35-6.44 8.71-14.06 8.71-9.8 0-16.06-5.44-16.06-14.24s6.08-13.61 20.14-13.61h9.98v-4.63c0-6.8-4.08-10.34-11.16-10.34-6.26 0-10.07 2.63-12.52 6.9l-4.9-3.63c2.36-4.9 8.35-9.44 17.87-9.44 10.98 0 17.96 5.9 17.96 15.79v25.77h6.53v6.35h-4.99Zm-8.8-13.61v-7.71h-9.98c-8.62 0-12.52 2.54-12.52 7.08v1.91c0 4.81 3.72 7.35 9.71 7.35 7.44 0 12.79-3.81 12.79-8.62ZM1109 .73h7.26v27.94h.36c2.99-5.72 7.89-8.71 14.43-8.71 11.43 0 18.33 9.16 18.33 24.5s-6.9 24.5-18.33 24.5c-6.53 0-11.43-2.99-14.43-8.71h-.36v7.62H1109V.73Zm32.57 47.72v-7.98c0-8.44-4.9-14.06-13.34-14.06-6.44 0-11.98 3.36-11.98 9.62V52.9c0 6.26 5.53 9.62 11.98 9.62 8.44 0 13.34-5.62 13.34-14.06ZM1160.8 44.46c0-14.88 8.07-24.5 21.23-24.5s21.23 9.62 21.23 24.5-8.07 24.5-21.23 24.5-21.23-9.62-21.23-24.5Zm34.75 3.36v-6.71c0-10.07-5.44-14.88-13.52-14.88s-13.52 4.81-13.52 14.88v6.71c0 10.07 5.44 14.88 13.52 14.88s13.52-4.81 13.52-14.88ZM1216.24 61.69h13.7V27.22h-13.7v-6.17h20.96v11.79h.45c1.81-6.17 5.99-11.79 15.79-11.79h6.53v7.26h-8.8c-9.16 0-13.97 5.9-13.97 13.15v20.23h18.15v6.17h-39.1v-6.17ZM1308.6 67.86c-5.63 0-7.8-3.27-8.35-7.62h-.45c-2 5.35-6.44 8.71-14.06 8.71-9.8 0-16.06-5.44-16.06-14.24s6.08-13.61 20.14-13.61h9.98v-4.63c0-6.8-4.08-10.34-11.16-10.34-6.26 0-10.07 2.63-12.52 6.9l-4.9-3.63c2.36-4.9 8.35-9.44 17.87-9.44 10.98 0 17.96 5.9 17.96 15.79v25.77h6.53v6.35h-4.99Zm-8.8-13.61v-7.71h-9.98c-8.62 0-12.52 2.54-12.52 7.08v1.91c0 4.81 3.72 7.35 9.71 7.35 7.44 0 12.79-3.81 12.79-8.62ZM1347.61 67.86c-7.08 0-10.34-4.45-10.34-10.71V27.21h-15.6v-6.17h11.61c3.08 0 4.26-1.09 4.26-4.26V4.54h6.99v16.51h21.32v6.17h-21.32V61.7h21.32v6.17h-18.24ZM1378.55 44.46c0-14.88 8.07-24.5 21.23-24.5s21.23 9.62 21.23 24.5-8.07 24.5-21.23 24.5-21.23-9.62-21.23-24.5Zm34.75 3.36v-6.71c0-10.07-5.44-14.88-13.52-14.88s-13.52 4.81-13.52 14.88v6.71c0 10.07 5.44 14.88 13.52 14.88s13.52-4.81 13.52-14.88ZM1433.98 61.69h13.7V27.22h-13.7v-6.17h20.96v11.79h.45c1.81-6.17 5.99-11.79 15.79-11.79h6.53v7.26h-8.8c-9.16 0-13.97 5.9-13.97 13.15v20.23h18.15v6.17h-39.1v-6.17ZM1491.05 61.69h16.88V27.22h-16.88v-6.17h24.13v40.64h15.79v6.17h-39.92v-6.17Zm14.79-55.61V4.63c0-2.63 1.54-4.63 5.72-4.63s5.72 2 5.72 4.63v1.45c0 2.63-1.54 4.63-5.72 4.63s-5.72-2-5.72-4.63ZM1541.86 44.46c0-14.88 8.07-24.5 21.23-24.5s21.23 9.62 21.23 24.5-8.07 24.5-21.23 24.5-21.23-9.62-21.23-24.5Zm34.75 3.36v-6.71c0-10.07-5.44-14.88-13.52-14.88s-13.52 4.81-13.52 14.88v6.71c0 10.07 5.44 14.88 13.52 14.88s13.52-4.81 13.52-14.88ZM753.99.65h208.77v208.77H753.99z"/><path d="M870.24 190.89c-.64 0-1.29-.17-1.86-.5l-70.78-41.07a3.72 3.72 0 0 1-1.85-3.21V63.96c0-1.32.7-2.55 1.85-3.21l70.83-41.07c1.15-.66 2.56-.67 3.71-.01l36.11 20.67a3.716 3.716 0 0 1-3.69 6.45l-34.25-19.61-67.13 38.93v77.86l67.08 38.92 39.12-22.56-15.79-9.52-21.46 12.53c-1.17.68-2.62.67-3.78-.02l-46.14-27.72a3.705 3.705 0 0 1-1.8-3.18V77.66c0-1.32.7-2.55 1.85-3.21l46.14-26.76a3.711 3.711 0 0 1 5.07 1.35c1.03 1.77.42 4.04-1.35 5.07l-44.29 25.68v50.52l42.46 25.51 16.06-9.38-18-10.85a3.727 3.727 0 0 1-1.8-3.18v-26.78c0-1.31.7-2.53 1.83-3.2l47.47-27.98c1.15-.68 2.57-.69 3.73-.02 1.16.66 1.87 1.89 1.87 3.22v54.76c0 1.32-.7 2.54-1.84 3.21l-18.7 10.92 17.71 10.67a3.71 3.71 0 0 1 1.8 3.21 3.715 3.715 0 0 1-1.86 3.18l-46.43 26.78c-.57.33-1.21.5-1.85.5Zm3.71-60.56 19.68 11.86L914 130.3V84.17l-40.05 23.6v22.56Z" style="fill:#fff;stroke-width:0"/><path class="cls-2" d="M142.62 177.72C111.18 198.11 78.53 197 78.53 197s-.9-4.16-.54-11.35c.36-7.18 4.28-5.16 7.11-10.83 1.03-2.06 1.92-3.48 3.52-8.31.07-.2-1.88-34.61-2.38-49.21-.26-7.87-1.74-21-3.48-33.76-1.02-7.57-3.32-13.56-4.39-20.74-1.54-10.37-3.33-22.07-3.33-22.07-1.28 3.3-3.11 15.66-4.95 29.61-.88 6.69-1.77 13.75-2.6 20.35-1.75 13.97-6.11 51.38-6.77 53.41-1 3.08-1.1-.81-1.1-.81s2.59-39.24 3.37-56.45c.38-8.41 1.02-17.66 2.06-26.53.79-6.66 1.81-13.11 3.13-18.84 0 0 4.49-13.57 5.93-13.84 1.43-.27 6.62 8.55 8.37 16.41 3.97 17.73 6.31 20 9.33 38.62 2.87 17.7 5.5 32.5 5.85 34.92 1.29 8.78.65 36.18-1.56 47.09-.52 2.98-.68 4.07-2.63 6.04-4.56 4.61-7.8 10.1-7.8 13.7s-.6 3.52.25 5.61c0 0 6.01 9 40.55-11.59 0 0 10.79-5.65 10.79-18.13V34.05s-34.25-11.58-60.63-11.58-59.41 11.55-59.41 11.55v125.69c0 7.74 1.13 22.24 12.17 27.19 0 0-29.42-10.07-29.42-27.35V23.35s44.91-8.26 76.68-8.26 77.47 8.26 77.47 8.26v136.37c0 11.74-11.52 18-11.52 18ZM569.38 72.22c-3.14 1.75-7.36 2.63-12.66 2.63s-9.5-1.62-12.46-4.85c-2.97-3.23-4.44-7.75-4.44-13.54s1.48-10.49 4.44-13.95c2.88-3.33 6.7-4.99 11.46-4.99 2.11 0 3.93.23 5.46.69V23.55h8.2v48.67Zm-8.2-3.45V42.64c-1.08-.31-2.29-.47-3.64-.47-6.37 0-9.57 4.6-9.57 13.81s2.98 13.61 8.96 13.61c1.98 0 3.39-.27 4.25-.81ZM606.85 55.78l-22.23 3.23c.68 6.73 3.98 10.09 9.91 10.09 3.5 0 6.56-.66 9.16-1.98l1.95 5.17c-3.1 1.7-7.09 2.56-11.99 2.56-5.21 0-9.32-1.64-12.33-4.92-3-3.27-4.51-7.94-4.51-14s1.38-10.47 4.14-13.77c2.76-3.3 6.55-4.95 11.35-4.95s8.53 1.58 11.05 4.75c2.52 3.16 3.69 7.77 3.5 13.82Zm-7.67-3.22c0-6.87-2.39-10.3-7.16-10.3-2.52 0-4.45 1.01-5.8 3.03-1.48 2.2-2.18 5.39-2.09 9.56l15.04-2.29ZM193.7 171.02h-12.89V91.36h12.89v79.66ZM253.14 142.61c0 8.8-1.94 15.8-5.81 21-4.22 5.63-10.17 8.44-17.84 8.44s-13.62-2.81-17.84-8.44c-3.87-5.21-5.81-12.21-5.81-21s1.93-15.9 5.81-21.11c4.22-5.63 10.17-8.44 17.84-8.44s13.69 2.81 17.84 8.44c3.87 5.21 5.81 12.24 5.81 21.11Zm-12.78-.1c0-14.22-3.62-21.33-10.87-21.33s-10.87 7.11-10.87 21.33 3.62 20.8 10.87 20.8 10.87-6.93 10.87-20.8ZM297.31 154.64c0 4.79-1.87 8.87-5.6 12.25-3.73 3.38-8.62 5.07-14.68 5.07-6.48 0-11.72-1.37-15.74-4.11l3.38-8.22c2.75 2.19 6.3 3.28 10.67 3.28 2.61 0 4.72-.75 6.34-2.27 1.62-1.51 2.43-3.43 2.43-5.76s-.63-4.28-1.9-5.65-3.41-2.63-6.44-3.75c-8.65-3.31-12.98-8.62-12.98-15.94 0-4.65 1.67-8.55 5.01-11.72s7.68-4.75 13.03-4.75c5.77 0 10.69 1.34 14.77 4.01l-3.16 7.5c-2.6-2.12-5.62-3.18-9.06-3.18-2.53 0-4.52.72-5.95 2.16-1.44 1.44-2.16 3.22-2.16 5.33 0 3.73 2.81 6.72 8.44 8.97 9.07 3.66 13.61 9.25 13.61 16.78ZM392.34 171.02h-15.03l-6.08-20.3h-25.47l-6.31 20.3h-13.09l26.17-78.97h13.76l26.05 78.97Zm-23.18-28.8-8.15-27.81c-1.15-3.9-1.84-7.09-2.07-9.53h-.23c-.38 2.07-1.11 5.24-2.18 9.53l-8.49 27.81h21.11ZM445.33 171.02h-12.89v-40.33c0-6.34-3.41-9.5-10.23-9.5-3.24 0-6.19.53-8.87 1.58v48.25h-12.89v-53.84c5.84-2.74 13.26-4.12 22.28-4.12 7.95 0 13.83 1.76 17.63 5.28 3.31 2.96 4.96 7 4.96 12.14v40.54ZM503.41 167.94c-4.93 2.74-11.55 4.11-19.86 4.11s-14.89-2.53-19.54-7.6c-4.64-5.07-6.97-12.14-6.97-21.22s2.32-16.43 6.97-21.85c4.51-5.21 10.49-7.82 17.96-7.82 3.31 0 6.16.36 8.56 1.07V91.6h12.89v76.32Zm-12.89-5.38v-40.95c-1.69-.49-3.6-.74-5.7-.74-10 0-15 7.21-15 21.63s4.68 21.32 14.05 21.32c3.1 0 5.31-.42 6.66-1.27ZM562.04 142.2l-34.84 5.07c1.05 10.56 6.23 15.84 15.52 15.84 5.49 0 10.28-1.05 14.36-3.16l3.06 8.11c-4.86 2.67-11.12 4-18.79 4-8.17 0-14.61-2.57-19.32-7.7-4.71-5.14-7.07-12.45-7.07-21.95s2.16-16.41 6.49-21.58c4.33-5.17 10.26-7.76 17.79-7.76s13.38 2.48 17.32 7.44c3.94 4.96 5.77 12.2 5.49 21.69Zm-12.06-5.06c0-10.77-3.73-16.16-11.19-16.16-3.94 0-6.97 1.59-9.08 4.75-2.32 3.45-3.41 8.45-3.27 14.99l23.54-3.59ZM606.31 154.64c0 4.79-1.87 8.87-5.6 12.25-3.74 3.38-8.63 5.07-14.68 5.07-6.47 0-11.72-1.37-15.74-4.11l3.38-8.22c2.75 2.19 6.31 3.28 10.68 3.28 2.61 0 4.72-.75 6.34-2.27 1.62-1.51 2.43-3.43 2.43-5.76s-.63-4.28-1.89-5.65c-1.27-1.37-3.41-2.63-6.44-3.75-8.66-3.31-12.99-8.62-12.99-15.94 0-4.65 1.67-8.55 5.02-11.72 3.34-3.17 7.69-4.75 13.03-4.75 5.77 0 10.69 1.34 14.77 4.01l-3.16 7.5c-2.6-2.12-5.62-3.18-9.06-3.18-2.53 0-4.51.72-5.96 2.16-1.44 1.44-2.16 3.22-2.16 5.33 0 3.73 2.81 6.72 8.44 8.97 9.07 3.66 13.61 9.25 13.61 16.78ZM248.79 74.3h-8.2V48.57c0-4.04-2.18-6.07-6.53-6.07-2.06 0-3.95.34-5.66 1.01V74.3h-8.2V39.95c3.73-1.75 8.46-2.63 14.2-2.63 5.07 0 8.82 1.13 11.24 3.37 2.11 1.88 3.16 4.46 3.16 7.75V74.3ZM266.48 27.66c0 1.12-.44 2.08-1.32 2.87-.88.79-1.94 1.18-3.2 1.18s-2.33-.39-3.2-1.18c-.87-.79-1.31-1.74-1.31-2.87s.44-2.09 1.31-2.9c.88-.81 1.94-1.21 3.2-1.21s2.32.39 3.2 1.18c.88.79 1.32 1.76 1.32 2.93Zm-.43 46.64h-8.2V37.98h8.2V74.3ZM303.45 37.98 291.8 74.3h-7.82l-11.86-36.32h8.76l6.4 23.44c.5 1.75.79 3.41.88 4.98h.13c.22-1.3.54-2.96.94-4.98l6.53-23.44h7.68ZM337.86 55.89l-22.23 3.23c.68 6.73 3.98 10.09 9.9 10.09 3.5 0 6.56-.66 9.16-1.98l1.96 5.17c-3.1 1.71-7.1 2.56-11.99 2.56-5.21 0-9.32-1.64-12.33-4.92-3.01-3.28-4.52-7.94-4.52-14s1.38-10.47 4.15-13.77c2.76-3.3 6.54-4.95 11.35-4.95s8.53 1.58 11.04 4.75c2.52 3.16 3.69 7.77 3.51 13.82Zm-7.67-3.22c0-6.87-2.39-10.3-7.16-10.3-2.52 0-4.45 1.01-5.81 3.03-1.48 2.2-2.18 5.39-2.09 9.56l15.05-2.29ZM362.82 37.37l-1.62 6.01c-1.21-.4-2.47-.61-3.78-.61-1.57 0-2.88.29-3.91.88V74.3h-8.2V39.93c4-1.93 9.84-2.79 17.52-2.56ZM389 63.86c0 3.05-1.19 5.66-3.57 7.82-2.39 2.16-5.5 3.23-9.36 3.23-4.14 0-7.48-.88-10.05-2.63l2.16-5.26c1.75 1.4 4.02 2.1 6.81 2.1 1.66 0 3.01-.49 4.04-1.45 1.03-.96 1.55-2.19 1.55-3.67s-.4-2.73-1.21-3.6c-.81-.87-2.18-1.67-4.11-2.39-5.52-2.11-8.29-5.5-8.29-10.18 0-2.96 1.07-5.46 3.2-7.48 2.13-2.02 4.9-3.03 8.31-3.03 3.68 0 6.82.85 9.42 2.56l-2.02 4.78c-1.66-1.35-3.58-2.03-5.79-2.03-1.62 0-2.88.46-3.8 1.38-.91.92-1.38 2.06-1.38 3.4 0 2.38 1.79 4.29 5.39 5.73 5.79 2.34 8.69 5.91 8.69 10.72ZM405.07 27.66c0 1.12-.44 2.08-1.31 2.87-.88.79-1.94 1.18-3.2 1.18s-2.33-.39-3.21-1.18c-.87-.79-1.31-1.74-1.31-2.87s.44-2.09 1.31-2.9c.88-.81 1.94-1.21 3.21-1.21s2.32.39 3.2 1.18c.87.79 1.31 1.76 1.31 2.93Zm-.43 46.64h-8.2V37.98h8.2V74.3ZM441.93 72.33c-3.14 1.75-7.36 2.63-12.66 2.63s-9.5-1.62-12.46-4.85c-2.97-3.23-4.44-7.75-4.44-13.54s1.48-10.49 4.44-13.95c2.88-3.33 6.7-4.99 11.46-4.99 2.11 0 3.93.23 5.46.69V23.66h8.2v48.67Zm-8.2-3.45V42.75c-1.08-.31-2.29-.47-3.64-.47-6.38 0-9.57 4.6-9.57 13.81s2.99 13.61 8.96 13.61c1.98 0 3.39-.27 4.25-.81ZM476.9 72.33c-3.28 1.75-7.65 2.63-13.13 2.63-9.88 0-14.81-3.68-14.81-11.04 0-4.4 2-7.7 5.99-9.89 3.14-1.7 7.89-2.87 14.27-3.5v-1.95c0-3.99-2.4-5.99-7.21-5.99-3.01 0-6.03.74-9.09 2.2l-1.89-4.71c3.77-1.84 7.92-2.76 12.46-2.76 8.93 0 13.4 4.18 13.4 12.52v22.49Zm-7.67-2.95V54.42c-4.3.54-7.35 1.37-9.14 2.5-2.24 1.39-3.36 3.64-3.36 6.74 0 4.49 2.54 6.74 7.6 6.74 1.92 0 3.56-.34 4.91-1.01ZM513.89 72.33c-3.14 1.75-7.36 2.63-12.66 2.63s-9.5-1.62-12.46-4.85c-2.96-3.23-4.44-7.75-4.44-13.54s1.48-10.49 4.45-13.95c2.87-3.33 6.69-4.99 11.45-4.99 2.11 0 3.93.23 5.46.69V23.66h8.2v48.67Zm-8.2-3.45V42.75c-1.08-.31-2.29-.47-3.63-.47-6.38 0-9.57 4.6-9.57 13.81s2.99 13.61 8.96 13.61c1.98 0 3.39-.27 4.24-.81ZM180.72 23.74h8.74v39.04c0 4.29 2.31 6.44 6.93 6.44 2.2 0 4.2-.36 6.01-1.07V23.74h8.74v48.2c-3.96 1.86-8.99 2.79-15.1 2.79-5.39 0-9.38-1.19-11.95-3.58-2.24-2-3.36-4.75-3.36-8.23V23.74Z"/><path style="fill:none;stroke:#5757f7;stroke-miterlimit:10;stroke-width:4px" d="M675.44.73v208.69"/></svg>