<svg xmlns="http://www.w3.org/2000/svg" viewBox="0 0 1920 1080"><defs><style>.cls-1{fill:#5757f7;stroke-width:0}</style></defs><path class="cls-1" d="M793.24 629.59v-99.57h63.62v17.55h-42.23v22.82h40.8v17.55h-40.8v24.11h42.23v17.55h-63.62ZM876.7 629.59v-73.61h21.11v13.41h.86c3.28-8.27 9.84-15.12 21.68-15.12 14.12 0 23.97 9.84 23.97 27.67v47.65h-21.11V584.8c0-9.27-4.14-14.27-12.41-14.27-6.56 0-12.98 3.57-12.98 10.7v48.36h-21.11ZM964.44 629.59v-99.57h66.05v17.55h-44.65v22.82h39.94v17.55h-39.94v41.65h-21.4ZM1048.32 613.18h22.54v-72.76h-22.54v-16.41h43.65v89.16h22.54v16.41h-66.19v-16.41ZM1179.43 616.18h-.86c-3.28 8.28-9.84 15.12-21.68 15.12-14.12 0-23.97-9.84-23.97-27.68v-47.65h21.11v44.79c0 9.27 4.14 14.27 12.41 14.27 6.56 0 12.98-3.57 12.98-10.7v-48.36h21.11v73.61h-21.11v-13.41ZM1222.95 641.71h28.25v-69.33h-28.53v-16.41h49.64v80.89c0 12.41-7.28 21.26-22.4 21.26h-26.96v-16.41Zm26.11-105.14v-4.14c0-5.71 3.28-9.99 12.7-9.99s12.7 4.28 12.7 9.99v4.14c0 5.56-3.42 9.99-12.7 9.99s-12.7-4.42-12.7-9.99ZM1301.27 592.78c0-23.82 13.98-38.52 36.95-38.52s36.95 14.69 36.95 38.52-13.98 38.52-36.95 38.52-36.95-14.69-36.95-38.52Zm52.07 5.85v-11.7c0-10.84-5.71-16.98-15.12-16.98s-15.12 6.13-15.12 16.98v11.7c0 10.84 5.71 16.98 15.12 16.98s15.12-6.13 15.12-16.98ZM793.24 489.74v-63.33h7.62v56.7h30.03v6.62h-37.65ZM881.7 489.74c-5.63 0-7.8-3.27-8.35-7.62h-.45c-2 5.35-6.44 8.71-14.06 8.71-9.8 0-16.06-5.44-16.06-14.24s6.08-13.61 20.14-13.61h9.98v-4.63c0-6.8-4.08-10.34-11.16-10.34-6.26 0-10.07 2.63-12.52 6.9l-4.9-3.63c2.36-4.9 8.35-9.44 17.87-9.44 10.98 0 17.96 5.9 17.96 15.79v25.77h6.53v6.35h-4.99Zm-8.8-13.61v-7.71h-9.98c-8.62 0-12.52 2.54-12.52 7.08v1.91c0 4.81 3.72 7.35 9.71 7.35 7.44 0 12.79-3.81 12.79-8.62ZM899.85 422.61h7.26v27.94h.36c2.99-5.72 7.89-8.71 14.43-8.71 11.43 0 18.33 9.16 18.33 24.5s-6.9 24.5-18.33 24.5c-6.53 0-11.43-2.99-14.43-8.71h-.36v7.62h-7.26v-67.14Zm32.57 47.72v-7.98c0-8.44-4.9-14.06-13.34-14.06-6.44 0-11.98 3.36-11.98 9.62v16.87c0 6.26 5.53 9.62 11.98 9.62 8.44 0 13.34-5.62 13.34-14.06ZM951.65 466.34c0-14.88 8.07-24.5 21.23-24.5s21.23 9.62 21.23 24.5-8.07 24.5-21.23 24.5-21.23-9.62-21.23-24.5Zm34.75 3.36v-6.71c0-10.07-5.44-14.88-13.52-14.88s-13.52 4.81-13.52 14.88v6.71c0 10.07 5.44 14.88 13.52 14.88s13.52-4.81 13.52-14.88ZM1007.08 483.57h13.7v-34.48h-13.7v-6.17h20.96v11.79h.45c1.81-6.17 5.99-11.79 15.79-11.79h6.53v7.26h-8.8c-9.16 0-13.97 5.9-13.97 13.15v20.23h18.15v6.17h-39.1v-6.17ZM1099.44 489.74c-5.63 0-7.8-3.27-8.35-7.62h-.45c-2 5.35-6.44 8.71-14.06 8.71-9.8 0-16.06-5.44-16.06-14.24s6.08-13.61 20.14-13.61h9.98v-4.63c0-6.8-4.08-10.34-11.16-10.34-6.26 0-10.07 2.63-12.52 6.9l-4.9-3.63c2.36-4.9 8.35-9.44 17.87-9.44 10.98 0 17.96 5.9 17.96 15.79v25.77h6.53v6.35h-4.99Zm-8.8-13.61v-7.71h-9.98c-8.62 0-12.52 2.54-12.52 7.08v1.91c0 4.81 3.72 7.35 9.71 7.35 7.44 0 12.79-3.81 12.79-8.62ZM1138.46 489.74c-7.08 0-10.34-4.45-10.34-10.71v-29.94h-15.6v-6.17h11.61c3.08 0 4.26-1.09 4.26-4.26v-12.25h6.99v16.51h21.32v6.17h-21.32v34.48h21.32v6.17h-18.24ZM1169.4 466.34c0-14.88 8.07-24.5 21.23-24.5s21.23 9.62 21.23 24.5-8.07 24.5-21.23 24.5-21.23-9.62-21.23-24.5Zm34.75 3.36v-6.71c0-10.07-5.44-14.88-13.52-14.88s-13.52 4.81-13.52 14.88v6.71c0 10.07 5.44 14.88 13.52 14.88s13.52-4.81 13.52-14.88ZM1224.83 483.57h13.7v-34.48h-13.7v-6.17h20.96v11.79h.45c1.81-6.17 5.99-11.79 15.79-11.79h6.53v7.26h-8.8c-9.16 0-13.97 5.9-13.97 13.15v20.23h18.15v6.17h-39.1v-6.17ZM1281.9 483.57h16.88v-34.48h-16.88v-6.17h24.13v40.64h15.79v6.17h-39.92v-6.17Zm14.79-55.61v-1.45c0-2.63 1.54-4.63 5.72-4.63s5.72 2 5.72 4.63v1.45c0 2.63-1.54 4.63-5.72 4.63s-5.72-2-5.72-4.63ZM1332.71 466.34c0-14.88 8.07-24.5 21.23-24.5s21.23 9.62 21.23 24.5-8.07 24.5-21.23 24.5-21.23-9.62-21.23-24.5Zm34.75 3.36v-6.71c0-10.07-5.44-14.88-13.52-14.88s-13.52 4.81-13.52 14.88v6.71c0 10.07 5.44 14.88 13.52 14.88s13.52-4.81 13.52-14.88ZM544.84 422.53h208.77V631.3H544.84z"/><path d="M661.09 612.77c-.64 0-1.29-.17-1.86-.5l-70.78-41.07a3.72 3.72 0 0 1-1.85-3.21v-82.14c0-1.32.7-2.55 1.85-3.21l70.83-41.07c1.15-.66 2.56-.67 3.71-.01l36.11 20.67a3.716 3.716 0 0 1-3.69 6.45l-34.25-19.61L594.03 488v77.86l67.08 38.92 39.12-22.56-15.79-9.52-21.46 12.53c-1.17.68-2.62.67-3.78-.02l-46.14-27.72a3.705 3.705 0 0 1-1.8-3.18v-54.76c0-1.32.7-2.55 1.85-3.21l46.14-26.76a3.711 3.711 0 0 1 5.07 1.35c1.03 1.77.42 4.04-1.35 5.07l-44.29 25.68v50.52l42.46 25.51 16.06-9.38-18-10.85a3.727 3.727 0 0 1-1.8-3.18v-26.78c0-1.31.7-2.53 1.83-3.2l47.47-27.98c1.15-.68 2.57-.69 3.73-.02 1.16.66 1.87 1.89 1.87 3.22v54.76c0 1.32-.7 2.54-1.84 3.21l-18.7 10.92 17.71 10.67a3.71 3.71 0 0 1 1.8 3.21 3.715 3.715 0 0 1-1.86 3.18l-46.43 26.78c-.57.33-1.21.5-1.85.5Zm3.71-60.56 19.68 11.86 20.37-11.89v-46.13l-40.05 23.6v22.56Z" style="fill:#fff;stroke-width:0"/></svg>