<svg xmlns="http://www.w3.org/2000/svg" viewBox="0 0 369.21 502.19"><defs><style>.cls-1{fill:#ffffec;stroke:#760287;stroke-miterlimit:10;stroke-width:.97px}</style></defs><path class="cls-1" d="m42.38 25.35-1.17-.36-.6-.13-.43-1.24-.64-1.41-.98.13-.6.34-.77.81-.81.98-.85.72-.98.26-1.32 2.26-.34 1.49.04 2.3s-.94.6-1.07.68c-.13.09-1.32.6-1.32.6l-.43 1.24-.04 2.05.64.85.17.55-.21 1.15-1.24 1.83-.13 1.41-.43.9.77.81 1.11.34s.13.85.17 1.36c.04.51.17 1.19.17 1.19l-.72 2.77.26.17.04.68-1.07 2.94-.51 2.52.09 1.41 1.66 1.92.51-.13s.6-.38.64-.51c.04-.13.38-.72.51-1.24.13-.51.43-1.96.68-2.22.26-.26 1.24-1.62 1.24-1.62l.72-2.9.94-3.92.47-.81-.13-.85.64-1.02.64-1.15.38-1.19-.17-1.62.6-.94.51-.47-.04-3.3c0-.06.13-1.58.13-1.58l-.19-.62-.79-.23-.19-.51.58-.13s.3.13.6.11c.3-.02.85-.13.85-.13l.32-.19s.02-.3-.02-.36-.75-.51-.75-.51l-.7-.34-.3-.21-.6-.47.17-.38.38.02 1 .87s.41.34.53.23c.13-.11.23-.38.23-.38l-.45-.64-.47-.38-.38-.51-.17-.45.85-.36.83-.17.28-.17.75-.6 1.22-.21.36.15s.02.3.21.21.58-.38.6-.45c.02-.06-.04-.6-.15-.68-.11-.09-1.34-.55-1.34-.55ZM66.98 30.46l-.41.19-.32.23-.72-.3.06-.94-.11-.64-.51-.83.38-.79.43-.34.34-.75-.17-.64-1.13-.26-.72-.17-.19-.58-.13-.75-.81-.51-.17.15-.17.32-.11.41-.83.36-.32.43.23 1.41.02.79-.47.58-1.02.19-.87-.06-.66-.41-.66.06-.6.51-.87.49-.34.85s-.53.77-.64.85c-.11.09-.41.77-.41.77l-.32.6v2.92l-.15.58-.34.55-.47.6.06.51.55.49.43.64s.17.3.17.72-.09 1.15-.09 1.15l-.04.43s-.13.75-.09.9c.04.15.68 1.04.68 1.04l.53.64.96-.3.75-.45 1.09.02.92-.68 1.15-1.75.96-1.09.83.13 1.6-.28.47-.98.34-1.19.04-1.66.49-1.96 1.53-.58.38-.7.11-.75-.66-.19ZM59.69 24.72l.85-.13.82-.27.51-.48.06-.6-.36-.59-.34-.59s.2-.47.21-.52c.01-.05.01-.39.01-.39l-.31-.38-1.06.25-1.62.69-.11.77.13 1s1.17 1.2 1.19 1.24Z"/><path class="cls-1" d="m42.38 25.35-1.17-.36-.6-.13-.43-1.24-.64-1.41-.98.13-.6.34-.77.81-.81.98-.85.72-.98.26-1.32 2.26-.34 1.49.04 2.3s-.94.6-1.07.68c-.13.09-1.32.6-1.32.6l-.43 1.24-.04 2.05.64.85.17.55-.21 1.15-1.24 1.83-.13 1.41-.43.9.77.81 1.11.34s.13.85.17 1.36c.04.51.17 1.19.17 1.19l-.72 2.77.26.17.04.68-1.07 2.94-.51 2.52.09 1.41 1.66 1.92.51-.13s.6-.38.64-.51c.04-.13.38-.72.51-1.24.13-.51.43-1.96.68-2.22.26-.26 1.24-1.62 1.24-1.62l.72-2.9.94-3.92.47-.81-.13-.85.64-1.02.64-1.15.38-1.19-.17-1.62.6-.94.51-.47-.04-3.3c0-.06.13-1.58.13-1.58l-.19-.62-.79-.23-.19-.51.58-.13s.3.13.6.11c.3-.02.85-.13.85-.13l.32-.19s.02-.3-.02-.36-.75-.51-.75-.51l-.7-.34-.3-.21-.6-.47.17-.38.38.02 1 .87s.41.34.53.23c.13-.11.23-.38.23-.38l-.45-.64-.47-.38-.38-.51-.17-.45.85-.36.83-.17.28-.17.75-.6 1.22-.21.36.15s.02.3.21.21.58-.38.6-.45c.02-.06-.04-.6-.15-.68-.11-.09-1.34-.55-1.34-.55ZM66.98 30.46l-.41.19-.32.23-.72-.3.06-.94-.11-.64-.51-.83.38-.79.43-.34.34-.75-.17-.64-1.13-.26-.72-.17-.19-.58-.13-.75-.81-.51-.17.15-.17.32-.11.41-.83.36-.32.43.23 1.41.02.79-.47.58-1.02.19-.87-.06-.66-.41-.66.06-.6.51-.87.49-.34.85s-.53.77-.64.85c-.11.09-.41.77-.41.77l-.32.6v2.92l-.15.58-.34.55-.47.6.06.51.55.49.43.64s.17.3.17.72-.09 1.15-.09 1.15l-.04.43s-.13.75-.09.9c.04.15.68 1.04.68 1.04l.53.64.96-.3.75-.45 1.09.02.92-.68 1.15-1.75.96-1.09.83.13 1.6-.28.47-.98.34-1.19.04-1.66.49-1.96 1.53-.58.38-.7.11-.75-.66-.19ZM59.69 24.72l.85-.13.82-.27.51-.48.06-.6-.36-.59-.34-.59s.2-.47.21-.52c.01-.05.01-.39.01-.39l-.31-.38-1.06.25-1.62.69-.11.77.13 1s1.17 1.2 1.19 1.24ZM163.26 38.97l-1.34 7.75 1.49 2.01 6.71-.89 4.25-.37v.97l-.67 2.98 1.04.07 1.56.07 1.04 1.19 2.24.97s.07.75-.6 1.42c-.67.67-1.71 2.16-1.71 2.16l-.75 2.09.82 1.49.75.45 2.46-.3 4.77.37 1.51.71.53-3.07 4.37-7.35s.89-3.28 1.19-3.58c.3-.3 3.68-3.18 3.68-3.18s.99-4.77 1.29-4.77 7.55-1.09 7.55-1.09l7.65-15.8 18.48-5.17 3.28-3.38 3.28-.89s.1-2.09-.1-2.68c-.2-.6-2.58-4.87-2.58-4.87l-.79-2.58-6.86-1.99-4.37-1.19-3.08 1.59-2.19.89h-1.59l-1.39.6-.1 2.29 1.19 1.39-1.39 1.69-1.79.1-.2-1.99.1-1.19-2.68.6h-2.98v2.78l-.3 5.56-2.58 3.08-9.94 2.68-6.06 1.49-4.57 4.67s-5.56 4.17-6.16 4.77c-.6.6-5.86 3.28-5.86 3.28l-6.16 1.09-.56-.02-.09.41-1.79 2.68ZM115.51 56.66l.7 2.78 2.38 1.59s.99 1.19 1.79 1.39c.79.2 3.97 2.48 3.97 2.48l1.29 1.19 2.38-4.57 1.19-2.98 1.39-.89.7-5.96-.4-3.97-.1-2.38-3.42-5.1-.21-.07-3.28 3.28-3.95 4.47-5.69 2.43.85 2.74.4 3.58Z"/><path class="cls-1" d="m123.76 70.12 4.77 3.13-.6 2.24-1.04 2.24v2.83l.45 2.09 2.53 3.13s-.15 1.19-.3 1.64c-.15.45 0 2.38 0 2.38l.75.89 2.68 1.94 4.32 4.02 1.19.15 3.73.45 4.17 2.83 2.53 2.83 5.96 1.64 4.02-1.19-.75-3.28-3.87-2.53-2.53-3.13-1.49-5.22-.15-2.24 1.04-.6h4.62l3.58-.89-3.28-6.71-5.37-4.32-1.79-4.32 1.34-2.83 5.81-5.66 5.51-1.94 2.38-3.13.3-3.28.6-2.83-1.49-1.71-1.49-2.01 1.34-7.75 1.79-2.68.09-.41-6.59-.18-7.85-2.88-3.28 1.29-2.29 3.68.8 5.07-3.75 6.86-2.16 1.56-1.27-1.86.15-2.46 2.31-1.27.52-1.04-3.06-.6-11.27-3.8 3.42 5.1.1 2.38.4 3.97-.7 5.96-1.39.89-1.19 2.98-2.38 4.57-1.29-1.19v3.13l-.6 2.09ZM169.96 99.88l-.1 1.59.3 2.48-1.29 2.68.99 1.59.2 2.88-1.29 1.59-.89.89-1.79 1.79s.3 2.09.4 2.38c.1.3 1.19 1.19 1.19 1.19l.99.99v.99l-.79 1.29.3.99 1.09.89s.6.2.79-.1c.2-.3.79-2.09.79-2.09s-.3-1.69.1-1.69 1.09.3 1.09.3l.5 2.88-.6 2.29s-.6 1.79-.89 2.19c-.3.4-.65 1.84-.65 1.84l.82 1.94 1.04 1.12 1.42 1.19.52 1.42-.07 1.86-1.42.82-.22 2.24-1.27 1.56-1.42 1.79-1.42.37-1.79-.52-2.09-1.71-1.04.22.22.75 1.86 2.31 2.31 1.64 2.61 1.34 2.24.3 1.42-.37.89-1.12 1.04-1.71h4.55l1.71.82.82 1.19s.3 1.64.6 2.01c.3.37 1.57 1.19 1.57 1.19l.6 2.31s1.42.15 1.42.67.22 2.16.22 2.16l-.45 1.71 1.12 1.42-.82 2.46-.75 1.19 2.38 1.71 1.49.22h.52c.22 0 2.68-.07 2.68-.07l2.83.07-.52 1.79s-.22.37-.22.6 1.12.75 1.12.75l1.57-.45.97.82s1.49.52 1.86.37c.37-.15 1.86.07 2.09-.52.22-.6.3-1.04.3-1.42s.52-1.94.52-1.94l1.27.67 1.86.37-.15-2.24.37-.89 2.95.4c-1.26-1.98-3.17-5.01-3.17-5.17 0-.22-.6-3.35-.6-3.35l-2.53-1.34h-5.07l-.45-5.29-.89-6.71 1.42-3.87 1.86-1.56s.22.3.45-.07c.22-.37-2.31-9.31-2.31-9.31l.3-2.53-6.48-6.04-4.4-16.32-3.06.52-1.34-1.27-.15-2.98-1.19-1.42-3.58.82-1.27 2.61-3.95.22-1.42-1.42-.07 1.22-2.68.6ZM212.98 168.14l-2.19 5.66-2.38 3.28s.2 1.79-.1 2.38c-.3.6-.99 1.59-.99 1.59h-3.08l-.89.4s.2 1.09.1 1.69c-.1.6-2.29 1.79-2.29 1.79s-1.79-.1-1.79 1.09.7 2.19.7 2.19l2.98 2.98 3.18 1.89 2.98.1 2.58-1.29 3.78-1.89s3.18.79 5.37-.89c2.19-1.69 1.19-2.09 2.19-1.69.99.4 3.87 1.39 3.87 1.39s2.78.2 3.68-.1c.89-.3 3.58-2.09 3.58-2.09l2.68-.99 4.67 1.89 4.17.5 4.17.5 5.86-.2s.99 0 1.79-.6c.79-.6 2.68-1.79 2.68-1.79l5.17-.89 3.38-.1 2.38 2.09s1.49.99 1.99 1.59c.5.6 1.49 1.69 1.49 1.69s1.89 1.59 2.38 1.99c.5.4 2.68 1.29 2.68 1.29l4.27.2 3.38-.7 2.98-1.79 1.05-1.22-.23-.42h-.67l-20.87-24.52-6.48 1.27-4.25-2.09-4.17-2.24-3.35-1.12-6.11 1.12-3.35 2.31-1.94.89-2.53-1.79-6.71.22-5.44.6-1.94-1.57-3.5.45-2.16.52-3.85.33v.81l-.89 3.28Z"/><path class="cls-1" d="M277.27 195.56s-.3 1.89-.79 2.68c-.5.79-4.37 3.18-4.37 3.18l-1.09 2.38-2.88 1.79-3.18.99-1.79.3-3.97.6-2.58 1.99-2.48 2.48-1.59 1.59-.3 2.78s-3.58 2.09-3.88 2.19c-.3.1-3.58 1.39-3.58 1.39l-.7 2.29-3.48 5.27v62l3.38 1.39s1.99-.1 2.29-.1 3.28.79 3.28.79l3.18.5 2.58-1.19 3.48.4 2.58-1.19s1.69-1.79 2.48-2.09c.79-.3 2.19-1.19 2.19-1.19l-.2-3.18-.7-2.38 3.38-1.59 2.48-3.08-.5-1.79.3-1.89 4.07-.4 1.29.2 2.19-1.49.6-1.09 2.19-1.99s.6.4 1.19.4 3.68-.1 3.68-.1.1 1.09.4-.99l.3-2.09s-.7-.5.4-.79c1.09-.3 2.98-.79 2.98-.79l3.18.5 2.38-.7 3.18 1.89 2.88.89s.6-.3 1.99-.89c1.39-.6 3.08-1.19 3.08-1.19l2.09-1.09s1.49-.7 3.38-.2c1.89.5 3.58 0 3.58 0l1.89-.89s.7-1.59 1.39-1.89c.7-.3 3.08-1.29 3.08-1.29l1.49-1.49s.99-.6 1.49-1.09c.5-.5 4.77-1.29 5.07-1.29s2.78.4 3.58.7c.79.3 1.79.5 1.79.5s1.29.5 2.19.99c.89.5.2 1.09 1.39.6 1.19-.5 1.49-.5 1.99-1.39.5-.89.3-.89 1.19-1.49.19-.13.5-.33.85-.55l-.73-3.35-2.61-2.09.52-4.4-1.71-4.99s-1.49-1.86-1.49-2.16 1.27-4.47 1.27-4.47l-.37-5.44s.52-3.65.82-4.1c.3-.45.37-2.83.37-2.83l-1.12-4.32 1.34-2.16 5.66-4.99-.07-5.29.89-5.44 3.43-2.31.82-4.25-1.19-1.94.3-3.06s-5.37-2.31-6.04-2.46c-.67-.15-7.23-.22-7.23-.22l-3.35 3.28-3.8-1.12-2.46.97-2.68 1.12-4.32-.75-5.89 2.31-1.42.37-2.98-2.01s-4.47-.82-5.14-.82-3.06.82-3.06.82l-3.13-.22-4.47 3.5-1.27-.22-.67-1.22-1.05 1.22-2.98 1.79-3.38.7-4.27-.2s-.44-.18-.97-.42l-.42.52-1.09 1.89Z"/><path class="cls-1" d="M368.71 334.89c-.07-.52-2.68-7.53-2.68-7.53l-5.66-11.03.52-2.83-1.34-1.71-1.34-3.43.37-3.2-7.23-7.53-4.1-2.46-1.42-4.02-3.8-.97-2.91-.22.89-1.56 14.31-13.71.45-2.24-1.71-2.01s-1.12-2.61-1.56-3.65c-.45-1.04-2.46-5.51-2.46-5.51l-3.28.37-.97-1.94-1.12-3.2-.47-2.16c-.35.22-.65.42-.85.55-.89.6-.7.6-1.19 1.49-.5.89-.79.89-1.99 1.39-1.19.5-.5-.1-1.39-.6-.89-.5-2.19-.99-2.19-.99s-.99-.2-1.79-.5c-.79-.3-3.28-.7-3.58-.7s-4.57.79-5.07 1.29-1.49 1.09-1.49 1.09l-1.49 1.49s-2.38.99-3.08 1.29c-.7.3-1.39 1.89-1.39 1.89l-1.89.89s-1.69.5-3.58 0c-1.89-.5-3.38.2-3.38.2l-2.09 1.09s-1.69.6-3.08 1.19c-1.39.6-1.99.89-1.99.89l-2.88-.89-3.18-1.89-2.38.7-3.18-.5s-1.89.5-2.98.79c-1.09.3-.4.79-.4.79l-.3 2.09c-.3 2.09-.4.99-.4.99s-3.08.1-3.68.1-1.19-.4-1.19-.4l-2.19 1.99-.6 1.09-2.19 1.49-1.29-.2-4.07.4-.3 1.89.5 1.79-2.48 3.08-3.38 1.59.7 2.38.2 3.18s-1.39.89-2.19 1.19c-.79.3-2.48 2.09-2.48 2.09l-2.58 1.19h-.07l-.75 1.39-10.36 5.29.97 1.27 2.31-.3 1.49 2.91 3.5 3.28.22 2.31 4.55 1.34 3.43-.15 3.5-1.04 1.49-.75 3.43-.15 1.64 1.64-.22 1.49-2.53 1.12-.52 2.76-.3 2.53-2.53 1.12s-.15.97-.07 1.19 1.12 1.19 1.12 1.19 1.64.97 2.46 2.01c.82 1.04 3.06 2.01 3.06 2.01l1.71-.22 1.34-.15 2.01 1.68 3.58-.64 4.02-2.68 6.56 2.53h35.32l-1.71-2.09-1.49-1.94 3.43-4.47 3.43 2.76.07 3.58 5.14 2.76.97-2.38-.97-2.31 2.91-2.16h2.16l7.82-6.78 2.91.82.15 3.06.6 4.02 3.43 4.84 1.71 2.09.89 3.43s1.27 2.98 1.27 3.5-.22 4.25-.22 4.55.07 2.61.07 2.61 1.71 1.34 2.01 1.34 2.91-.37 3.2-.45c.3-.07 1.71-2.68 1.71-2.68s.15-2.91.07-3.43ZM288.6 411.47l-2.09-.99-1.69 1.79h-.6l-1.09-2.38s-.99-1.49-1.59-2.09c-.6-.6-1.29-.2-1.79-.2s-.79 1.19-.79 1.19l-1.09.6-1.39-1.39v-1.79l-.89-2.19h-1.49l-1.09.3-1.49.2V407c0 .6-.89 1.79-.89 1.79l-1.29-.1s-2.19-1.29-2.68-1.59c-.5-.3-1.49-1.19-1.49-2.19s.89 0 .89 0l.4-3.18-1.29-2.58 1.19-2.09s-.1-.79-.2-2.29c-.1-1.49-.3-.3-.4-1.29-.1-.99.3-.7.3-.7l2.29-1.29s.89-1.19.89-1.49-1.99-.6-1.99-.6l-2.88 1.19-2.09.3-1.99-.89-.2-1.09c-.2-1.09-1.29-.2-1.29-.2l-1.79-1.29-1.19-1.49s-2.98-.79-3.97-.99c-.99-.2-.79.79-.79.79l-1.19 1.19h-1.09l-1.29-.79-.3-2.38-1.29-1.79.1-1.19-.1-1.59-.79-1.59-2.68-1.69-.5-.6-2.09-1.19-1.19-.2-1.19.89-3.87-2.29-.89 1.39-3.28.7-2.88 1.49-4.87 3.68-.89 2.19-1.09 2.48-3.28-.99-4.57.5-.6 2.58-.6.6-2.68 1.99-1.49 3.38-1.09 2.09h-2.29l-1.89-2.78-5.07 5.07-3.18-2.98-2.48-1.39-2.68 1.49-2.29.5-.79-1.09-1.49-1.89-1.79.1-.4 2.19-.79 1.19s-2.68.1-3.18-.2c-.5-.3-1.19-1.39-1.19-1.39l-3.38-1.39s-1.59-.7-2.48-.5c-.89.2-2.29.7-2.78.79-.5.1-1.59-.79-1.59-.79l-.1-.89-1.09-.99s-1.79-1.39-2.29-1.99c-.5-.6-1.39-.3-1.39-.3l-1.99 1.69-1.59-.3-16.48 4.75 1.88 3.1.7 3.97 1.19 4.37.5 1.79 8.15 4.17 5.76 2.48 2.98 3.58 1.69-.2 3.97 3.38.6 4.67-1.59 3.58 4.37 2.09 4.47 1.69 1.69-.89 2.19 3.18.3 6.86s-.89.2-1.29 1.09c-.4.89-.89 1.99-.89 1.99l2.48 3.97 5.46 1.59s5.56.5 5.86.5 7.45-.1 7.45-.1l7.45.99 6.16-1.69 7.45-4.67 2.78-3.08 5.96 3.38 1.99 1.99 7.05 1.49s.1-.1.5-.3 2.98-2.19 2.98-2.19l3.68-2.09 6.16 2.29s4.37 3.28 4.77 3.48c.4.2 10.53 3.18 10.53 3.18l4.87 2.29 1.29 2.68-18.38 30.6 3.88 2.48 2.98.79 2.09-1.29h3.48l3.08 2.29 6.96 8.15 14.51-80.58 1.24-9.24v-1.14l-1.94 1.64-1.49-.3Z"/><path class="cls-1" d="m279.65 358.06 4.02-2.24 4.92-2.09 2.38 2.98 5.51.89 2.09-.89-.15-2.68-1.79-7.15-.89-3.43-3.58-.6-2.98 1.34-3.58-.45-4.17-1.79h-2.38v-16.84l.59-.11-2.01-1.68-1.34.15-1.71.22s-2.24-.97-3.06-2.01c-.82-1.04-2.46-2.01-2.46-2.01s-1.04-.97-1.12-1.19.07-1.19.07-1.19l2.53-1.12.25-2.11-1.49-.87-2.68 1.09-3.18 1.69-3.88 1.29-4.77 1.79s-.89 0-1.29-.1-4.07-.79-4.07-.79-3.48-.2-4.07.3c-.6.5-2.98 3.88-2.98 3.88l-4.47 1.69-2.88-.7-2.38-1.09-.5 2.38-1.49 2.98-1.39 2.98s-1.09 2.09-1.09 3.28.1 3.38.1 3.38.2 2.98.2 3.28-.1 1.29-.1 1.29l-3.18 1.09-1.89 1.29-1.39 1.89-.79.2-.4.1-.89.89-.2 1.89-7.45 6.66 2.38 3.08 2.88 2.38.1 2.98s2.48 2.19 2.58 2.58c.1.4 3.48 1.99 3.78 2.19s3.78 1.89 4.37 1.89 5.07.2 5.07.2l.57 1.61 3.51 2.07 1.19-.89 1.19.2 2.09 1.19.5.6 2.68 1.69.79 1.59.1 1.59-.1 1.19 1.29 1.79.3 2.38 1.29.79h1.09l1.19-1.19s-.2-.99.79-.79c.99.2 3.97.99 3.97.99l1.19 1.49 1.79 1.29s1.09-.89 1.29.2l.2 1.09 1.99.89 2.09-.3 2.88-1.19s1.99.3 1.99.6-.89 1.49-.89 1.49l-2.29 1.29s-.4-.3-.3.7c.1.99.3-.2.4 1.29.1 1.49.2 2.29.2 2.29l-1.19 2.09 1.29 2.58-.4 3.18s-.89-.99-.89 0 .99 1.89 1.49 2.19c.5.3 2.68 1.59 2.68 1.59l1.29.1s.89-1.19.89-1.79v-2.48l1.49-.2 1.09-.3h1.49l.89 2.19V408l1.39 1.39 1.09-.6s.3-1.19.79-1.19 1.19-.4 1.79.2c.6.6 1.59 2.09 1.59 2.09l1.09 2.38h.6l1.69-1.79 2.09.99 1.49.3 1.94-1.64v-.95l-2.24-4.62-2.68-4.77-1.19-3.43.75-3.28-2.83-3.28-6.11-3.73-3.58-3.13-1.79-3.13V358.8l7.3-.75ZM57.59 359.01l-1.99-2.19s-.3-1.19 0-1.49c.3-.3 1.59-2.68 1.59-2.68l3.18-2.98s.3-1.29.6-2.38c.3-1.09-.1-1.39-.1-1.39l-1.49-3.78 1.89-2.29 4.27-1.99 1.49-1.19-.79-1.89-.5-1.89.6-3.18.99-.99-.3-1.69-2.48-1.69-1.09-1.29-3.68.2s-1.89 1.49-2.19 1.59c-.3.1-2.38-.1-2.38-.1l-2.48-.4-.7-1.59.79-1.29 1.29-2.19 1.49-1.69.6-1.99-.2-1.09-1.39-.6-1.19-1.99.4-.89v-1.19l-2.88-1.79-3.78.89-3.48.1-3.18-1.79-1.79-1.99-2.09-4.17-.7-3.18-3.08-1.59-.42-1.94-.97.15-5.86-.79-2.09.89-5.37 2.29-1.19 1.29-3.28 5.86-1.59 4.87.6 1.89.89 2.88 1.49.6-.7 1.69-.1 1.09.99 1.79-.4 1.39-1.29.89s-1.79-.1-2.29-.1H9.97l-2.09-1.09-1.69-.4s-2.58 1.69-2.88 1.89c-.3.2-2.78 4.37-2.78 4.37l.79 1.59s1.49 1.99 1.79 2.09c.3.1 2.68 1.89 2.68 1.89l2.09 3.38 9.64 5.46 5.17 5.27 6.06 4.17 6.66 2.09 3.58-1.09h2.88v.5s-.5 2.19-.5 2.48 2.78 1.69 2.78 1.69l2.09 1.99 1.09 4.47 1.19 3.78h7.25l2.68-1.49.52.52-.23-4.4-1.19-2.19Z"/><path class="cls-1" d="m143.43 382.21-3.13.89-5.22-.89-2.53-2.53.3-3.13-.15-2.83-5.37-2.83-1.04-.45-3.58-1.49-.89-2.83-1.04-1.94-.75-1.49-1.94.15h-1.49l-.75-2.98v-2.53l-.6-1.94-2.68-.3-4.47-3.43-4.32-.75-2.38.15-3.73.3-1.64-1.34-2.09-3.58-2.68-1.04-2.09 1.19-4.62.15-5.51-.3h-.89s-3.13-2.38-3.13-2.98.75-2.98.75-2.98.45-2.68.15-3.28c-.3-.6-1.34-3.43-1.34-3.43l-1.64-.75-1.94 1.64-3.97 1.99-1.49 1.19-4.27 1.99-1.89 2.29 1.49 3.78s.4.3.1 1.39c-.3 1.09-.6 2.38-.6 2.38l-3.18 2.98s-1.29 2.38-1.59 2.68c-.3.3 0 1.49 0 1.49l1.99 2.19 1.19 2.19.23 4.4 1.76 1.76 7.65 1.89 7.45.1 5.17.6.89-3.38 1.59-2.29 3.28.1 3.87 1.39 2.09 1.79 1.69 2.68 2.98 3.08 4.27 2.29 5.46.1 6.16 4.87h1.59l1.09-2.29 3.58-.1 3.28 3.28 1.79 1.49 2.48-.99 3.48.3 1.69 3.28 3.68 3.97 3.18 1.59 1.09 1.69.41.67 16.31-4.7-9.81-5.96-3.73-.6ZM104.19 94.41l2.48 1.19 3.08 1.59.99 2.09 1.39 2.68 3.88.89s.5 2.19.5 2.48-.99 2.09-.99 2.09l-.89.2h-3.87c-.3 0-1.29.3-1.29.3l.99 2.09 1.29 1.69.7 1.79v1.39s.89 2.98.89 3.58.4 1.39.4 1.39l.99.1 2.48.7s-.2.6-.3.89c-.1.3.5 1.09.5 1.09l1.79-.7 2.19-1.89 2.29-.3 2.09.89 2.48 1.79s.6 1.99.7 3.18c.1 1.19.79.99.79.99l3.28-1.69 1.69-1.69s.4-.89.7-1.09c.3-.2.5-1.19.5-1.19s.1-1.69.1-1.99v-1.39l-1.09-3.28-.4-1.39.89-.89.3-1.39-.2-2.58-1.49-2.29-3.18-1.69-2.38-1.19-1.59-2.38-.4-1.69-1.19-1.49.1-5.07-.4-.79-.89-1.69-1.29-1.69-3.48-.99-2.29-2.19-2.09-.5h-3.08l.7-1.29-.1-2.38-.4-3.28-.5-.7-2.19-.5-.99-1.19-.79-3.97-.6-1.09-1.16.22-.45 1.72-1.56 7.08-.67 1.64 1.49 2.53s.82 1.27.97 1.86c.15.6-.07 3.28-.07 3.28l-1.42 2.68-1.99.35.79 1.88 1.29 1.19Z"/><path class="cls-1" d="m86.2 115.73 1.19 3.73-1.79 1.94-2.24 2.68-1.94 5.22-.15 3.28-1.64 2.53-.75 5.51-1.49 2.98s.3 2.83 1.34 4.92 2.83 3.88 2.83 3.88 5.51 1.64 6.41 1.64 5.66.15 6.56-.15c.89-.3 6.11-1.94 6.11-1.94s1.19-1.94 2.83-2.24c1.64-.3 4.47-3.13 4.47-3.13l.3-3.73 1.49-4.47 4.47-3.58 2.38-2.83 2.68.3 4.92.6 3.13-2.38 1.04-1.34.77-2.78c-.11-.15-.2-.37-.23-.74-.1-1.19-.7-3.18-.7-3.18l-2.48-1.79-2.09-.89-2.29.3-2.19 1.89-1.79.7s-.6-.79-.5-1.09c.1-.3.3-.89.3-.89l-2.48-.7-.99-.1s-.4-.79-.4-1.39-.89-3.58-.89-3.58v-1.39l-.7-1.79-1.29-1.69-.99-2.09s.99-.3 1.29-.3h3.87l.89-.2s.99-1.79.99-2.09-.5-2.48-.5-2.48l-3.88-.89-1.39-2.68-.99-2.09-3.08-1.59-2.48-1.19-1.29-1.19-.79-1.88-1.81.32-4.02-1.27-3.87 3.2-3.28 2.46-.37 2.98-2.76 5.07-4.25 3.73-1.3.43 2.34 6.73 3.43.75ZM50.04 249.81s3.38.1 3.48-.5c.1-.6.3-.99.3-.99l4.07.6.99 1.39 2.88 1.59 1.09-.7 2.88 1.59 2.29 2.09 1.59.6 3.08-.6 3.18-2.48 2.78-.99.5-1.99-1.09-.7-1.69-1.49v-2.48l-1.89-2.09 2.98-.79 4.17-10.04 2.88-.99 2.19-1.19 1.19-3.08 2.19-.6-.6-3.78-1.39-2.58-1.79-2.58-.6-3.28 1.09-1.59 2.29-1.09.7-1.59s.3-2.38.3-2.88-.3-1.89-.3-1.89l-1.39-2.09.5-1.89.1-4.67-.5-.89-2.38-1.19-.7-1.69.1-1.69-.5-1.09-.6-.4-3.38.5-3.68.3-1.69.79h-3.58l-1.29-.89-.79-5.76-1.09-2.48-1.79-1.59-.5-2.78-2.09-3.28-1.09-1.59-.7-1.29.89-.89 3.97-1.09 1.19-.79v-1.29l-1.09-1.49v-.5l3.18-.4 2.38-.1 1.59.99s1.19.2 1.59 0c.4-.2 0-1.09 0-1.09l1.29-1.79-1.09-3.97-.4-2.19-1.89-1.39-1.99.5-1.99-2.38-1.19-2.68-3.87-3.97-3.48-1.39-2.29-3.38-1.29-1.09 1.29-1.09 1.59-1.09.1-2.19 2.38-3.28v-1.39l.6-3.58-2.78-2.21-1.64-.67s-1.79-2.76-1.86-2.98c-.07-.22-3.06-2.68-3.06-2.68l-1.49-3.2-1.64-2.01-2.53 4.92 1.19 2.48 2.48 3.87s.1 3.38.5 3.68c.4.3 2.58 2.48 2.58 2.48l1.09 3.28-2.88 1.19-2.48 1.29.5 2.48-1.29 2.68-3.88 2.78-1.09 3.28-1.59.3s-1.39-.6-1.19-2.98c.2-2.38-.89-4.67-.89-4.67l-2.78-.6-.6 1.49.5 2.29s.7 1.69.89 2.19c.2.5.3 1.69.3 1.69l-.7.99-2.19.99-.89 1.19-1.09 5.46 5.37 4.57 1.19 4.47-1.19 2.29 2.29 1.29 1.19 3.28.99 2.38s3.18-.5 3.48-.5 2.78 1.29 2.78 1.59-.79 5.17-.79 5.17-.3 2.19-.5 3.78c-.2 1.59-4.07 1.99-4.07 1.99l.5 3.18 1.89 2.68 3.58 2.29 1.59 2.78.6 3.28-.79 2.98-3.18 1.69-3.58-.2-1.49 1.59.6 2.48 2.19.79 1.19 1.69.5 5.46v5.76s.7 5.46.79 5.76c.1.3 1.59 3.48 1.59 3.48l-.3 9.04-1.99 2.29-3.38 1.99-.5 3.38 1.15 3.17c1.07-1.22 2.18-2.52 2.23-2.67.1-.3.4-.4.4-.4Z"/><path class="cls-1" d="m50.13 277.93 1.09 2.09 2.68.7h1.09l1.49 1.49 3.28.99 2.38-.1 2.48.4 1.99.89 1.89-.3 1.59-1.59 3.88-.1s.89 0 1.29-.3 1.29-.99 1.29-.99l1.59-3.68-.2-2.09 2.38-.1 1.49.89 2.68 1.29 3.28 1.29h.99l1.59-.5s-.1-1.59-.1-2.09-.4-1.99-.4-2.48.79-2.78.79-2.78l.89-1.69s.6-2.38.89-2.68l3.18-3.18.7-3.68 2.68-4.47-.5-1.59s-.99-1.49-.99-1.79.99-3.58.99-3.58l.3-3.88-.79-1.64-1.79-.55s.15-1.69.25-1.84c.1-.15.45-1.24.45-1.24l-.3-1.94.5-1.34 3.18.45.35-.35 1.04-2.09-2.24-.45-1.79.1-.7-1.24-1.99.35-.79-.84.84-1.19-.1-1.24-1.99-.35s-1.09-1.29-1.19-1.54c-.04-.11-.85-.89-1.74-1.74l.05.3-2.19.6-1.19 3.08-2.19 1.19-2.88.99-4.17 10.04-2.98.79 1.89 2.09v2.48l1.69 1.49 1.09.7-.5 1.99-2.78.99-3.18 2.48-3.08.6-1.59-.6-2.29-2.09-2.88-1.59-1.09.7-2.88-1.59-.99-1.39-4.07-.6s-.2.4-.3.99c-.1.6-3.48.5-3.48.5s-.3.1-.4.4c-.05.15-1.17 1.45-2.23 2.67l.54 1.5 1.09 1.09 2.09-.6 1.59-1.09.99-1.29 3.08.99-.7 1.99-1.69 2.38 2.09 1.19 3.08-.79-.2 2.38-1.99 4.07s-1.19 2.98-1.59 3.38-4.27 3.48-4.57 3.97c-.19.32-.9 1.71-1.39 2.69l.1.09.2 3.08Z"/><path class="cls-1" d="M87.99 342.22c-.2-.4-1.79-1.59-1.79-1.59l-2.38-2.29.5-4.67 1.89-2.48.4-1.49-1.59-.6h-3.38c-.3 0-3.18-1.09-3.18-1.09l.3-2.48.7-1.89-.89-2.78-2.58-.89-1.69-.79s.2-3.08.1-3.38-.4-2.29-.4-2.58 1.39-1.29 1.39-1.29l2.09.1 3.28.89 1.79-2.09s-.7-1.89-.99-2.38c-.3-.5 0-.89 0-.89l1.29-2.29 1.49-2.09 2.58 1.39 2.68-1.99 2.29-2.09h1.59l2.19 2.38.99.4 1.49-.3-.2-1.79s-.89-2.88-.89-3.18.79-.89.79-.89l1.29-1.89.4-1.49-2.48-1.69-.4-1.69s-3.78-2.88-4.07-2.98c-.3-.1-2.09-2.38-2.09-2.38l-1.09-2.78.4-1.49-.42-2.17-.57.18h-.99l-3.28-1.29-2.68-1.29-1.49-.89-2.38.1.2 2.09-1.59 3.68s-.89.7-1.29.99c-.4.3-1.29.3-1.29.3l-3.88.1-1.59 1.59-1.89.3-1.99-.89-2.48-.4-2.38.1-3.28-.99-1.49-1.49h-1.09l-2.68-.7-1.09-2.09-.2-3.08-.1-.09-.49.98-3.08 2.88-4.27 6.86-.79 5.17-4.07 3.97-4.69.74.42 1.94 3.08 1.59.7 3.18 2.09 4.17 1.79 1.99 3.18 1.79 3.48-.1 3.78-.89 2.88 1.79v1.19l-.4.89 1.19 1.99 1.39.6.2 1.09-.6 1.99-1.49 1.69-1.29 2.19-.79 1.29.7 1.59 2.48.4s2.09.2 2.38.1c.3-.1 2.19-1.59 2.19-1.59l3.68-.2 1.09 1.29 2.48 1.69.3 1.69-.99.99-.6 3.18.5 1.89.79 1.89 3.97-1.99 1.94-1.64 1.64.75s1.04 2.83 1.34 3.43c.3.6-.15 3.28-.15 3.28s-.75 2.38-.75 2.98 3.13 2.98 3.13 2.98h.89l5.51.3 4.62-.15.69-.39-.29-1.39s-1.39-2.19-1.59-2.58Z"/><path class="cls-1" d="m90.67 330.04 2.68-.45 2.38-3.28 2.83-4.17 4.17-3.28s3.43-2.68 3.43-3.13.89-4.02 1.19-4.62c.3-.6 4.32-4.32 4.32-4.32l2.14-2.93.89-2.78 2.98-1.09 2.68-1.59 1.19-3.58s-.2-3.08-.2-3.38 1.99-2.19 1.99-2.19l1.49-1.39.99-3.08s3.08-2.98 3.48-3.18c.4-.2 1.29-.89 2.19-1.39.89-.5 1.89-2.38 1.89-2.38s.99-3.88 1.29-4.57c.3-.7 1.69-4.47 1.69-4.47l1.19-2.09.7-4.47-1.19-.99-1.19.6-.99 1.89-2.19 2.68-2.16.52-.22 1.19.37.75-1.04 1.42-.15 1.04s.07.22.07.52-.22.97-.22.97l-2.01 2.01-3.2 2.76-3.2-.37s-.45-.52-.45-.89.67-1.57.67-1.57l1.12-1.19s-1.12-.97-1.42-.97-1.56.15-1.56.15-2.31-1.04-2.83-.07-.82 1.49-.82 1.49l-1.49.89-.89-.6-1.12-1.27-2.09.45-1.12-.37-.97 1.04-1.27 2.53-1.19.82-.15 1.79-4.17 4.1-2.83 1.64-3.43 1.34-2.91-.89-1.7-1.07.16.42s1.79 2.29 2.09 2.38c.3.1 4.07 2.98 4.07 2.98l.4 1.69 2.48 1.69-.4 1.49-1.29 1.89s-.79.6-.79.89.89 3.18.89 3.18l.2 1.79-1.49.3-.99-.4-2.19-2.38h-1.59l-2.29 2.09-2.68 1.99-2.58-1.39-1.49 2.09-1.29 2.29s-.3.4 0 .89c.3.5.99 2.38.99 2.38l-1.79 2.09-3.28-.89-2.09-.1s-1.39.99-1.39 1.29.3 2.29.4 2.58-.1 3.38-.1 3.38l1.69.79 2.58.89.89 2.78-.7 1.89-.3 2.48s2.88 1.09 3.18 1.09h3.38l1.59.6-.4 1.49 1.79-1.14h2.68Z"/><path class="cls-1" d="M205.14 353.44c-.2-.3-1.99-3.08-1.99-3.08s-.6-2.29-.79-2.58c-.2-.3-2.68-2.29-2.68-2.29l-1.99-3.08-3.58-1.29-2.68-.1-1.29-2.09-3.68 1.49.2 3.78s-1.19 1.99-2.38 2.58c-1.19.6-3.48 1.39-3.88 1.49-.4.1-2.48-1.29-2.48-1.29l-3.78-3.68-3.58-2.88-.99-3.18-1.79-1.59-1.09-2.68-2.58-1.59-.99-4.87-.89-.3-5.86 2.38-3.48-.4-1.49-1.49-2.19-1.49s-1.69-1.59-1.99-1.99c-.3-.4-1.49-.79-1.49-.79l-2.38-.2-6.26-2.78-2.58-10.04-1.39-2.29-.2-2.98.1-1.79-.6-1.89.6-3.08 1.59-1.29.5-2.29v-2.58l-2.68-1.69-1.79-1.79-2.78-.79-2.4-.91-.58 1.81-1.49 1.39s-1.99 1.89-1.99 2.19.2 3.38.2 3.38l-1.19 3.58-2.68 1.59-2.98 1.09-.89 2.78-2.14 2.93s-4.02 3.73-4.32 4.32c-.3.6-1.19 4.17-1.19 4.62s-3.43 3.13-3.43 3.13l-4.17 3.28-2.83 4.17-2.38 3.28-2.68.45h-2.68l-1.79 1.14-1.89 2.48-.5 4.67 2.38 2.29s1.59 1.19 1.79 1.59c.2.4 1.59 2.58 1.59 2.58l.29 1.39 1.4-.8 2.68 1.04 2.09 3.58 1.64 1.34 3.73-.3 2.38-.15 4.32.75 4.47 3.43 2.68.3.6 1.94v2.53l.75 2.98h1.49l1.94-.15.75 1.49 1.04 1.94.89 2.83 3.58 1.49 1.04.45 5.37 2.83.15 2.83-.3 3.13 2.53 2.53 5.22.89 3.13-.89 3.73.6 9.81 5.96.17-.05 1.59.3 1.99-1.69s.89-.3 1.39.3c.5.6 2.29 1.99 2.29 1.99l1.09.99.1.89s1.09.89 1.59.79c.5-.1 1.89-.6 2.78-.79.89-.2 2.48.5 2.48.5l3.38 1.39s.7 1.09 1.19 1.39c.5.3 3.18.2 3.18.2l.79-1.19.4-2.19 1.79-.1 1.49 1.89.79 1.09 2.29-.5 2.68-1.49 2.48 1.39 3.18 2.98 5.07-5.07 1.89 2.78h2.29l1.09-2.09 1.49-3.38 2.68-1.99.6-.6.6-2.58 4.57-.5 3.28.99 1.09-2.48.89-2.19 4.87-3.68 2.88-1.49 3.28-.7.89-1.39.37.22-.57-1.61s-4.47-.2-5.07-.2-4.07-1.69-4.37-1.89-3.68-1.79-3.78-2.19c-.1-.4-2.58-2.58-2.58-2.58l-.1-2.98-2.88-2.38-2.38-3.08.15-.14-3.14-1.35s-3.88-.6-4.07-.89ZM277.07 192.28c-.5-.4-2.38-1.99-2.38-1.99s-.99-1.09-1.49-1.69c-.5-.6-1.99-1.59-1.99-1.59l-2.38-2.09-3.38.1-5.17.89s-1.89 1.19-2.68 1.79c-.79.6-1.79.6-1.79.6l-5.86.2-4.17-.5-4.17-.5-4.67-1.89-2.68.99s-2.68 1.79-3.58 2.09c-.89.3-3.68.1-3.68.1s-2.88-.99-3.87-1.39c-.99-.4 0 0-2.19 1.69s-5.37.89-5.37.89l-3.78 1.89-2.58 1.29-2.98-.1-3.18-1.89-1.57-1.57-1.11.63s.75 1.64 1.19 1.94c.45.3.75 1.94.75 1.94l-.6 2.09-.75 1.79-1.49.6s-.6.89-.15 1.04c.45.15 2.09.3 2.09.3l2.09.75 1.79 2.98.45.75-2.38 2.98.6 2.53-.89.45-1.49-.89-1.19-1.34-1.64 1.19-1.64 2.98-1.34 1.49-1.79.75-1.34 2.24-.89 1.34-1.19-2.09-2.24-2.24s-.6-.75-.89 0c-.3.75-1.34 2.38-1.34 2.38l-1.79 3.13-.3 2.24 1.04 1.49-1.19 2.68-1.79-.15-.89 3.43-.6 3.13 1.94 5.81 2.83 2.83 3.87 5.37 3.73 1.04s.45-.89 2.38-1.19c1.94-.3 4.17-.6 4.17-.6l3.13-1.94 2.24-1.79 5.81.15.89 1.49 3.58-.45 1.94-1.94 1.04-2.24 2.98-1.34 3.43-.75 4.77-1.64 3.43-2.98 3.73-1.79 4.17-1.26v-1.47l3.48-5.27.7-2.29s3.28-1.29 3.58-1.39c.3-.1 3.88-2.19 3.88-2.19l.3-2.78 1.59-1.59 2.48-2.48 2.58-1.99 3.97-.6 1.79-.3 3.18-.99 2.88-1.79 1.09-2.38s3.88-2.38 4.37-3.18c.5-.79.79-2.68.79-2.68l1.09-1.89.42-.52c-.65-.29-1.44-.66-1.71-.88Z"/><path class="cls-1" d="m272.5 306.65-3.43.15-1.49.75-3.5 1.04-3.43.15-4.55-1.34-.22-2.31-3.5-3.28-1.49-2.91-2.31.3-.97-1.27 10.36-5.29.75-1.4-3.41-.39-2.58 1.19-3.18-.5s-2.98-.79-3.28-.79-2.29.1-2.29.1l-3.38-1.39v-.59l-8.05.34-2.09.3s-4.77-.45-6.11-.45l-4.17 1.64-7.3-1.04-3.87-.89-2.83 1.49-2.24-.6-3.13 2.98-3.13 3.43-5.07 1.79-3.43-2.24s-2.38 1.94-2.53 2.38c-.15.45-2.24 1.94-2.24 1.94v2.38l-1.94.6-6.41 1.94-6.41.6-5.51-.75v26.71l2.53 1.56 1.09 2.68 1.79 1.59.99 3.18 3.58 2.88 3.78 3.68s2.09 1.39 2.48 1.29c.4-.1 2.68-.89 3.88-1.49 1.19-.6 2.38-2.58 2.38-2.58l-.2-3.78 3.68-1.49 1.29 2.09 2.68.1 3.58 1.29 1.99 3.08s2.48 1.99 2.68 2.29c.2.3.79 2.58.79 2.58s1.79 2.78 1.99 3.08c.2.3 4.07.89 4.07.89l3.14 1.35 7.3-6.52.2-1.89.89-.89.4-.1.79-.2 1.39-1.89 1.89-1.29 3.18-1.09s.1-.99.1-1.29-.2-3.28-.2-3.28-.1-2.19-.1-3.38 1.09-3.28 1.09-3.28l1.39-2.98 1.49-2.98.5-2.38 2.38 1.09 2.88.7 4.47-1.69s2.38-3.38 2.98-3.88c.6-.5 4.07-.3 4.07-.3s3.68.7 4.07.79c.4.1 1.29.1 1.29.1l4.77-1.79 3.88-1.29 3.18-1.69 2.68-1.09 1.49.87.05-.42.52-2.76 2.53-1.12.22-1.49-1.64-1.64ZM102 252.17s.45-2.31.6-2.83c.15-.52.97-2.38 1.49-2.68.52-.3 1.42-1.71 1.42-3.06s-.15-2.98-.15-2.98l3.28-1.86s2.09-.89 2.16-1.64c.07-.75.67-3.8.67-3.8l-3.13.6-3.06.45-2.38-.52-1.21-.03h.01l-1.04 2.09-.35.35-3.18-.45-.5 1.34.3 1.94s-.35 1.09-.45 1.24c-.1.15-.25 1.84-.25 1.84l1.79.55.79 1.64-.3 3.88s-.99 3.28-.99 3.58.99 1.79.99 1.79l.18.57 1.44-1.54 1.86-.45Z"/><path class="cls-1" d="m105.28 234.36 3.06-.45 2.86-.55-.11-3.18s-1.04-.6-1.27-.67c-.22-.07-.82-.78-.89-.97-.07-.19-1.16-.97-1.16-.97l-6.63-.3-.45-1.04-.34-1.9-.22-.6-1.49.89-.48 1.68-.45.82-.63.3s-.71-.3-1.3-.82c-.6-.52-1.01-1.3-1.04-1.83-.04-.52-.07-1.19-.04-1.64.04-.45.41-.89.41-.89l1.64-.34.52-1.34s.19-1.27.15-1.9c-.04-.63-.11-1.3-.11-1.3l.45-.67.89-.45.82.6 1.49.67.75-.04.86-1.56-.11-1.57-.89-1.04-1.16-.45-2.01.6-.82.78s-.67.07-1.19.11c-.52.04.04-.26.04-.26l-.04-1.38.26-2.12-1.27-.07-1.9-.15s-1.53-.3-1.64-.37c-.11-.07-.45-1.34-.45-1.34v-1.19l-.78-.26-.6.32c-.09.86-.22 1.96-.22 1.96l-.7 1.59-2.29 1.09-1.09 1.59.6 3.28 1.79 2.58 1.39 2.58.55 3.48c.89.85 1.69 1.63 1.74 1.74.1.25 1.19 1.54 1.19 1.54l1.99.35.1 1.24-.84 1.19.79.84 1.99-.35.7 1.24 1.79-.1 2.22.44 1.21.03 2.38.52ZM198.08 169.33s.2 1.24.2 1.39-.3 1.69-.3 1.69l.25.99.55.79-.45 1.29-.5.65-1.39.99-.2.94.79.99-.25.6-2.98 1.59h-1.04l-.3-1.09-.25-.99-2.58-1.64-1.39.3-.15.79.79.89 1.74 1.54.2.94-.75 2.29-.15 2.88-5.32 5.66-.15 1.04-2.68 1.79-2.43.25-1.19-.84-1.79.35-.84.84-.89 2.33-2.29.99-1.09.45-.99 2.53-1.54-1.19-.1-1.59 2.04-2.43.84-1.39-.4-1.64-2.43-2.53-2.09-.65-.25 1.54.3 1.24-1.59.99-.4 2.09.3 1.04.5 1.34-1.54 3.73-1.29-.5-.94-1.14h-.55l-2.43.65-.94 1.04-2.04-.15-2.19-.55-1.19-.4-.99-1.49-2.24-.45-1.09-1.59s-.89-.4-1.04-.2c-.15.2-1.64.4-1.64.4l-.15-1.09s.3-.79.3-.99-1.19-1.69-1.19-1.69l.2-1.59-.6-.5-1.79.55-1.24-.3-1.24-1.74-1.79-1.99-.99-2.09-1.29.99-1.09 2.58-.2 2.14 1.09 1.29.1 1.34-.75 1.09.1 1.29-1.09.94-.25 1.34.84 1.79 2.33-.1.65-.35 1.99.55 1.84.1 1.09-2.04 1.19 1.04.79 1.59.2 1.54-.79 1.14s1.04 1.04 1.04 1.19-.2 3.28-.2 3.28l2.24.45 2.88.84.94 1.59 2.09 1.14 1.74-1.34.7-2.14.3-1.09 4.32-2.38v1.74l-.55 1.39 2.53.6 2.33.6.75 2.33.7 1.69 1.89 1.69.3 2.04.2 2.14.79.94-.89 1.59-1.84.75.1 2.29 1.29 1.24 3.87.5.5 1.74.94 2.14 2.29.84 1.04 1.14 2.04 1.04 3.41-1.1-.77-2.32.6-3.13.89-3.43 1.79.15 1.19-2.68-1.04-1.49.3-2.24 1.79-3.13s1.04-1.64 1.34-2.38c.3-.75.89 0 .89 0l2.24 2.24 1.19 2.09.89-1.34 1.34-2.24 1.79-.75 1.34-1.49 1.64-2.98 1.64-1.19 1.19 1.34 1.49.89.89-.45-.6-2.53 2.38-2.98-.45-.75-1.79-2.98-2.09-.75s-1.64-.15-2.09-.3c-.45-.15.15-1.04.15-1.04l1.49-.6.75-1.79.6-2.09s-.3-1.64-.75-1.94c-.45-.3-1.19-1.94-1.19-1.94l1.11-.63-1.41-1.41s-.7-.99-.7-2.19 1.79-1.09 1.79-1.09 2.19-1.19 2.29-1.79c.1-.6-.1-1.69-.1-1.69l.89-.4h3.08s.7-.99.99-1.59c.3-.6.1-2.38.1-2.38l2.38-3.28 2.19-5.66.89-3.28v-.81l-2.26.19-1.08-1.69-2.95-.4-.37.89.15 2.24-1.86-.37-1.27-.67s-.52 1.56-.52 1.94-.07.82-.3 1.42c-.22.6-1.71.37-2.09.52-.37.15-1.86-.37-1.86-.37l-.97-.82-.58.17-.24 1.2.4 1.04Z"/><path class="cls-1" d="m236.43 230.19-3.73 1.79-3.43 2.98-4.77 1.64-3.43.75-2.98 1.34-1.04 2.24-1.94 1.94-3.58.45-.89-1.49-5.81-.15-2.24 1.79-3.13 1.94s-2.24.3-4.17.6c-1.94.3-2.38 1.19-2.38 1.19l-3.73-1.04-3.87-5.37-2.83-2.83-1.16-3.49-.26.08-2.16 14.39-1.29-1.19s-3.28-2.09-3.68-2.09-3.78.7-3.78.7l-3.48-.6-1.19-2.88-1.99-3.08-2.19-.6-2.68 1.79.6 4.37.89 2.98.3 2.29-4.67 1.39-6.16 2.68-3.08 1.29-2.09 4.77-2.68 1.89-1.69 2.38-2.26.27-.22 1.42-1.19 2.09s-1.39 3.78-1.69 4.47c-.3.7-1.29 4.57-1.29 4.57s-.99 1.89-1.89 2.38c-.89.5-1.79 1.19-2.19 1.39-.4.2-3.48 3.18-3.48 3.18l-.41 1.27 2.4.91 2.78.79 1.79 1.79 2.68 1.69v2.58l-.5 2.29-1.59 1.29-.6 3.08.6 1.89-.1 1.79.2 2.98 1.39 2.29 2.58 10.04 6.26 2.78 2.38.2s1.19.4 1.49.79c.3.4 1.99 1.99 1.99 1.99l2.19 1.49 1.49 1.49 3.48.4 5.86-2.38.89.3.99 4.87.05.03v-26.71l5.51.75 6.41-.6 6.41-1.94 1.94-.6v-2.38s2.09-1.49 2.24-1.94c.15-.45 2.53-2.38 2.53-2.38l3.43 2.24 5.07-1.79 3.13-3.43 3.13-2.98 2.24.6 2.83-1.49 3.87.89 7.3 1.04 4.17-1.64c1.34 0 6.11.45 6.11.45l2.09-.3 8.05-.34v-59.94l-4.17 1.26ZM131.61 131.57l2.88 1.19 2.09 3.58 1.09 3.38.6 2.38 1.39.89.1 1.99-2.78.89-.89 1.19.4 2.48.1 4.57 1.49 1.29s.2.1 1.09-.1c.89-.2 2.38-2.68 2.38-2.68l.6-1.79 1.49 2.98s-1.49.89-1.59 1.19-.5 2.58-.5 2.58l.5 4.77 1.19 1.69 2.78.3s3.18-2.19 3.38-2.48c.2-.3 3.68-3.48 3.68-3.48l1.69-1.29.6-4.27-.3-3.68 1.99-1.49.2-3.88.79-2.48-1.39-3.58-.4-3.58 2.09-2.78 1.59-1.09.5-4.17v-4.87l-.82-3.13-2.01-2.98s.45-1.94.45-2.53-1.64-3.43-1.64-3.43l.22-2.31-.36-2.71-1.35.4-5.96-1.64-2.53-2.83-4.17-2.83-3.73-.45-1.19-.15-4.32-4.02-2.68-1.94-.75-.89s-.15-1.94 0-2.38c.15-.45.3-1.64.3-1.64l-2.53-3.13-.45-2.09v-2.83l1.04-2.24.6-2.24-4.77-3.13.6-2.09v-3.13s-3.18-2.29-3.97-2.48c-.79-.2-1.79-1.39-1.79-1.39l-2.38-1.59-.7-2.78-.4-3.58-.85-2.74-1.46.63-3.5 4.32-2.09 1.27.15 7.68-1.56 5.96 1.16-.22.6 1.09.79 3.97.99 1.19 2.19.5.5.7.4 3.28.1 2.38-.7 1.29h3.08l2.09.5 2.29 2.19 3.48.99 1.29 1.69.89 1.69.4.79-.1 5.07 1.19 1.49.4 1.69 1.59 2.38 2.38 1.19 3.18 1.69 1.49 2.29.2 2.58-.3 1.39-.89.89.4 1.39 1.09 3.28v1.39c0 .3-.1 1.99-.1 1.99s-.2.99-.5 1.19c-.3.2-.7 1.09-.7 1.09l-1.69 1.69-3.28 1.69s-.33.08-.57-.25l-.69 2.48 1.36.55 1.79 2.19Z"/><path class="cls-1" d="m160.46 133.42.82.93.11.93 1.15.78v1.15l-.41 1.08-1.27.56-.82 1.42v.93c0 .15.41.86.41.86l3.02-.04 1.04-.22 2.09 1.71 1.79.52 1.42-.37 1.42-1.79 1.27-1.56.22-2.24 1.42-.82.07-1.86-.52-1.42-1.42-1.19-1.04-1.12-.82-1.94s.35-1.44.65-1.84c.3-.4.89-2.19.89-2.19l.6-2.29-.5-2.88s-.7-.3-1.09-.3-.1 1.69-.1 1.69-.6 1.79-.79 2.09c-.2.3-.79.1-.79.1l-1.09-.89-.3-.99.79-1.29v-.99l-.99-.99s-1.09-.89-1.19-1.19c-.1-.3-.4-2.38-.4-2.38l1.79-1.79.89-.89 1.29-1.59-.2-2.88-.99-1.59 1.29-2.68-.3-2.48.1-1.59 2.68-.6.07-1.22 6.38-10.51h1.19l.79-4.07 3.38-4.77s-.89-1.69-.89-2.29 1.49-4.07 1.49-4.07l1.76-10.24-1.51-.71-4.77-.37-2.46.3-.75-.45-.82-1.49.75-2.09s1.04-1.49 1.71-2.16c.67-.67.6-1.42.6-1.42l-2.24-.97-1.04-1.19-1.56-.07-1.04-.07.67-2.98v-.97l-4.25.37-6.71.89 1.49 1.71-.6 2.83-.3 3.28-2.38 3.13-5.51 1.94-5.81 5.66-1.34 2.83 1.79 4.32 5.37 4.32 3.28 6.71-3.58.89h-4.62l-1.04.6.15 2.24 1.49 5.22 2.53 3.13 3.87 2.53.75 3.28-2.67.79.36 2.71-.22 2.31s1.64 2.83 1.64 3.43-.45 2.53-.45 2.53l2.01 2.98.82 3.13v4.87l-.5 4.17-.64.44.21 1.73.97.97Z"/><path class="cls-1" d="m198.23 173.4-.25-.99s.3-1.54.3-1.69-.2-1.39-.2-1.39l-.4-1.04.24-1.2-.99.28s-1.12-.52-1.12-.75.22-.6.22-.6l.52-1.79-2.83-.07s-2.46.07-2.68.07h-.52l-1.49-.22-2.38-1.71.75-1.19.82-2.46-1.12-1.42.45-1.71s-.22-1.64-.22-2.16-1.42-.67-1.42-.67l-.6-2.31s-1.27-.82-1.57-1.19c-.3-.37-.6-2.01-.6-2.01l-.82-1.19-1.71-.82h-4.55l-1.04 1.71-.89 1.12-1.42.37-2.24-.3-2.61-1.34-2.31-1.64-1.86-2.31-.22-.75-3.02.04s-.41-.71-.41-.86v-.93l.82-1.42 1.27-.56.41-1.08v-1.15l-1.15-.78-.11-.93-.82-.93-.97-.97-.21-1.73-.94.65-2.09 2.78.4 3.58 1.39 3.58-.79 2.48-.2 3.88-1.99 1.49.3 3.68-.6 4.27-.5.39.8 1.4-.1 2.68 1.29 2.38v1.19s-1.39 1.09-1.89 1.29c-.5.2-2.29.6-2.29.6l-.5 1.59-2.19 1.99-1.09 1.79-1.09 1.39-3.58.5-2.38 1.09-.5 1.19v2.58s-.2 3.08 0 3.38c.2.3-.1 1.79-.1 1.79l-2.29.81-1.4 2.47.85 1.79 1.79 1.99 1.24 1.74 1.24.3 1.79-.55.6.5-.2 1.59s1.19 1.49 1.19 1.69-.3.99-.3.99l.15 1.09s1.49-.2 1.64-.4c.15-.2 1.04.2 1.04.2l1.09 1.59 2.24.45.99 1.49 1.19.4 2.19.55 2.04.15.94-1.04 2.43-.65h.55l.94 1.14 1.29.5 1.54-3.73-.5-1.34-.3-1.04.4-2.09 1.59-.99-.3-1.24.25-1.54 2.09.65 2.43 2.53.4 1.64-.84 1.39-2.04 2.43.1 1.59 1.54 1.19.99-2.53 1.09-.45 2.29-.99.89-2.33.84-.84 1.79-.35 1.19.84 2.43-.25 2.68-1.79.15-1.04 5.32-5.66.15-2.88.75-2.29-.2-.94-1.74-1.54-.79-.89.15-.79 1.39-.3 2.58 1.64.25.99.3 1.09h1.04l2.98-1.59.25-.6-.79-.99.2-.94 1.39-.99.5-.65.45-1.29-.55-.79Z"/><path class="cls-1" d="m98.68 209.17 1.45-.22 3.02.75s1.15-.15 1.27-.22.34-1.12.34-1.12l-.3-1.83-.19-3.54 1.49-.07 1.3 1.53 1.08.86s.45-.48.67-.75c.22-.26 1.23-.37 1.23-.37l.93.34 1.04 2.46.93 1.45.45 1.64.41 1.23 1.94-.34 1.49-1.71.93-1.49 1.08-.15.34-2.16 1.12-.89 1.71-.3s1.27-1.57 1.56-1.68c.3-.11 1.19-.41 1.49-.52.3-.11 1.71-.15 1.71-.15l.86 1.3 1.08 1.12 1.68-.52.89-2.01 2.09-.75-.34-.71.25-1.34 1.09-.94-.1-1.29.75-1.09-.1-1.34-1.09-1.29.2-2.14 1.09-2.58 1.29-.99.14.3 1.4-2.47 2.29-.81s.3-1.49.1-1.79c-.2-.3 0-3.38 0-3.38v-2.58l.5-1.19 2.38-1.09 3.58-.5 1.09-1.39 1.09-1.79 2.19-1.99.5-1.59s1.79-.4 2.29-.6c.5-.2 1.89-1.29 1.89-1.29V164l-1.29-2.38.1-2.68-.8-1.4-1.19.91s-3.48 3.18-3.68 3.48c-.2.3-3.38 2.48-3.38 2.48l-2.78-.3-1.19-1.69-.5-4.77s.4-2.29.5-2.58 1.59-1.19 1.59-1.19l-1.49-2.98-.6 1.79s-1.49 2.48-2.38 2.68c-.89.2-1.09.1-1.09.1l-1.49-1.29-.1-4.57-.4-2.48.89-1.19 2.78-.89-.1-1.99-1.39-.89-.6-2.38-1.09-3.38-2.09-3.58-2.88-1.19-1.79-2.19-1.36-.55-.08.31-1.04 1.34-3.13 2.38-4.92-.6-2.68-.3-2.38 2.83-4.47 3.58-1.49 4.47-.3 3.73s-2.83 2.83-4.47 3.13c-1.64.3-2.83 2.24-2.83 2.24s-5.22 1.64-6.11 1.94c-.89.3-5.66.15-6.56.15s-6.41-1.64-6.41-1.64-1.79-1.79-2.83-3.88-1.34-4.92-1.34-4.92l1.49-2.98.75-5.51 1.64-2.53.15-3.28 1.94-5.22 2.24-2.68 1.79-1.94-1.19-3.73-3.43-.75-2.34-6.73-2.35.77-4.4 5.37-4.99 1.12s-2.46 0-2.68.07c-.22.07-1.56 2.09-1.56 2.09l.3 1.34 2.46.22 2.38 4.02-.37 3.43 1.49 4.99-.07 3.2-.89 2.53-3.2.3-1.79-2.09.3-1.49 1.12-.45.45-2.46-1.64-.6s-.97.37-.97.07.37-2.61.37-2.61l-.12-.1-.6 3.58V133l-2.38 3.28-.1 2.19-1.59 1.09-1.29 1.09 1.29 1.09 2.29 3.38 3.48 1.39 3.87 3.97 1.19 2.68 1.99 2.38 1.99-.5 1.89 1.39.4 2.19 1.09 3.97-1.29 1.79s.4.89 0 1.09c-.4.2-1.59 0-1.59 0l-1.59-.99-2.38.1-3.18.4v.5l1.09 1.49v1.29l-1.19.79-3.97 1.09-.89.89.7 1.29 1.09 1.59 2.09 3.28.5 2.78 1.79 1.59 1.09 2.48.79 5.76 1.29.89h3.58l1.69-.79 3.68-.3 3.38-.5.6.4.5 1.09-.1 1.69.7 1.69 2.38 1.19.5.89-.1 4.67-.5 1.89 1.39 2.09s.3 1.39.3 1.89c0 .16-.03.52-.07.92l.6-.32.78.26v1.19s.34 1.27.45 1.34c.11.07 1.64.37 1.64.37l1.9.15 1.27.07-.04.34 1.16-.68.93-1.08Z"/><path class="cls-1" d="m112.36 227.43.52-2.53-.07-2.24.6-1.42 2.53-.75h2.31l1.64-1.49.67-2.09 1.79-.89 4.84-.22 3.95-.15 2.61-3.95-.3-2.98.07-2.31-1.01-4.91-.81.29-.89 2.01-1.68.52-1.08-1.12-.86-1.3s-1.42.04-1.71.15c-.3.11-1.19.41-1.49.52-.3.11-1.56 1.68-1.56 1.68l-1.71.3-1.12.89-.34 2.16-1.08.15-.93 1.49-1.49 1.71-1.94.34-.41-1.23-.45-1.64-.93-1.45-1.04-2.46-.93-.34s-1.01.11-1.23.37c-.22.26-.67.75-.67.75l-1.08-.86-1.3-1.53-1.49.07.19 3.54.3 1.83s-.22 1.04-.34 1.12-1.27.22-1.27.22l-3.02-.75-1.45.22-.93 1.08-1.16.68-.22 1.78.04 1.38s-.56.3-.04.26c.52-.04 1.19-.11 1.19-.11l.82-.78 2.01-.6 1.16.45.89 1.04.11 1.57-.86 1.56-.75.04-1.49-.67-.82-.6-.89.45-.45.67s.07.67.11 1.3c.04.63-.15 1.9-.15 1.9l-.52 1.34-1.64.34s-.37.45-.41.89c-.04.45 0 1.12.04 1.64.04.52.45 1.3 1.04 1.83.6.52 1.3.82 1.3.82l.63-.3.45-.82.48-1.68 1.49-.89.22.6.34 1.9.45 1.04 6.63.3s1.08.78 1.16.97c.07.19.67.89.89.97.22.07 1.27.67 1.27.67v.27l1.27-.64v-2.38Z"/><path class="cls-1" d="m137.97 252.89.05-2.58-.99-1.69-1.34-1.64-1.49-.2-.65 1.24-1.29 1.19h-.94l-.5-1.29-2.78-.2-1.39-1.89.79-4.27.89-3.58.1-1.99-.7-1.39v-1.89l1.49-.99 1.09-2.09.6-1.89-.6-4.37-.1-3.48-.6-1.19-.22-2.99-2.22.08-4.84.22-1.79.89-.67 2.09-1.64 1.49h-2.31l-2.53.75-.6 1.42.07 2.24-.52 2.53v2.38l-1.26.64.1 2.91.27-.05s-.6 3.06-.67 3.8c-.07.75-2.16 1.64-2.16 1.64l-3.28 1.86s.15 1.64.15 2.98-.89 2.76-1.42 3.06c-.52.3-1.34 2.16-1.49 2.68-.15.52-.6 2.83-.6 2.83l-1.86.45-1.44 1.54.32 1.02-2.68 4.47-.7 3.68-3.18 3.18c-.3.3-.89 2.68-.89 2.68l-.89 1.69s-.79 2.29-.79 2.78.4 1.99.4 2.48.1 2.09.1 2.09l-1.02.32.42 2.17-.4 1.49.93 2.36 1.7 1.07 2.91.89 3.43-1.34 2.83-1.64 4.17-4.1.15-1.79 1.19-.82 1.27-2.53.97-1.04 1.12.37 2.09-.45 1.12 1.27.89.6 1.49-.89s.3-.52.82-1.49 2.83.07 2.83.07 1.27-.15 1.56-.15 1.42.97 1.42.97l-1.12 1.19s-.67 1.19-.67 1.57.45.89.45.89l3.2.37 3.2-2.76 2.01-2.01s.22-.67.22-.97-.07-.52-.07-.52l.15-1.04 1.04-1.42-.37-.75.22-1.19 2.16-.52 2.19-2.68.99-1.89.57-.28-.57-6.62 2.09-2.04ZM143.38 258.68s.45-1.27.52-1.49c.07-.22 1.29-1.56 1.29-1.56l1.64-.92.45-.55.57-1.29 2.06-1.56s-.07-.67-.12-.84c-.05-.17-.72-.87-.72-.87l.02-2.09.27-.97.82-.92-.25-1.64.62-3.53 1.12-.92.65-.84.42-.75.12-1.66-.42-1.74.1-2.26-.57-1.84c-.1-.32-.6-.22-1.07-.22s-.99.2-.99.2l-1.09 1.54-.6 1.14s-.82.82-.92.84c-.1.02-1.39 1.81-1.39 1.81l-.67 1.27 1.04.84.65 1.19v1.61l-.47 1.39-.7 1.49.47.97-.4 2.63.37.75.1.7-.57.92-.12.99-.37.27-.37.45-.12.89-.15.77-.75.05-.62-.32-.89-.45-.52.1-.84.2s-.32.92-.35 1.12c-.02.2.5 1.64.5 1.64l.1 1.86-.55 1.07s.1.89.1 1.29.17 1.17.17 1.17l-.84.79-1.12.7-1.06 2.28-.14.89 2.26-.27 1.69-2.38 1.44-1.02-.05-1.59.25-1.34Z"/><path class="cls-1" d="m177.91 235.55-2.04-1.04-1.04-1.14-2.29-.84-.94-2.14-.5-1.74-3.87-.5-1.29-1.24-.1-2.29 1.84-.75.89-1.59-.79-.94-.2-2.14-.3-2.04-1.89-1.69-.7-1.69-.75-2.33-2.33-.6-2.53-.6.55-1.39v-1.74l-4.32 2.38-.3 1.09-.7 2.14-1.74 1.34-2.09-1.14-.94-1.59-2.88-.84-2.24-.45s.2-3.13.2-3.28-1.04-1.19-1.04-1.19l.79-1.14-.2-1.54-.79-1.59-1.19-1.04-1.09 2.04-1.84-.1-1.99-.55-.65.35-2.33.1-.51-1.08-1.27.46 1.01 4.91-.07 2.31.3 2.98-2.61 3.95-1.73.07.22 2.99.6 1.19.1 3.48.6 4.37-.6 1.89-1.09 2.09-1.49.99v1.89l.7 1.39-.1 1.99-.89 3.58-.79 4.27 1.39 1.89 2.78.2.5 1.29h.94l1.29-1.19.65-1.24 1.49.2 1.34 1.64.99 1.69-.05 2.58-2.09 2.04.57 6.62.63-.31 1.19.99-.34 2.16 1.06-2.28 1.12-.7.84-.79s-.17-.77-.17-1.17-.1-1.29-.1-1.29l.55-1.07-.1-1.86s-.52-1.44-.5-1.64c.02-.2.35-1.12.35-1.12l.84-.2.52-.1.89.45.62.32.75-.05.15-.77.12-.89.37-.45.37-.27.12-.99.57-.92-.1-.7-.37-.75.4-2.63-.47-.97.7-1.49.47-1.39v-1.61l-.65-1.19-1.04-.84.67-1.27s1.29-1.79 1.39-1.81c.1-.02.92-.84.92-.84l.6-1.14 1.09-1.54s.52-.2.99-.2.97-.1 1.07.22l.57 1.84-.1 2.26.42 1.74-.12 1.66-.42.75-.65.84-1.12.92-.62 3.53.25 1.64-.82.92-.27.97-.02 2.09s.67.7.72.87c.05.17.12.84.12.84l-2.06 1.56-.57 1.29-.45.55-1.64.92s-1.22 1.34-1.29 1.56c-.07.22-.52 1.49-.52 1.49l-.25 1.34.05 1.59 1.24-.87 2.09-4.77 3.08-1.29 6.16-2.68 4.67-1.39-.3-2.29-.89-2.98-.6-4.37 2.68-1.79 2.19.6 1.99 3.08 1.19 2.88 3.48.6s3.38-.7 3.78-.7 3.68 2.09 3.68 2.09l1.29 1.19 2.16-14.39-3.15 1.02ZM42.38 25.35l-1.17-.36-.6-.13-.43-1.24-.64-1.41-.98.13-.6.34-.77.81-.81.98-.85.72-.98.26-1.32 2.26-.34 1.49.04 2.3s-.94.6-1.07.68c-.13.09-1.32.6-1.32.6l-.43 1.24-.04 2.05.64.85.17.55-.21 1.15-1.24 1.83-.13 1.41-.43.9.77.81 1.11.34s.13.85.17 1.36c.04.51.17 1.19.17 1.19l-.72 2.77.26.17.04.68-1.07 2.94-.51 2.52.09 1.41 1.66 1.92.51-.13s.6-.38.64-.51c.04-.13.38-.72.51-1.24.13-.51.43-1.96.68-2.22.26-.26 1.24-1.62 1.24-1.62l.72-2.9.94-3.92.47-.81-.13-.85.64-1.02.64-1.15.38-1.19-.17-1.62.6-.94.51-.47-.04-3.3c0-.06.13-1.58.13-1.58l-.19-.62-.79-.23-.19-.51.58-.13s.3.13.6.11c.3-.02.85-.13.85-.13l.32-.19s.02-.3-.02-.36-.75-.51-.75-.51l-.7-.34-.3-.21-.6-.47.17-.38.38.02 1 .87s.41.34.53.23c.13-.11.23-.38.23-.38l-.45-.64-.47-.38-.38-.51-.17-.45.85-.36.83-.17.28-.17.75-.6 1.22-.21.36.15s.02.3.21.21.58-.38.6-.45c.02-.06-.04-.6-.15-.68-.11-.09-1.34-.55-1.34-.55ZM66.98 30.46l-.41.19-.32.23-.72-.3.06-.94-.11-.64-.51-.83.38-.79.43-.34.34-.75-.17-.64-1.13-.26-.72-.17-.19-.58-.13-.75-.81-.51-.17.15-.17.32-.11.41-.83.36-.32.43.23 1.41.02.79-.47.58-1.02.19-.87-.06-.66-.41-.66.06-.6.51-.87.49-.34.85s-.53.77-.64.85c-.11.09-.41.77-.41.77l-.32.6v2.92l-.15.58-.34.55-.47.6.06.51.55.49.43.64s.17.3.17.72-.09 1.15-.09 1.15l-.04.43s-.13.75-.09.9c.04.15.68 1.04.68 1.04l.53.64.96-.3.75-.45 1.09.02.92-.68 1.15-1.75.96-1.09.83.13 1.6-.28.47-.98.34-1.19.04-1.66.49-1.96 1.53-.58.38-.7.11-.75-.66-.19ZM59.69 24.72l.85-.13.82-.27.51-.48.06-.6-.36-.59-.34-.59s.2-.47.21-.52c.01-.05.01-.39.01-.39l-.31-.38-1.06.25-1.62.69-.11.77.13 1s1.17 1.2 1.19 1.24ZM163.26 38.97l-1.34 7.75 1.49 2.01 6.71-.89 4.25-.37v.97l-.67 2.98 1.04.07 1.56.07 1.04 1.19 2.24.97s.07.75-.6 1.42c-.67.67-1.71 2.16-1.71 2.16l-.75 2.09.82 1.49.75.45 2.46-.3 4.77.37 1.51.71.53-3.07 4.37-7.35s.89-3.28 1.19-3.58c.3-.3 3.68-3.18 3.68-3.18s.99-4.77 1.29-4.77 7.55-1.09 7.55-1.09l7.65-15.8 18.48-5.17 3.28-3.38 3.28-.89s.1-2.09-.1-2.68c-.2-.6-2.58-4.87-2.58-4.87l-.79-2.58-6.86-1.99-4.37-1.19-3.08 1.59-2.19.89h-1.59l-1.39.6-.1 2.29 1.19 1.39-1.39 1.69-1.79.1-.2-1.99.1-1.19-2.68.6h-2.98v2.78l-.3 5.56-2.58 3.08-9.94 2.68-6.06 1.49-4.57 4.67s-5.56 4.17-6.16 4.77c-.6.6-5.86 3.28-5.86 3.28l-6.16 1.09-.56-.02-.09.41-1.79 2.68ZM115.51 56.66l.7 2.78 2.38 1.59s.99 1.19 1.79 1.39c.79.2 3.97 2.48 3.97 2.48l1.29 1.19 2.38-4.57 1.19-2.98 1.39-.89.7-5.96-.4-3.97-.1-2.38-3.42-5.1-.21-.07-3.28 3.28-3.95 4.47-5.69 2.43.85 2.74.4 3.58Z"/><path class="cls-1" d="m123.76 70.12 4.77 3.13-.6 2.24-1.04 2.24v2.83l.45 2.09 2.53 3.13s-.15 1.19-.3 1.64c-.15.45 0 2.38 0 2.38l.75.89 2.68 1.94 4.32 4.02 1.19.15 3.73.45 4.17 2.83 2.53 2.83 5.96 1.64 4.02-1.19-.75-3.28-3.87-2.53-2.53-3.13-1.49-5.22-.15-2.24 1.04-.6h4.62l3.58-.89-3.28-6.71-5.37-4.32-1.79-4.32 1.34-2.83 5.81-5.66 5.51-1.94 2.38-3.13.3-3.28.6-2.83-1.49-1.71-1.49-2.01 1.34-7.75 1.79-2.68.09-.41-6.59-.18-7.85-2.88-3.28 1.29-2.29 3.68.8 5.07-3.75 6.86-2.16 1.56-1.27-1.86.15-2.46 2.31-1.27.52-1.04-3.06-.6-11.27-3.8 3.42 5.1.1 2.38.4 3.97-.7 5.96-1.39.89-1.19 2.98-2.38 4.57-1.29-1.19v3.13l-.6 2.09ZM169.96 99.88l-.1 1.59.3 2.48-1.29 2.68.99 1.59.2 2.88-1.29 1.59-.89.89-1.79 1.79s.3 2.09.4 2.38c.1.3 1.19 1.19 1.19 1.19l.99.99v.99l-.79 1.29.3.99 1.09.89s.6.2.79-.1c.2-.3.79-2.09.79-2.09s-.3-1.69.1-1.69 1.09.3 1.09.3l.5 2.88-.6 2.29s-.6 1.79-.89 2.19c-.3.4-.65 1.84-.65 1.84l.82 1.94 1.04 1.12 1.42 1.19.52 1.42-.07 1.86-1.42.82-.22 2.24-1.27 1.56-1.42 1.79-1.42.37-1.79-.52-2.09-1.71-1.04.22.22.75 1.86 2.31 2.31 1.64 2.61 1.34 2.24.3 1.42-.37.89-1.12 1.04-1.71h4.55l1.71.82.82 1.19s.3 1.64.6 2.01c.3.37 1.57 1.19 1.57 1.19l.6 2.31s1.42.15 1.42.67.22 2.16.22 2.16l-.45 1.71 1.12 1.42-.82 2.46-.75 1.19 2.38 1.71 1.49.22h.52c.22 0 2.68-.07 2.68-.07l2.83.07-.52 1.79s-.22.37-.22.6 1.12.75 1.12.75l1.57-.45.97.82s1.49.52 1.86.37c.37-.15 1.86.07 2.09-.52.22-.6.3-1.04.3-1.42s.52-1.94.52-1.94l1.27.67 1.86.37-.15-2.24.37-.89 2.95.4c-1.26-1.98-3.17-5.01-3.17-5.17 0-.22-.6-3.35-.6-3.35l-2.53-1.34h-5.07l-.45-5.29-.89-6.71 1.42-3.87 1.86-1.56s.22.3.45-.07c.22-.37-2.31-9.31-2.31-9.31l.3-2.53-6.48-6.04-4.4-16.32-3.06.52-1.34-1.27-.15-2.98-1.19-1.42-3.58.82-1.27 2.61-3.95.22-1.42-1.42-.07 1.22-2.68.6ZM212.98 168.14l-2.19 5.66-2.38 3.28s.2 1.79-.1 2.38c-.3.6-.99 1.59-.99 1.59h-3.08l-.89.4s.2 1.09.1 1.69c-.1.6-2.29 1.79-2.29 1.79s-1.79-.1-1.79 1.09.7 2.19.7 2.19l2.98 2.98 3.18 1.89 2.98.1 2.58-1.29 3.78-1.89s3.18.79 5.37-.89c2.19-1.69 1.19-2.09 2.19-1.69.99.4 3.87 1.39 3.87 1.39s2.78.2 3.68-.1c.89-.3 3.58-2.09 3.58-2.09l2.68-.99 4.67 1.89 4.17.5 4.17.5 5.86-.2s.99 0 1.79-.6c.79-.6 2.68-1.79 2.68-1.79l5.17-.89 3.38-.1 2.38 2.09s1.49.99 1.99 1.59c.5.6 1.49 1.69 1.49 1.69s1.89 1.59 2.38 1.99c.5.4 2.68 1.29 2.68 1.29l4.27.2 3.38-.7 2.98-1.79 1.05-1.22-.23-.42h-.67l-20.87-24.52-6.48 1.27-4.25-2.09-4.17-2.24-3.35-1.12-6.11 1.12-3.35 2.31-1.94.89-2.53-1.79-6.71.22-5.44.6-1.94-1.57-3.5.45-2.16.52-3.85.33v.81l-.89 3.28Z"/><path class="cls-1" d="M277.27 195.56s-.3 1.89-.79 2.68c-.5.79-4.37 3.18-4.37 3.18l-1.09 2.38-2.88 1.79-3.18.99-1.79.3-3.97.6-2.58 1.99-2.48 2.48-1.59 1.59-.3 2.78s-3.58 2.09-3.88 2.19c-.3.1-3.58 1.39-3.58 1.39l-.7 2.29-3.48 5.27v62l3.38 1.39s1.99-.1 2.29-.1 3.28.79 3.28.79l3.18.5 2.58-1.19 3.48.4 2.58-1.19s1.69-1.79 2.48-2.09c.79-.3 2.19-1.19 2.19-1.19l-.2-3.18-.7-2.38 3.38-1.59 2.48-3.08-.5-1.79.3-1.89 4.07-.4 1.29.2 2.19-1.49.6-1.09 2.19-1.99s.6.4 1.19.4 3.68-.1 3.68-.1.1 1.09.4-.99l.3-2.09s-.7-.5.4-.79c1.09-.3 2.98-.79 2.98-.79l3.18.5 2.38-.7 3.18 1.89 2.88.89s.6-.3 1.99-.89c1.39-.6 3.08-1.19 3.08-1.19l2.09-1.09s1.49-.7 3.38-.2c1.89.5 3.58 0 3.58 0l1.89-.89s.7-1.59 1.39-1.89c.7-.3 3.08-1.29 3.08-1.29l1.49-1.49s.99-.6 1.49-1.09c.5-.5 4.77-1.29 5.07-1.29s2.78.4 3.58.7c.79.3 1.79.5 1.79.5s1.29.5 2.19.99c.89.5.2 1.09 1.39.6 1.19-.5 1.49-.5 1.99-1.39.5-.89.3-.89 1.19-1.49.19-.13.5-.33.85-.55l-.73-3.35-2.61-2.09.52-4.4-1.71-4.99s-1.49-1.86-1.49-2.16 1.27-4.47 1.27-4.47l-.37-5.44s.52-3.65.82-4.1c.3-.45.37-2.83.37-2.83l-1.12-4.32 1.34-2.16 5.66-4.99-.07-5.29.89-5.44 3.43-2.31.82-4.25-1.19-1.94.3-3.06s-5.37-2.31-6.04-2.46c-.67-.15-7.23-.22-7.23-.22l-3.35 3.28-3.8-1.12-2.46.97-2.68 1.12-4.32-.75-5.89 2.31-1.42.37-2.98-2.01s-4.47-.82-5.14-.82-3.06.82-3.06.82l-3.13-.22-4.47 3.5-1.27-.22-.67-1.22-1.05 1.22-2.98 1.79-3.38.7-4.27-.2s-.44-.18-.97-.42l-.42.52-1.09 1.89ZM288.6 411.47l-2.09-.99-1.69 1.79h-.6l-1.09-2.38s-.99-1.49-1.59-2.09c-.6-.6-1.29-.2-1.79-.2s-.79 1.19-.79 1.19l-1.09.6-1.39-1.39v-1.79l-.89-2.19h-1.49l-1.09.3-1.49.2V407c0 .6-.89 1.79-.89 1.79l-1.29-.1s-2.19-1.29-2.68-1.59c-.5-.3-1.49-1.19-1.49-2.19s.89 0 .89 0l.4-3.18-1.29-2.58 1.19-2.09s-.1-.79-.2-2.29c-.1-1.49-.3-.3-.4-1.29-.1-.99.3-.7.3-.7l2.29-1.29s.89-1.19.89-1.49-1.99-.6-1.99-.6l-2.88 1.19-2.09.3-1.99-.89-.2-1.09c-.2-1.09-1.29-.2-1.29-.2l-1.79-1.29-1.19-1.49s-2.98-.79-3.97-.99c-.99-.2-.79.79-.79.79l-1.19 1.19h-1.09l-1.29-.79-.3-2.38-1.29-1.79.1-1.19-.1-1.59-.79-1.59-2.68-1.69-.5-.6-2.09-1.19-1.19-.2-1.19.89-3.87-2.29-.89 1.39-3.28.7-2.88 1.49-4.87 3.68-.89 2.19-1.09 2.48-3.28-.99-4.57.5-.6 2.58-.6.6-2.68 1.99-1.49 3.38-1.09 2.09h-2.29l-1.89-2.78-5.07 5.07-3.18-2.98-2.48-1.39-2.68 1.49-2.29.5-.79-1.09-1.49-1.89-1.79.1-.4 2.19-.79 1.19s-2.68.1-3.18-.2c-.5-.3-1.19-1.39-1.19-1.39l-3.38-1.39s-1.59-.7-2.48-.5c-.89.2-2.29.7-2.78.79-.5.1-1.59-.79-1.59-.79l-.1-.89-1.09-.99s-1.79-1.39-2.29-1.99c-.5-.6-1.39-.3-1.39-.3l-1.99 1.69-1.59-.3-16.48 4.75 1.88 3.1.7 3.97 1.19 4.37.5 1.79 8.15 4.17 5.76 2.48 2.98 3.58 1.69-.2 3.97 3.38.6 4.67-1.59 3.58 4.37 2.09 4.47 1.69 1.69-.89 2.19 3.18.3 6.86s-.89.2-1.29 1.09c-.4.89-.89 1.99-.89 1.99l2.48 3.97 5.46 1.59s5.56.5 5.86.5 7.45-.1 7.45-.1l7.45.99 6.16-1.69 7.45-4.67 2.78-3.08 5.96 3.38 1.99 1.99 7.05 1.49s.1-.1.5-.3 2.98-2.19 2.98-2.19l3.68-2.09 6.16 2.29s4.37 3.28 4.77 3.48c.4.2 10.53 3.18 10.53 3.18l4.87 2.29 1.29 2.68-18.38 30.6 3.88 2.48 2.98.79 2.09-1.29h3.48l3.08 2.29 6.96 8.15 14.51-80.58 1.24-9.24v-1.14l-1.94 1.64-1.49-.3Z"/><path class="cls-1" d="m279.65 358.06 4.02-2.24 4.92-2.09 2.38 2.98 5.51.89 2.09-.89-.15-2.68-1.79-7.15-.89-3.43-3.58-.6-2.98 1.34-3.58-.45-4.17-1.79h-2.38v-16.84l.59-.11-2.01-1.68-1.34.15-1.71.22s-2.24-.97-3.06-2.01c-.82-1.04-2.46-2.01-2.46-2.01s-1.04-.97-1.12-1.19.07-1.19.07-1.19l2.53-1.12.25-2.11-1.49-.87-2.68 1.09-3.18 1.69-3.88 1.29-4.77 1.79s-.89 0-1.29-.1-4.07-.79-4.07-.79-3.48-.2-4.07.3c-.6.5-2.98 3.88-2.98 3.88l-4.47 1.69-2.88-.7-2.38-1.09-.5 2.38-1.49 2.98-1.39 2.98s-1.09 2.09-1.09 3.28.1 3.38.1 3.38.2 2.98.2 3.28-.1 1.29-.1 1.29l-3.18 1.09-1.89 1.29-1.39 1.89-.79.2-.4.1-.89.89-.2 1.89-7.45 6.66 2.38 3.08 2.88 2.38.1 2.98s2.48 2.19 2.58 2.58c.1.4 3.48 1.99 3.78 2.19s3.78 1.89 4.37 1.89 5.07.2 5.07.2l.57 1.61 3.51 2.07 1.19-.89 1.19.2 2.09 1.19.5.6 2.68 1.69.79 1.59.1 1.59-.1 1.19 1.29 1.79.3 2.38 1.29.79h1.09l1.19-1.19s-.2-.99.79-.79c.99.2 3.97.99 3.97.99l1.19 1.49 1.79 1.29s1.09-.89 1.29.2l.2 1.09 1.99.89 2.09-.3 2.88-1.19s1.99.3 1.99.6-.89 1.49-.89 1.49l-2.29 1.29s-.4-.3-.3.7c.1.99.3-.2.4 1.29.1 1.49.2 2.29.2 2.29l-1.19 2.09 1.29 2.58-.4 3.18s-.89-.99-.89 0 .99 1.89 1.49 2.19c.5.3 2.68 1.59 2.68 1.59l1.29.1s.89-1.19.89-1.79v-2.48l1.49-.2 1.09-.3h1.49l.89 2.19V408l1.39 1.39 1.09-.6s.3-1.19.79-1.19 1.19-.4 1.79.2c.6.6 1.59 2.09 1.59 2.09l1.09 2.38h.6l1.69-1.79 2.09.99 1.49.3 1.94-1.64v-.95l-2.24-4.62-2.68-4.77-1.19-3.43.75-3.28-2.83-3.28-6.11-3.73-3.58-3.13-1.79-3.13V358.8l7.3-.75ZM104.19 94.41l2.48 1.19 3.08 1.59.99 2.09 1.39 2.68 3.88.89s.5 2.19.5 2.48-.99 2.09-.99 2.09l-.89.2h-3.87c-.3 0-1.29.3-1.29.3l.99 2.09 1.29 1.69.7 1.79v1.39s.89 2.98.89 3.58.4 1.39.4 1.39l.99.1 2.48.7s-.2.6-.3.89c-.1.3.5 1.09.5 1.09l1.79-.7 2.19-1.89 2.29-.3 2.09.89 2.48 1.79s.6 1.99.7 3.18c.1 1.19.79.99.79.99l3.28-1.69 1.69-1.69s.4-.89.7-1.09c.3-.2.5-1.19.5-1.19s.1-1.69.1-1.99v-1.39l-1.09-3.28-.4-1.39.89-.89.3-1.39-.2-2.58-1.49-2.29-3.18-1.69-2.38-1.19-1.59-2.38-.4-1.69-1.19-1.49.1-5.07-.4-.79-.89-1.69-1.29-1.69-3.48-.99-2.29-2.19-2.09-.5h-3.08l.7-1.29-.1-2.38-.4-3.28-.5-.7-2.19-.5-.99-1.19-.79-3.97-.6-1.09-1.16.22-.45 1.72-1.56 7.08-.67 1.64 1.49 2.53s.82 1.27.97 1.86c.15.6-.07 3.28-.07 3.28l-1.42 2.68-1.99.35.79 1.88 1.29 1.19Z"/><path class="cls-1" d="m86.2 115.73 1.19 3.73-1.79 1.94-2.24 2.68-1.94 5.22-.15 3.28-1.64 2.53-.75 5.51-1.49 2.98s.3 2.83 1.34 4.92 2.83 3.88 2.83 3.88 5.51 1.64 6.41 1.64 5.66.15 6.56-.15c.89-.3 6.11-1.94 6.11-1.94s1.19-1.94 2.83-2.24c1.64-.3 4.47-3.13 4.47-3.13l.3-3.73 1.49-4.47 4.47-3.58 2.38-2.83 2.68.3 4.92.6 3.13-2.38 1.04-1.34.77-2.78c-.11-.15-.2-.37-.23-.74-.1-1.19-.7-3.18-.7-3.18l-2.48-1.79-2.09-.89-2.29.3-2.19 1.89-1.79.7s-.6-.79-.5-1.09c.1-.3.3-.89.3-.89l-2.48-.7-.99-.1s-.4-.79-.4-1.39-.89-3.58-.89-3.58v-1.39l-.7-1.79-1.29-1.69-.99-2.09s.99-.3 1.29-.3h3.87l.89-.2s.99-1.79.99-2.09-.5-2.48-.5-2.48l-3.88-.89-1.39-2.68-.99-2.09-3.08-1.59-2.48-1.19-1.29-1.19-.79-1.88-1.81.32-4.02-1.27-3.87 3.2-3.28 2.46-.37 2.98-2.76 5.07-4.25 3.73-1.3.43 2.34 6.73 3.43.75ZM50.04 249.81s3.38.1 3.48-.5c.1-.6.3-.99.3-.99l4.07.6.99 1.39 2.88 1.59 1.09-.7 2.88 1.59 2.29 2.09 1.59.6 3.08-.6 3.18-2.48 2.78-.99.5-1.99-1.09-.7-1.69-1.49v-2.48l-1.89-2.09 2.98-.79 4.17-10.04 2.88-.99 2.19-1.19 1.19-3.08 2.19-.6-.6-3.78-1.39-2.58-1.79-2.58-.6-3.28 1.09-1.59 2.29-1.09.7-1.59s.3-2.38.3-2.88-.3-1.89-.3-1.89l-1.39-2.09.5-1.89.1-4.67-.5-.89-2.38-1.19-.7-1.69.1-1.69-.5-1.09-.6-.4-3.38.5-3.68.3-1.69.79h-3.58l-1.29-.89-.79-5.76-1.09-2.48-1.79-1.59-.5-2.78-2.09-3.28-1.09-1.59-.7-1.29.89-.89 3.97-1.09 1.19-.79v-1.29l-1.09-1.49v-.5l3.18-.4 2.38-.1 1.59.99s1.19.2 1.59 0c.4-.2 0-1.09 0-1.09l1.29-1.79-1.09-3.97-.4-2.19-1.89-1.39-1.99.5-1.99-2.38-1.19-2.68-3.87-3.97-3.48-1.39-2.29-3.38-1.29-1.09 1.29-1.09 1.59-1.09.1-2.19 2.38-3.28v-1.39l.6-3.58-2.78-2.21-1.64-.67s-1.79-2.76-1.86-2.98c-.07-.22-3.06-2.68-3.06-2.68l-1.49-3.2-1.64-2.01-2.53 4.92 1.19 2.48 2.48 3.87s.1 3.38.5 3.68c.4.3 2.58 2.48 2.58 2.48l1.09 3.28-2.88 1.19-2.48 1.29.5 2.48-1.29 2.68-3.88 2.78-1.09 3.28-1.59.3s-1.39-.6-1.19-2.98c.2-2.38-.89-4.67-.89-4.67l-2.78-.6-.6 1.49.5 2.29s.7 1.69.89 2.19c.2.5.3 1.69.3 1.69l-.7.99-2.19.99-.89 1.19-1.09 5.46 5.37 4.57 1.19 4.47-1.19 2.29 2.29 1.29 1.19 3.28.99 2.38s3.18-.5 3.48-.5 2.78 1.29 2.78 1.59-.79 5.17-.79 5.17-.3 2.19-.5 3.78c-.2 1.59-4.07 1.99-4.07 1.99l.5 3.18 1.89 2.68 3.58 2.29 1.59 2.78.6 3.28-.79 2.98-3.18 1.69-3.58-.2-1.49 1.59.6 2.48 2.19.79 1.19 1.69.5 5.46v5.76s.7 5.46.79 5.76c.1.3 1.59 3.48 1.59 3.48l-.3 9.04-1.99 2.29-3.38 1.99-.5 3.38 1.15 3.17c1.07-1.22 2.18-2.52 2.23-2.67.1-.3.4-.4.4-.4ZM87.99 342.22c-.2-.4-1.79-1.59-1.79-1.59l-2.38-2.29.5-4.67 1.89-2.48.4-1.49-1.59-.6h-3.38c-.3 0-3.18-1.09-3.18-1.09l.3-2.48.7-1.89-.89-2.78-2.58-.89-1.69-.79s.2-3.08.1-3.38-.4-2.29-.4-2.58 1.39-1.29 1.39-1.29l2.09.1 3.28.89 1.79-2.09s-.7-1.89-.99-2.38c-.3-.5 0-.89 0-.89l1.29-2.29 1.49-2.09 2.58 1.39 2.68-1.99 2.29-2.09h1.59l2.19 2.38.99.4 1.49-.3-.2-1.79s-.89-2.88-.89-3.18.79-.89.79-.89l1.29-1.89.4-1.49-2.48-1.69-.4-1.69s-3.78-2.88-4.07-2.98c-.3-.1-2.09-2.38-2.09-2.38l-1.09-2.78.4-1.49-.42-2.17-.57.18h-.99l-3.28-1.29-2.68-1.29-1.49-.89-2.38.1.2 2.09-1.59 3.68s-.89.7-1.29.99c-.4.3-1.29.3-1.29.3l-3.88.1-1.59 1.59-1.89.3-1.99-.89-2.48-.4-2.38.1-3.28-.99-1.49-1.49h-1.09l-2.68-.7-1.09-2.09-.2-3.08-.1-.09-.49.98-3.08 2.88-4.27 6.86-.79 5.17-4.07 3.97-4.69.74.42 1.94 3.08 1.59.7 3.18 2.09 4.17 1.79 1.99 3.18 1.79 3.48-.1 3.78-.89 2.88 1.79v1.19l-.4.89 1.19 1.99 1.39.6.2 1.09-.6 1.99-1.49 1.69-1.29 2.19-.79 1.29.7 1.59 2.48.4s2.09.2 2.38.1c.3-.1 2.19-1.59 2.19-1.59l3.68-.2 1.09 1.29 2.48 1.69.3 1.69-.99.99-.6 3.18.5 1.89.79 1.89 3.97-1.99 1.94-1.64 1.64.75s1.04 2.83 1.34 3.43c.3.6-.15 3.28-.15 3.28s-.75 2.38-.75 2.98 3.13 2.98 3.13 2.98h.89l5.51.3 4.62-.15.69-.39-.29-1.39s-1.39-2.19-1.59-2.58Z"/><path class="cls-1" d="m90.67 330.04 2.68-.45 2.38-3.28 2.83-4.17 4.17-3.28s3.43-2.68 3.43-3.13.89-4.02 1.19-4.62c.3-.6 4.32-4.32 4.32-4.32l2.14-2.93.89-2.78 2.98-1.09 2.68-1.59 1.19-3.58s-.2-3.08-.2-3.38 1.99-2.19 1.99-2.19l1.49-1.39.99-3.08s3.08-2.98 3.48-3.18c.4-.2 1.29-.89 2.19-1.39.89-.5 1.89-2.38 1.89-2.38s.99-3.88 1.29-4.57c.3-.7 1.69-4.47 1.69-4.47l1.19-2.09.7-4.47-1.19-.99-1.19.6-.99 1.89-2.19 2.68-2.16.52-.22 1.19.37.75-1.04 1.42-.15 1.04s.07.22.07.52-.22.97-.22.97l-2.01 2.01-3.2 2.76-3.2-.37s-.45-.52-.45-.89.67-1.57.67-1.57l1.12-1.19s-1.12-.97-1.42-.97-1.56.15-1.56.15-2.31-1.04-2.83-.07-.82 1.49-.82 1.49l-1.49.89-.89-.6-1.12-1.27-2.09.45-1.12-.37-.97 1.04-1.27 2.53-1.19.82-.15 1.79-4.17 4.1-2.83 1.64-3.43 1.34-2.91-.89-1.7-1.07.16.42s1.79 2.29 2.09 2.38c.3.1 4.07 2.98 4.07 2.98l.4 1.69 2.48 1.69-.4 1.49-1.29 1.89s-.79.6-.79.89.89 3.18.89 3.18l.2 1.79-1.49.3-.99-.4-2.19-2.38h-1.59l-2.29 2.09-2.68 1.99-2.58-1.39-1.49 2.09-1.29 2.29s-.3.4 0 .89c.3.5.99 2.38.99 2.38l-1.79 2.09-3.28-.89-2.09-.1s-1.39.99-1.39 1.29.3 2.29.4 2.58-.1 3.38-.1 3.38l1.69.79 2.58.89.89 2.78-.7 1.89-.3 2.48s2.88 1.09 3.18 1.09h3.38l1.59.6-.4 1.49 1.79-1.14h2.68Z"/><path class="cls-1" d="M205.14 353.44c-.2-.3-1.99-3.08-1.99-3.08s-.6-2.29-.79-2.58c-.2-.3-2.68-2.29-2.68-2.29l-1.99-3.08-3.58-1.29-2.68-.1-1.29-2.09-3.68 1.49.2 3.78s-1.19 1.99-2.38 2.58c-1.19.6-3.48 1.39-3.88 1.49-.4.1-2.48-1.29-2.48-1.29l-3.78-3.68-3.58-2.88-.99-3.18-1.79-1.59-1.09-2.68-2.58-1.59-.99-4.87-.89-.3-5.86 2.38-3.48-.4-1.49-1.49-2.19-1.49s-1.69-1.59-1.99-1.99c-.3-.4-1.49-.79-1.49-.79l-2.38-.2-6.26-2.78-2.58-10.04-1.39-2.29-.2-2.98.1-1.79-.6-1.89.6-3.08 1.59-1.29.5-2.29v-2.58l-2.68-1.69-1.79-1.79-2.78-.79-2.4-.91-.58 1.81-1.49 1.39s-1.99 1.89-1.99 2.19.2 3.38.2 3.38l-1.19 3.58-2.68 1.59-2.98 1.09-.89 2.78-2.14 2.93s-4.02 3.73-4.32 4.32c-.3.6-1.19 4.17-1.19 4.62s-3.43 3.13-3.43 3.13l-4.17 3.28-2.83 4.17-2.38 3.28-2.68.45h-2.68l-1.79 1.14-1.89 2.48-.5 4.67 2.38 2.29s1.59 1.19 1.79 1.59c.2.4 1.59 2.58 1.59 2.58l.29 1.39 1.4-.8 2.68 1.04 2.09 3.58 1.64 1.34 3.73-.3 2.38-.15 4.32.75 4.47 3.43 2.68.3.6 1.94v2.53l.75 2.98h1.49l1.94-.15.75 1.49 1.04 1.94.89 2.83 3.58 1.49 1.04.45 5.37 2.83.15 2.83-.3 3.13 2.53 2.53 5.22.89 3.13-.89 3.73.6 9.81 5.96.17-.05 1.59.3 1.99-1.69s.89-.3 1.39.3c.5.6 2.29 1.99 2.29 1.99l1.09.99.1.89s1.09.89 1.59.79c.5-.1 1.89-.6 2.78-.79.89-.2 2.48.5 2.48.5l3.38 1.39s.7 1.09 1.19 1.39c.5.3 3.18.2 3.18.2l.79-1.19.4-2.19 1.79-.1 1.49 1.89.79 1.09 2.29-.5 2.68-1.49 2.48 1.39 3.18 2.98 5.07-5.07 1.89 2.78h2.29l1.09-2.09 1.49-3.38 2.68-1.99.6-.6.6-2.58 4.57-.5 3.28.99 1.09-2.48.89-2.19 4.87-3.68 2.88-1.49 3.28-.7.89-1.39.37.22-.57-1.61s-4.47-.2-5.07-.2-4.07-1.69-4.37-1.89-3.68-1.79-3.78-2.19c-.1-.4-2.58-2.58-2.58-2.58l-.1-2.98-2.88-2.38-2.38-3.08.15-.14-3.14-1.35s-3.88-.6-4.07-.89ZM277.07 192.28c-.5-.4-2.38-1.99-2.38-1.99s-.99-1.09-1.49-1.69c-.5-.6-1.99-1.59-1.99-1.59l-2.38-2.09-3.38.1-5.17.89s-1.89 1.19-2.68 1.79c-.79.6-1.79.6-1.79.6l-5.86.2-4.17-.5-4.17-.5-4.67-1.89-2.68.99s-2.68 1.79-3.58 2.09c-.89.3-3.68.1-3.68.1s-2.88-.99-3.87-1.39c-.99-.4 0 0-2.19 1.69s-5.37.89-5.37.89l-3.78 1.89-2.58 1.29-2.98-.1-3.18-1.89-1.57-1.57-1.11.63s.75 1.64 1.19 1.94c.45.3.75 1.94.75 1.94l-.6 2.09-.75 1.79-1.49.6s-.6.89-.15 1.04c.45.15 2.09.3 2.09.3l2.09.75 1.79 2.98.45.75-2.38 2.98.6 2.53-.89.45-1.49-.89-1.19-1.34-1.64 1.19-1.64 2.98-1.34 1.49-1.79.75-1.34 2.24-.89 1.34-1.19-2.09-2.24-2.24s-.6-.75-.89 0c-.3.75-1.34 2.38-1.34 2.38l-1.79 3.13-.3 2.24 1.04 1.49-1.19 2.68-1.79-.15-.89 3.43-.6 3.13 1.94 5.81 2.83 2.83 3.87 5.37 3.73 1.04s.45-.89 2.38-1.19c1.94-.3 4.17-.6 4.17-.6l3.13-1.94 2.24-1.79 5.81.15.89 1.49 3.58-.45 1.94-1.94 1.04-2.24 2.98-1.34 3.43-.75 4.77-1.64 3.43-2.98 3.73-1.79 4.17-1.26v-1.47l3.48-5.27.7-2.29s3.28-1.29 3.58-1.39c.3-.1 3.88-2.19 3.88-2.19l.3-2.78 1.59-1.59 2.48-2.48 2.58-1.99 3.97-.6 1.79-.3 3.18-.99 2.88-1.79 1.09-2.38s3.88-2.38 4.37-3.18c.5-.79.79-2.68.79-2.68l1.09-1.89.42-.52c-.65-.29-1.44-.66-1.71-.88Z"/><path class="cls-1" d="m272.5 306.65-3.43.15-1.49.75-3.5 1.04-3.43.15-4.55-1.34-.22-2.31-3.5-3.28-1.49-2.91-2.31.3-.97-1.27 10.36-5.29.75-1.4-3.41-.39-2.58 1.19-3.18-.5s-2.98-.79-3.28-.79-2.29.1-2.29.1l-3.38-1.39v-.59l-8.05.34-2.09.3s-4.77-.45-6.11-.45l-4.17 1.64-7.3-1.04-3.87-.89-2.83 1.49-2.24-.6-3.13 2.98-3.13 3.43-5.07 1.79-3.43-2.24s-2.38 1.94-2.53 2.38c-.15.45-2.24 1.94-2.24 1.94v2.38l-1.94.6-6.41 1.94-6.41.6-5.51-.75v26.71l2.53 1.56 1.09 2.68 1.79 1.59.99 3.18 3.58 2.88 3.78 3.68s2.09 1.39 2.48 1.29c.4-.1 2.68-.89 3.88-1.49 1.19-.6 2.38-2.58 2.38-2.58l-.2-3.78 3.68-1.49 1.29 2.09 2.68.1 3.58 1.29 1.99 3.08s2.48 1.99 2.68 2.29c.2.3.79 2.58.79 2.58s1.79 2.78 1.99 3.08c.2.3 4.07.89 4.07.89l3.14 1.35 7.3-6.52.2-1.89.89-.89.4-.1.79-.2 1.39-1.89 1.89-1.29 3.18-1.09s.1-.99.1-1.29-.2-3.28-.2-3.28-.1-2.19-.1-3.38 1.09-3.28 1.09-3.28l1.39-2.98 1.49-2.98.5-2.38 2.38 1.09 2.88.7 4.47-1.69s2.38-3.38 2.98-3.88c.6-.5 4.07-.3 4.07-.3s3.68.7 4.07.79c.4.1 1.29.1 1.29.1l4.77-1.79 3.88-1.29 3.18-1.69 2.68-1.09 1.49.87.05-.42.52-2.76 2.53-1.12.22-1.49-1.64-1.64ZM102 252.17s.45-2.31.6-2.83c.15-.52.97-2.38 1.49-2.68.52-.3 1.42-1.71 1.42-3.06s-.15-2.98-.15-2.98l3.28-1.86s2.09-.89 2.16-1.64c.07-.75.67-3.8.67-3.8l-3.13.6-3.06.45-2.38-.52-1.21-.03h.01l-1.04 2.09-.35.35-3.18-.45-.5 1.34.3 1.94s-.35 1.09-.45 1.24c-.1.15-.25 1.84-.25 1.84l1.79.55.79 1.64-.3 3.88s-.99 3.28-.99 3.58.99 1.79.99 1.79l.18.57 1.44-1.54 1.86-.45Z"/><path class="cls-1" d="m105.28 234.36 3.06-.45 2.86-.55-.11-3.18s-1.04-.6-1.27-.67c-.22-.07-.82-.78-.89-.97-.07-.19-1.16-.97-1.16-.97l-6.63-.3-.45-1.04-.34-1.9-.22-.6-1.49.89-.48 1.68-.45.82-.63.3s-.71-.3-1.3-.82c-.6-.52-1.01-1.3-1.04-1.83-.04-.52-.07-1.19-.04-1.64.04-.45.41-.89.41-.89l1.64-.34.52-1.34s.19-1.27.15-1.9c-.04-.63-.11-1.3-.11-1.3l.45-.67.89-.45.82.6 1.49.67.75-.04.86-1.56-.11-1.57-.89-1.04-1.16-.45-2.01.6-.82.78s-.67.07-1.19.11c-.52.04.04-.26.04-.26l-.04-1.38.26-2.12-1.27-.07-1.9-.15s-1.53-.3-1.64-.37c-.11-.07-.45-1.34-.45-1.34v-1.19l-.78-.26-.6.32c-.09.86-.22 1.96-.22 1.96l-.7 1.59-2.29 1.09-1.09 1.59.6 3.28 1.79 2.58 1.39 2.58.55 3.48c.89.85 1.69 1.63 1.74 1.74.1.25 1.19 1.54 1.19 1.54l1.99.35.1 1.24-.84 1.19.79.84 1.99-.35.7 1.24 1.79-.1 2.22.44 1.21.03 2.38.52ZM198.08 169.33s.2 1.24.2 1.39-.3 1.69-.3 1.69l.25.99.55.79-.45 1.29-.5.65-1.39.99-.2.94.79.99-.25.6-2.98 1.59h-1.04l-.3-1.09-.25-.99-2.58-1.64-1.39.3-.15.79.79.89 1.74 1.54.2.94-.75 2.29-.15 2.88-5.32 5.66-.15 1.04-2.68 1.79-2.43.25-1.19-.84-1.79.35-.84.84-.89 2.33-2.29.99-1.09.45-.99 2.53-1.54-1.19-.1-1.59 2.04-2.43.84-1.39-.4-1.64-2.43-2.53-2.09-.65-.25 1.54.3 1.24-1.59.99-.4 2.09.3 1.04.5 1.34-1.54 3.73-1.29-.5-.94-1.14h-.55l-2.43.65-.94 1.04-2.04-.15-2.19-.55-1.19-.4-.99-1.49-2.24-.45-1.09-1.59s-.89-.4-1.04-.2c-.15.2-1.64.4-1.64.4l-.15-1.09s.3-.79.3-.99-1.19-1.69-1.19-1.69l.2-1.59-.6-.5-1.79.55-1.24-.3-1.24-1.74-1.79-1.99-.99-2.09-1.29.99-1.09 2.58-.2 2.14 1.09 1.29.1 1.34-.75 1.09.1 1.29-1.09.94-.25 1.34.84 1.79 2.33-.1.65-.35 1.99.55 1.84.1 1.09-2.04 1.19 1.04.79 1.59.2 1.54-.79 1.14s1.04 1.04 1.04 1.19-.2 3.28-.2 3.28l2.24.45 2.88.84.94 1.59 2.09 1.14 1.74-1.34.7-2.14.3-1.09 4.32-2.38v1.74l-.55 1.39 2.53.6 2.33.6.75 2.33.7 1.69 1.89 1.69.3 2.04.2 2.14.79.94-.89 1.59-1.84.75.1 2.29 1.29 1.24 3.87.5.5 1.74.94 2.14 2.29.84 1.04 1.14 2.04 1.04 3.41-1.1-.77-2.32.6-3.13.89-3.43 1.79.15 1.19-2.68-1.04-1.49.3-2.24 1.79-3.13s1.04-1.64 1.34-2.38c.3-.75.89 0 .89 0l2.24 2.24 1.19 2.09.89-1.34 1.34-2.24 1.79-.75 1.34-1.49 1.64-2.98 1.64-1.19 1.19 1.34 1.49.89.89-.45-.6-2.53 2.38-2.98-.45-.75-1.79-2.98-2.09-.75s-1.64-.15-2.09-.3c-.45-.15.15-1.04.15-1.04l1.49-.6.75-1.79.6-2.09s-.3-1.64-.75-1.94c-.45-.3-1.19-1.94-1.19-1.94l1.11-.63-1.41-1.41s-.7-.99-.7-2.19 1.79-1.09 1.79-1.09 2.19-1.19 2.29-1.79c.1-.6-.1-1.69-.1-1.69l.89-.4h3.08s.7-.99.99-1.59c.3-.6.1-2.38.1-2.38l2.38-3.28 2.19-5.66.89-3.28v-.81l-2.26.19-1.08-1.69-2.95-.4-.37.89.15 2.24-1.86-.37-1.27-.67s-.52 1.56-.52 1.94-.07.82-.3 1.42c-.22.6-1.71.37-2.09.52-.37.15-1.86-.37-1.86-.37l-.97-.82-.58.17-.24 1.2.4 1.04ZM131.61 131.57l2.88 1.19 2.09 3.58 1.09 3.38.6 2.38 1.39.89.1 1.99-2.78.89-.89 1.19.4 2.48.1 4.57 1.49 1.29s.2.1 1.09-.1c.89-.2 2.38-2.68 2.38-2.68l.6-1.79 1.49 2.98s-1.49.89-1.59 1.19-.5 2.58-.5 2.58l.5 4.77 1.19 1.69 2.78.3s3.18-2.19 3.38-2.48c.2-.3 3.68-3.48 3.68-3.48l1.69-1.29.6-4.27-.3-3.68 1.99-1.49.2-3.88.79-2.48-1.39-3.58-.4-3.58 2.09-2.78 1.59-1.09.5-4.17v-4.87l-.82-3.13-2.01-2.98s.45-1.94.45-2.53-1.64-3.43-1.64-3.43l.22-2.31-.36-2.71-1.35.4-5.96-1.64-2.53-2.83-4.17-2.83-3.73-.45-1.19-.15-4.32-4.02-2.68-1.94-.75-.89s-.15-1.94 0-2.38c.15-.45.3-1.64.3-1.64l-2.53-3.13-.45-2.09v-2.83l1.04-2.24.6-2.24-4.77-3.13.6-2.09v-3.13s-3.18-2.29-3.97-2.48c-.79-.2-1.79-1.39-1.79-1.39l-2.38-1.59-.7-2.78-.4-3.58-.85-2.74-1.46.63-3.5 4.32-2.09 1.27.15 7.68-1.56 5.96 1.16-.22.6 1.09.79 3.97.99 1.19 2.19.5.5.7.4 3.28.1 2.38-.7 1.29h3.08l2.09.5 2.29 2.19 3.48.99 1.29 1.69.89 1.69.4.79-.1 5.07 1.19 1.49.4 1.69 1.59 2.38 2.38 1.19 3.18 1.69 1.49 2.29.2 2.58-.3 1.39-.89.89.4 1.39 1.09 3.28v1.39c0 .3-.1 1.99-.1 1.99s-.2.99-.5 1.19c-.3.2-.7 1.09-.7 1.09l-1.69 1.69-3.28 1.69s-.33.08-.57-.25l-.69 2.48 1.36.55 1.79 2.19Z"/><path class="cls-1" d="m160.46 133.42.82.93.11.93 1.15.78v1.15l-.41 1.08-1.27.56-.82 1.42v.93c0 .15.41.86.41.86l3.02-.04 1.04-.22 2.09 1.71 1.79.52 1.42-.37 1.42-1.79 1.27-1.56.22-2.24 1.42-.82.07-1.86-.52-1.42-1.42-1.19-1.04-1.12-.82-1.94s.35-1.44.65-1.84c.3-.4.89-2.19.89-2.19l.6-2.29-.5-2.88s-.7-.3-1.09-.3-.1 1.69-.1 1.69-.6 1.79-.79 2.09c-.2.3-.79.1-.79.1l-1.09-.89-.3-.99.79-1.29v-.99l-.99-.99s-1.09-.89-1.19-1.19c-.1-.3-.4-2.38-.4-2.38l1.79-1.79.89-.89 1.29-1.59-.2-2.88-.99-1.59 1.29-2.68-.3-2.48.1-1.59 2.68-.6.07-1.22 6.38-10.51h1.19l.79-4.07 3.38-4.77s-.89-1.69-.89-2.29 1.49-4.07 1.49-4.07l1.76-10.24-1.51-.71-4.77-.37-2.46.3-.75-.45-.82-1.49.75-2.09s1.04-1.49 1.71-2.16c.67-.67.6-1.42.6-1.42l-2.24-.97-1.04-1.19-1.56-.07-1.04-.07.67-2.98v-.97l-4.25.37-6.71.89 1.49 1.71-.6 2.83-.3 3.28-2.38 3.13-5.51 1.94-5.81 5.66-1.34 2.83 1.79 4.32 5.37 4.32 3.28 6.71-3.58.89h-4.62l-1.04.6.15 2.24 1.49 5.22 2.53 3.13 3.87 2.53.75 3.28-2.67.79.36 2.71-.22 2.31s1.64 2.83 1.64 3.43-.45 2.53-.45 2.53l2.01 2.98.82 3.13v4.87l-.5 4.17-.64.44.21 1.73.97.97Z"/><path class="cls-1" d="m198.23 173.4-.25-.99s.3-1.54.3-1.69-.2-1.39-.2-1.39l-.4-1.04.24-1.2-.99.28s-1.12-.52-1.12-.75.22-.6.22-.6l.52-1.79-2.83-.07s-2.46.07-2.68.07h-.52l-1.49-.22-2.38-1.71.75-1.19.82-2.46-1.12-1.42.45-1.71s-.22-1.64-.22-2.16-1.42-.67-1.42-.67l-.6-2.31s-1.27-.82-1.57-1.19c-.3-.37-.6-2.01-.6-2.01l-.82-1.19-1.71-.82h-4.55l-1.04 1.71-.89 1.12-1.42.37-2.24-.3-2.61-1.34-2.31-1.64-1.86-2.31-.22-.75-3.02.04s-.41-.71-.41-.86v-.93l.82-1.42 1.27-.56.41-1.08v-1.15l-1.15-.78-.11-.93-.82-.93-.97-.97-.21-1.73-.94.65-2.09 2.78.4 3.58 1.39 3.58-.79 2.48-.2 3.88-1.99 1.49.3 3.68-.6 4.27-.5.39.8 1.4-.1 2.68 1.29 2.38v1.19s-1.39 1.09-1.89 1.29c-.5.2-2.29.6-2.29.6l-.5 1.59-2.19 1.99-1.09 1.79-1.09 1.39-3.58.5-2.38 1.09-.5 1.19v2.58s-.2 3.08 0 3.38c.2.3-.1 1.79-.1 1.79l-2.29.81-1.4 2.47.85 1.79 1.79 1.99 1.24 1.74 1.24.3 1.79-.55.6.5-.2 1.59s1.19 1.49 1.19 1.69-.3.99-.3.99l.15 1.09s1.49-.2 1.64-.4c.15-.2 1.04.2 1.04.2l1.09 1.59 2.24.45.99 1.49 1.19.4 2.19.55 2.04.15.94-1.04 2.43-.65h.55l.94 1.14 1.29.5 1.54-3.73-.5-1.34-.3-1.04.4-2.09 1.59-.99-.3-1.24.25-1.54 2.09.65 2.43 2.53.4 1.64-.84 1.39-2.04 2.43.1 1.59 1.54 1.19.99-2.53 1.09-.45 2.29-.99.89-2.33.84-.84 1.79-.35 1.19.84 2.43-.25 2.68-1.79.15-1.04 5.32-5.66.15-2.88.75-2.29-.2-.94-1.74-1.54-.79-.89.15-.79 1.39-.3 2.58 1.64.25.99.3 1.09h1.04l2.98-1.59.25-.6-.79-.99.2-.94 1.39-.99.5-.65.45-1.29-.55-.79Z"/><path class="cls-1" d="m98.68 209.17 1.45-.22 3.02.75s1.15-.15 1.27-.22.34-1.12.34-1.12l-.3-1.83-.19-3.54 1.49-.07 1.3 1.53 1.08.86s.45-.48.67-.75c.22-.26 1.23-.37 1.23-.37l.93.34 1.04 2.46.93 1.45.45 1.64.41 1.23 1.94-.34 1.49-1.71.93-1.49 1.08-.15.34-2.16 1.12-.89 1.71-.3s1.27-1.57 1.56-1.68c.3-.11 1.19-.41 1.49-.52.3-.11 1.71-.15 1.71-.15l.86 1.3 1.08 1.12 1.68-.52.89-2.01 2.09-.75-.34-.71.25-1.34 1.09-.94-.1-1.29.75-1.09-.1-1.34-1.09-1.29.2-2.14 1.09-2.58 1.29-.99.14.3 1.4-2.47 2.29-.81s.3-1.49.1-1.79c-.2-.3 0-3.38 0-3.38v-2.58l.5-1.19 2.38-1.09 3.58-.5 1.09-1.39 1.09-1.79 2.19-1.99.5-1.59s1.79-.4 2.29-.6c.5-.2 1.89-1.29 1.89-1.29V164l-1.29-2.38.1-2.68-.8-1.4-1.19.91s-3.48 3.18-3.68 3.48c-.2.3-3.38 2.48-3.38 2.48l-2.78-.3-1.19-1.69-.5-4.77s.4-2.29.5-2.58 1.59-1.19 1.59-1.19l-1.49-2.98-.6 1.79s-1.49 2.48-2.38 2.68c-.89.2-1.09.1-1.09.1l-1.49-1.29-.1-4.57-.4-2.48.89-1.19 2.78-.89-.1-1.99-1.39-.89-.6-2.38-1.09-3.38-2.09-3.58-2.88-1.19-1.79-2.19-1.36-.55-.08.31-1.04 1.34-3.13 2.38-4.92-.6-2.68-.3-2.38 2.83-4.47 3.58-1.49 4.47-.3 3.73s-2.83 2.83-4.47 3.13c-1.64.3-2.83 2.24-2.83 2.24s-5.22 1.64-6.11 1.94c-.89.3-5.66.15-6.56.15s-6.41-1.64-6.41-1.64-1.79-1.79-2.83-3.88-1.34-4.92-1.34-4.92l1.49-2.98.75-5.51 1.64-2.53.15-3.28 1.94-5.22 2.24-2.68 1.79-1.94-1.19-3.73-3.43-.75-2.34-6.73-2.35.77-4.4 5.37-4.99 1.12s-2.46 0-2.68.07c-.22.07-1.56 2.09-1.56 2.09l.3 1.34 2.46.22 2.38 4.02-.37 3.43 1.49 4.99-.07 3.2-.89 2.53-3.2.3-1.79-2.09.3-1.49 1.12-.45.45-2.46-1.64-.6s-.97.37-.97.07.37-2.61.37-2.61l-.12-.1-.6 3.58V133l-2.38 3.28-.1 2.19-1.59 1.09-1.29 1.09 1.29 1.09 2.29 3.38 3.48 1.39 3.87 3.97 1.19 2.68 1.99 2.38 1.99-.5 1.89 1.39.4 2.19 1.09 3.97-1.29 1.79s.4.89 0 1.09c-.4.2-1.59 0-1.59 0l-1.59-.99-2.38.1-3.18.4v.5l1.09 1.49v1.29l-1.19.79-3.97 1.09-.89.89.7 1.29 1.09 1.59 2.09 3.28.5 2.78 1.79 1.59 1.09 2.48.79 5.76 1.29.89h3.58l1.69-.79 3.68-.3 3.38-.5.6.4.5 1.09-.1 1.69.7 1.69 2.38 1.19.5.89-.1 4.67-.5 1.89 1.39 2.09s.3 1.39.3 1.89c0 .16-.03.52-.07.92l.6-.32.78.26v1.19s.34 1.27.45 1.34c.11.07 1.64.37 1.64.37l1.9.15 1.27.07-.04.34 1.16-.68.93-1.08Z"/><path class="cls-1" d="m112.36 227.43.52-2.53-.07-2.24.6-1.42 2.53-.75h2.31l1.64-1.49.67-2.09 1.79-.89 4.84-.22 3.95-.15 2.61-3.95-.3-2.98.07-2.31-1.01-4.91-.81.29-.89 2.01-1.68.52-1.08-1.12-.86-1.3s-1.42.04-1.71.15c-.3.11-1.19.41-1.49.52-.3.11-1.56 1.68-1.56 1.68l-1.71.3-1.12.89-.34 2.16-1.08.15-.93 1.49-1.49 1.71-1.94.34-.41-1.23-.45-1.64-.93-1.45-1.04-2.46-.93-.34s-1.01.11-1.23.37c-.22.26-.67.75-.67.75l-1.08-.86-1.3-1.53-1.49.07.19 3.54.3 1.83s-.22 1.04-.34 1.12-1.27.22-1.27.22l-3.02-.75-1.45.22-.93 1.08-1.16.68-.22 1.78.04 1.38s-.56.3-.04.26c.52-.04 1.19-.11 1.19-.11l.82-.78 2.01-.6 1.16.45.89 1.04.11 1.57-.86 1.56-.75.04-1.49-.67-.82-.6-.89.45-.45.67s.07.67.11 1.3c.04.63-.15 1.9-.15 1.9l-.52 1.34-1.64.34s-.37.45-.41.89c-.04.45 0 1.12.04 1.64.04.52.45 1.3 1.04 1.83.6.52 1.3.82 1.3.82l.63-.3.45-.82.48-1.68 1.49-.89.22.6.34 1.9.45 1.04 6.63.3s1.08.78 1.16.97c.07.19.67.89.89.97.22.07 1.27.67 1.27.67v.27l1.27-.64v-2.38Z"/><path class="cls-1" d="m137.97 252.89.05-2.58-.99-1.69-1.34-1.64-1.49-.2-.65 1.24-1.29 1.19h-.94l-.5-1.29-2.78-.2-1.39-1.89.79-4.27.89-3.58.1-1.99-.7-1.39v-1.89l1.49-.99 1.09-2.09.6-1.89-.6-4.37-.1-3.48-.6-1.19-.22-2.99-2.22.08-4.84.22-1.79.89-.67 2.09-1.64 1.49h-2.31l-2.53.75-.6 1.42.07 2.24-.52 2.53v2.38l-1.26.64.1 2.91.27-.05s-.6 3.06-.67 3.8c-.07.75-2.16 1.64-2.16 1.64l-3.28 1.86s.15 1.64.15 2.98-.89 2.76-1.42 3.06c-.52.3-1.34 2.16-1.49 2.68-.15.52-.6 2.83-.6 2.83l-1.86.45-1.44 1.54.32 1.02-2.68 4.47-.7 3.68-3.18 3.18c-.3.3-.89 2.68-.89 2.68l-.89 1.69s-.79 2.29-.79 2.78.4 1.99.4 2.48.1 2.09.1 2.09l-1.02.32.42 2.17-.4 1.49.93 2.36 1.7 1.07 2.91.89 3.43-1.34 2.83-1.64 4.17-4.1.15-1.79 1.19-.82 1.27-2.53.97-1.04 1.12.37 2.09-.45 1.12 1.27.89.6 1.49-.89s.3-.52.82-1.49 2.83.07 2.83.07 1.27-.15 1.56-.15 1.42.97 1.42.97l-1.12 1.19s-.67 1.19-.67 1.57.45.89.45.89l3.2.37 3.2-2.76 2.01-2.01s.22-.67.22-.97-.07-.52-.07-.52l.15-1.04 1.04-1.42-.37-.75.22-1.19 2.16-.52 2.19-2.68.99-1.89.57-.28-.57-6.62 2.09-2.04ZM143.38 258.68s.45-1.27.52-1.49c.07-.22 1.29-1.56 1.29-1.56l1.64-.92.45-.55.57-1.29 2.06-1.56s-.07-.67-.12-.84c-.05-.17-.72-.87-.72-.87l.02-2.09.27-.97.82-.92-.25-1.64.62-3.53 1.12-.92.65-.84.42-.75.12-1.66-.42-1.74.1-2.26-.57-1.84c-.1-.32-.6-.22-1.07-.22s-.99.2-.99.2l-1.09 1.54-.6 1.14s-.82.82-.92.84c-.1.02-1.39 1.81-1.39 1.81l-.67 1.27 1.04.84.65 1.19v1.61l-.47 1.39-.7 1.49.47.97-.4 2.63.37.75.1.7-.57.92-.12.99-.37.27-.37.45-.12.89-.15.77-.75.05-.62-.32-.89-.45-.52.1-.84.2s-.32.92-.35 1.12c-.02.2.5 1.64.5 1.64l.1 1.86-.55 1.07s.1.89.1 1.29.17 1.17.17 1.17l-.84.79-1.12.7-1.06 2.28-.14.89 2.26-.27 1.69-2.38 1.44-1.02-.05-1.59.25-1.34Z"/><path class="cls-1" d="m177.91 235.55-2.04-1.04-1.04-1.14-2.29-.84-.94-2.14-.5-1.74-3.87-.5-1.29-1.24-.1-2.29 1.84-.75.89-1.59-.79-.94-.2-2.14-.3-2.04-1.89-1.69-.7-1.69-.75-2.33-2.33-.6-2.53-.6.55-1.39v-1.74l-4.32 2.38-.3 1.09-.7 2.14-1.74 1.34-2.09-1.14-.94-1.59-2.88-.84-2.24-.45s.2-3.13.2-3.28-1.04-1.19-1.04-1.19l.79-1.14-.2-1.54-.79-1.59-1.19-1.04-1.09 2.04-1.84-.1-1.99-.55-.65.35-2.33.1-.51-1.08-1.27.46 1.01 4.91-.07 2.31.3 2.98-2.61 3.95-1.73.07.22 2.99.6 1.19.1 3.48.6 4.37-.6 1.89-1.09 2.09-1.49.99v1.89l.7 1.39-.1 1.99-.89 3.58-.79 4.27 1.39 1.89 2.78.2.5 1.29h.94l1.29-1.19.65-1.24 1.49.2 1.34 1.64.99 1.69-.05 2.58-2.09 2.04.57 6.62.63-.31 1.19.99-.34 2.16 1.06-2.28 1.12-.7.84-.79s-.17-.77-.17-1.17-.1-1.29-.1-1.29l.55-1.07-.1-1.86s-.52-1.44-.5-1.64c.02-.2.35-1.12.35-1.12l.84-.2.52-.1.89.45.62.32.75-.05.15-.77.12-.89.37-.45.37-.27.12-.99.57-.92-.1-.7-.37-.75.4-2.63-.47-.97.7-1.49.47-1.39v-1.61l-.65-1.19-1.04-.84.67-1.27s1.29-1.79 1.39-1.81c.1-.02.92-.84.92-.84l.6-1.14 1.09-1.54s.52-.2.99-.2.97-.1 1.07.22l.57 1.84-.1 2.26.42 1.74-.12 1.66-.42.75-.65.84-1.12.92-.62 3.53.25 1.64-.82.92-.27.97-.02 2.09s.67.7.72.87c.05.17.12.84.12.84l-2.06 1.56-.57 1.29-.45.55-1.64.92s-1.22 1.34-1.29 1.56c-.07.22-.52 1.49-.52 1.49l-.25 1.34.05 1.59 1.24-.87 2.09-4.77 3.08-1.29 6.16-2.68 4.67-1.39-.3-2.29-.89-2.98-.6-4.37 2.68-1.79 2.19.6 1.99 3.08 1.19 2.88 3.48.6s3.38-.7 3.78-.7 3.68 2.09 3.68 2.09l1.29 1.19 2.16-14.39-3.15 1.02ZM368.71 334.89c-.07-.52-2.68-7.53-2.68-7.53l-5.66-11.03.52-2.83-1.34-1.71-1.34-3.43.37-3.2-7.23-7.53-4.1-2.46-1.42-4.02-3.8-.97-2.91-.22.89-1.56 14.31-13.71.45-2.24-1.71-2.01s-1.12-2.61-1.56-3.65c-.45-1.04-2.46-5.51-2.46-5.51l-3.28.37-.97-1.94-1.12-3.2-.47-2.16c-.35.22-.65.42-.85.55-.89.6-.7.6-1.19 1.49-.5.89-.79.89-1.99 1.39-1.19.5-.5-.1-1.39-.6-.89-.5-2.19-.99-2.19-.99s-.99-.2-1.79-.5c-.79-.3-3.28-.7-3.58-.7s-4.57.79-5.07 1.29-1.49 1.09-1.49 1.09l-1.49 1.49s-2.38.99-3.08 1.29c-.7.3-1.39 1.89-1.39 1.89l-1.89.89s-1.69.5-3.58 0c-1.89-.5-3.38.2-3.38.2l-2.09 1.09s-1.69.6-3.08 1.19c-1.39.6-1.99.89-1.99.89l-2.88-.89-3.18-1.89-2.38.7-3.18-.5s-1.89.5-2.98.79c-1.09.3-.4.79-.4.79l-.3 2.09c-.3 2.09-.4.99-.4.99s-3.08.1-3.68.1-1.19-.4-1.19-.4l-2.19 1.99-.6 1.09-2.19 1.49-1.29-.2-4.07.4-.3 1.89.5 1.79-2.48 3.08-3.38 1.59.7 2.38.2 3.18s-1.39.89-2.19 1.19c-.79.3-2.48 2.09-2.48 2.09l-2.58 1.19h-.07l-.75 1.39-10.36 5.29.97 1.27 2.31-.3 1.49 2.91 3.5 3.28.22 2.31 4.55 1.34 3.43-.15 3.5-1.04 1.49-.75 3.43-.15 1.64 1.64-.22 1.49-2.53 1.12-.52 2.76-.3 2.53-2.53 1.12s-.15.97-.07 1.19 1.12 1.19 1.12 1.19 1.64.97 2.46 2.01c.82 1.04 3.06 2.01 3.06 2.01l1.71-.22 1.34-.15 2.01 1.68 3.58-.64 4.02-2.68 6.56 2.53h35.32l-1.71-2.09-1.49-1.94 3.43-4.47 3.43 2.76.07 3.58 5.14 2.76.97-2.38-.97-2.31 2.91-2.16h2.16l7.82-6.78 2.91.82.15 3.06.6 4.02 3.43 4.84 1.71 2.09.89 3.43s1.27 2.98 1.27 3.5-.22 4.25-.22 4.55.07 2.61.07 2.61 1.71 1.34 2.01 1.34 2.91-.37 3.2-.45c.3-.07 1.71-2.68 1.71-2.68s.15-2.91.07-3.43Z"/><path class="cls-1" d="m236.43 230.19-3.73 1.79-3.43 2.98-4.77 1.64-3.43.75-2.98 1.34-1.04 2.24-1.94 1.94-3.58.45-.89-1.49-5.81-.15-2.24 1.79-3.13 1.94s-2.24.3-4.17.6c-1.94.3-2.38 1.19-2.38 1.19l-3.73-1.04-3.87-5.37-2.83-2.83-1.16-3.49-.26.08-2.16 14.39-1.29-1.19s-3.28-2.09-3.68-2.09-3.78.7-3.78.7l-3.48-.6-1.19-2.88-1.99-3.08-2.19-.6-2.68 1.79.6 4.37.89 2.98.3 2.29-4.67 1.39-6.16 2.68-3.08 1.29-2.09 4.77-2.68 1.89-1.69 2.38-2.26.27-.22 1.42-1.19 2.09s-1.39 3.78-1.69 4.47c-.3.7-1.29 4.57-1.29 4.57s-.99 1.89-1.89 2.38c-.89.5-1.79 1.19-2.19 1.39-.4.2-3.48 3.18-3.48 3.18l-.41 1.27 2.4.91 2.78.79 1.79 1.79 2.68 1.69v2.58l-.5 2.29-1.59 1.29-.6 3.08.6 1.89-.1 1.79.2 2.98 1.39 2.29 2.58 10.04 6.26 2.78 2.38.2s1.19.4 1.49.79c.3.4 1.99 1.99 1.99 1.99l2.19 1.49 1.49 1.49 3.48.4 5.86-2.38.89.3.99 4.87.05.03v-26.71l5.51.75 6.41-.6 6.41-1.94 1.94-.6v-2.38s2.09-1.49 2.24-1.94c.15-.45 2.53-2.38 2.53-2.38l3.43 2.24 5.07-1.79 3.13-3.43 3.13-2.98 2.24.6 2.83-1.49 3.87.89 7.3 1.04 4.17-1.64c1.34 0 6.11.45 6.11.45l2.09-.3 8.05-.34v-59.94l-4.17 1.26ZM143.43 382.21l-3.13.89-5.22-.89-2.53-2.53.3-3.13-.15-2.83-5.37-2.83-1.04-.45-3.58-1.49-.89-2.83-1.04-1.94-.75-1.49-1.94.15h-1.49l-.75-2.98v-2.53l-.6-1.94-2.68-.3-4.47-3.43-4.32-.75-2.38.15-3.73.3-1.64-1.34-2.09-3.58-2.68-1.04-2.09 1.19-4.62.15-5.51-.3h-.89s-3.13-2.38-3.13-2.98.75-2.98.75-2.98.45-2.68.15-3.28c-.3-.6-1.34-3.43-1.34-3.43l-1.64-.75-1.94 1.64-3.97 1.99-1.49 1.19-4.27 1.99-1.89 2.29 1.49 3.78s.4.3.1 1.39c-.3 1.09-.6 2.38-.6 2.38l-3.18 2.98s-1.29 2.38-1.59 2.68c-.3.3 0 1.49 0 1.49l1.99 2.19 1.19 2.19.23 4.4 1.76 1.76 7.65 1.89 7.45.1 5.17.6.89-3.38 1.59-2.29 3.28.1 3.87 1.39 2.09 1.79 1.69 2.68 2.98 3.08 4.27 2.29 5.46.1 6.16 4.87h1.59l1.09-2.29 3.58-.1 3.28 3.28 1.79 1.49 2.48-.99 3.48.3 1.69 3.28 3.68 3.97 3.18 1.59 1.09 1.69.41.67 16.31-4.7-9.81-5.96-3.73-.6Z"/><path class="cls-1" d="m57.59 359.01-1.99-2.19s-.3-1.19 0-1.49c.3-.3 1.59-2.68 1.59-2.68l3.18-2.98s.3-1.29.6-2.38c.3-1.09-.1-1.39-.1-1.39l-1.49-3.78 1.89-2.29 4.27-1.99 1.49-1.19-.79-1.89-.5-1.89.6-3.18.99-.99-.3-1.69-2.48-1.69-1.09-1.29-3.68.2s-1.89 1.49-2.19 1.59c-.3.1-2.38-.1-2.38-.1l-2.48-.4-.7-1.59.79-1.29 1.29-2.19 1.49-1.69.6-1.99-.2-1.09-1.39-.6-1.19-1.99.4-.89v-1.19l-2.88-1.79-3.78.89-3.48.1-3.18-1.79-1.79-1.99-2.09-4.17-.7-3.18-3.08-1.59-.42-1.94-.97.15-5.86-.79-2.09.89-5.37 2.29-1.19 1.29-3.28 5.86-1.59 4.87.6 1.89.89 2.88 1.49.6-.7 1.69-.1 1.09.99 1.79-.4 1.39-1.29.89s-1.79-.1-2.29-.1H9.97l-2.09-1.09-1.69-.4s-2.58 1.69-2.88 1.89c-.3.2-2.78 4.37-2.78 4.37l.79 1.59s1.49 1.99 1.79 2.09c.3.1 2.68 1.89 2.68 1.89l2.09 3.38 9.64 5.46 5.17 5.27 6.06 4.17 6.66 2.09 3.58-1.09h2.88v.5s-.5 2.19-.5 2.48 2.78 1.69 2.78 1.69l2.09 1.99 1.09 4.47 1.19 3.78h7.25l2.68-1.49.52.52-.23-4.4-1.19-2.19ZM50.13 277.93l1.09 2.09 2.68.7h1.09l1.49 1.49 3.28.99 2.38-.1 2.48.4 1.99.89 1.89-.3 1.59-1.59 3.88-.1s.89 0 1.29-.3 1.29-.99 1.29-.99l1.59-3.68-.2-2.09 2.38-.1 1.49.89 2.68 1.29 3.28 1.29h.99l1.59-.5s-.1-1.59-.1-2.09-.4-1.99-.4-2.48.79-2.78.79-2.78l.89-1.69s.6-2.38.89-2.68l3.18-3.18.7-3.68 2.68-4.47-.5-1.59s-.99-1.49-.99-1.79.99-3.58.99-3.58l.3-3.88-.79-1.64-1.79-.55s.15-1.69.25-1.84c.1-.15.45-1.24.45-1.24l-.3-1.94.5-1.34 3.18.45.35-.35 1.04-2.09-2.24-.45-1.79.1-.7-1.24-1.99.35-.79-.84.84-1.19-.1-1.24-1.99-.35s-1.09-1.29-1.19-1.54c-.04-.11-.85-.89-1.74-1.74l.05.3-2.19.6-1.19 3.08-2.19 1.19-2.88.99-4.17 10.04-2.98.79 1.89 2.09v2.48l1.69 1.49 1.09.7-.5 1.99-2.78.99-3.18 2.48-3.08.6-1.59-.6-2.29-2.09-2.88-1.59-1.09.7-2.88-1.59-.99-1.39-4.07-.6s-.2.4-.3.99c-.1.6-3.48.5-3.48.5s-.3.1-.4.4c-.05.15-1.17 1.45-2.23 2.67l.54 1.5 1.09 1.09 2.09-.6 1.59-1.09.99-1.29 3.08.99-.7 1.99-1.69 2.38 2.09 1.19 3.08-.79-.2 2.38-1.99 4.07s-1.19 2.98-1.59 3.38-4.27 3.48-4.57 3.97c-.19.32-.9 1.71-1.39 2.69l.1.09.2 3.08Z"/></svg>