<?xml version="1.0" encoding="UTF-8"?>
<svg id="Capa_2" data-name="Capa 2" xmlns="http://www.w3.org/2000/svg" viewBox="0 0 400 200">
  <defs>
    <style>
      .cls-1 {
        fill: none;
      }

      .cls-1, .cls-2, .cls-3 {
        stroke-width: 0px;
      }

      .cls-2 {
        fill: #af067d;
      }

      .cls-3 {
        fill: #faf2fc;
      }
    </style>
  </defs>
  <g id="Capa_1-2" data-name="Capa 1">
    <g>
      <g>
        <g id="VFGZIR.tif">
          <g>
            <path class="cls-2" d="m92.74,75.82c-1.62-6.91-4.8-12.18-11.2-15.14-3.41-1.58-4.69-5.37-3.18-8.66,1.52-3.31,5.32-4.71,8.83-3.14,9.1,4.07,14.54,11.28,17.42,20.61.67,2.16,1.1,4.39,1.61,6.48,2.86-.55,5.65-1.33,8.49-1.6,23.38-2.17,44.18,14.55,47.24,37.81.96,7.27-.36,14.36-1.72,21.42-.7,3.64-1.53,7.31-2.85,10.76-7.08,18.61-20.69,29.36-40.24,32.5-5.38.87-10.77.12-15.95-1.74-.63-.23-1.45-.39-2.05-.18-11.83,4.14-22.96,1.95-33.59-3.85-14.48-7.9-22.99-20.19-25.7-36.4-1.04-6.25-2.23-12.61-2.13-18.89.34-21.35,18.21-39.77,39.5-41.53,5.21-.43,10.25.17,15.51,1.55Zm-11.53,11.32c-1.85.2-3.71.3-5.53.61-15.34,2.63-26.44,17.31-24.75,32.78.38,3.45,1,6.88,1.52,10.32,1.89,12.64,7.92,22.5,19.35,28.67,8.23,4.44,16.68,6.29,25.59,1.81,1.75-.88,3.64-.79,5.39.12,6.54,3.41,13.26,3.13,19.86.56,12.97-5.05,21.59-14.07,24.08-28.11,1.08-6.06,2.65-12.27,2.29-18.31-1.31-22.22-25.3-35.16-44.87-24.55-2.94,1.6-5.56,1.63-8.46-.03-4.45-2.54-9.29-3.84-14.46-3.88Z"/>
            <path class="cls-2" d="m137.32,22.78c5.99,0,11.62,1.42,16.9,4.26,2.58,1.39,3.79,3.49,3.77,6.43-.21,26.6-28.77,43.18-51.98,30.16-2.42-1.36-3.57-3.41-3.57-6.19-.02-19.18,15.65-34.76,34.89-34.66Zm-21.32,30.84c12,4.72,26.58-3.35,28.37-16.5-11.45-4.48-26.06,2.71-28.37,16.5Z"/>
          </g>
        </g>
        <rect class="cls-1" width="200" height="200"/>
      </g>
      <g>
        <g id="VFGZIR.tif-2" data-name="VFGZIR.tif">
          <g>
            <path class="cls-3" d="m292.74,75.82c-1.62-6.91-4.8-12.18-11.2-15.14-3.41-1.58-4.69-5.37-3.18-8.66,1.52-3.31,5.32-4.71,8.83-3.14,9.1,4.07,14.54,11.28,17.42,20.61.67,2.16,1.1,4.39,1.61,6.48,2.86-.55,5.65-1.33,8.49-1.6,23.38-2.17,44.18,14.55,47.24,37.81.96,7.27-.36,14.36-1.72,21.42-.7,3.64-1.53,7.31-2.85,10.76-7.08,18.61-20.69,29.36-40.24,32.5-5.38.87-10.77.12-15.95-1.74-.63-.23-1.45-.39-2.05-.18-11.83,4.14-22.96,1.95-33.59-3.85-14.48-7.9-22.99-20.19-25.7-36.4-1.04-6.25-2.23-12.61-2.13-18.89.34-21.35,18.21-39.77,39.5-41.53,5.21-.43,10.25.17,15.51,1.55Zm-11.53,11.32c-1.85.2-3.71.3-5.53.61-15.34,2.63-26.44,17.31-24.75,32.78.38,3.45,1,6.88,1.52,10.32,1.89,12.64,7.92,22.5,19.35,28.67,8.23,4.44,16.68,6.29,25.59,1.81,1.75-.88,3.64-.79,5.39.12,6.54,3.41,13.26,3.13,19.86.56,12.97-5.05,21.59-14.07,24.08-28.11,1.08-6.06,2.65-12.27,2.29-18.31-1.31-22.22-25.3-35.16-44.87-24.55-2.94,1.6-5.56,1.63-8.46-.03-4.45-2.54-9.29-3.84-14.46-3.88Z"/>
            <path class="cls-3" d="m337.32,22.78c5.99,0,11.62,1.42,16.9,4.26,2.58,1.39,3.79,3.49,3.77,6.43-.21,26.6-28.77,43.18-51.98,30.16-2.42-1.36-3.57-3.41-3.57-6.19-.02-19.18,15.65-34.76,34.89-34.66Zm-21.32,30.84c12,4.72,26.58-3.35,28.37-16.5-11.45-4.48-26.06,2.71-28.37,16.5Z"/>
          </g>
        </g>
        <rect class="cls-1" x="200" width="200" height="200"/>
      </g>
    </g>
  </g>
</svg>