<?xml version="1.0" encoding="UTF-8"?>
<svg id="Capa_2" data-name="Capa 2" xmlns="http://www.w3.org/2000/svg" viewBox="0 0 158.02 195.95">
  <defs>
    <style>
      .cls-1 {
        fill: #333333;
        stroke-width: 2px;
      
      }
    </style>
  </defs>
  <g id="Capa_1-2" data-name="Capa 1">
    <g id="VFGZIR.tif">
      <g>
        <path class="cls-1" d="m69.8,67.29c-2.05-8.77-6.09-15.45-14.21-19.21-4.33-2-5.95-6.81-4.03-10.98,1.93-4.2,6.75-5.98,11.2-3.99,11.54,5.17,18.45,14.31,22.1,26.15.85,2.74,1.4,5.57,2.05,8.22,3.63-.7,7.17-1.69,10.78-2.03,29.66-2.75,56.05,18.46,59.93,47.97,1.21,9.23-.46,18.21-2.18,27.18-.89,4.62-1.94,9.27-3.61,13.65-8.98,23.61-26.25,37.24-51.05,41.24-6.82,1.1-13.66.15-20.24-2.21-.8-.29-1.84-.5-2.6-.23-15.01,5.25-29.14,2.48-42.62-4.88-18.37-10.02-29.17-25.61-32.6-46.18C1.39,134.06-.12,125.99,0,118.02c.44-27.09,23.1-50.45,50.11-52.68,6.61-.55,13,.22,19.68,1.96Zm-14.63,14.36c-2.34.25-4.7.38-7.02.77-19.46,3.34-33.54,21.97-31.4,41.59.48,4.38,1.27,8.73,1.92,13.09,2.4,16.03,10.05,28.55,24.55,36.37,10.44,5.63,21.17,7.99,32.47,2.3,2.22-1.12,4.61-1,6.83.15,8.29,4.33,16.82,3.97,25.2.71,16.46-6.41,27.39-17.85,30.55-35.67,1.36-7.69,3.36-15.56,2.91-23.23-1.66-28.19-32.1-44.61-56.92-31.15-3.74,2.03-7.06,2.07-10.74-.03-5.64-3.22-11.78-4.87-18.35-4.92Z"/>
        <path class="cls-1" d="m126.36,0c7.6,0,14.74,1.8,21.44,5.41,3.27,1.76,4.81,4.43,4.78,8.16-.26,33.75-36.5,54.78-65.95,38.27-3.07-1.72-4.53-4.33-4.53-7.85C82.07,19.64,101.96-.13,126.36,0Zm-27.05,39.13c15.23,5.99,33.72-4.25,36-20.93-14.53-5.69-33.06,3.44-36,20.93Z"/>
      </g>
    </g>
  </g>
</svg>