<svg xmlns="http://www.w3.org/2000/svg" viewBox="0 0 400 200"><defs><style>.cls-1{fill:none}.cls-1,.cls-2,.cls-3{stroke-width:0}.cls-2{fill:#7600db}.cls-3{fill:#faf2fc}</style></defs><path class="cls-1" d="M0 0h200v200H0zM200 0h200v200H200z"/><path class="cls-2" d="M138.25 86.22c-19.23 0-34.83 15.59-34.83 34.83s15.6 34.83 34.83 34.83 34.83-15.6 34.83-34.83-15.6-34.83-34.83-34.83m22.46 42.94h-14.35v14.35c0 1.84-1.49 3.33-3.33 3.33h-9.57c-1.84 0-3.33-1.49-3.33-3.33v-14.35h-14.36c-1.83 0-3.32-1.49-3.32-3.33v-9.57c0-1.84 1.49-3.33 3.32-3.33h14.36V98.58c0-1.84 1.49-3.33 3.33-3.33h9.57c1.83 0 3.33 1.49 3.33 3.33v14.35h14.35c1.83 0 3.33 1.49 3.33 3.33v9.57c0 1.84-1.49 3.33-3.33 3.33"/><path class="cls-2" d="M96.43 121.05c0-23.1 18.72-41.82 41.82-41.82 4.54 0 8.91.74 13.01 2.08-.44-20.62-15.54-37.19-34.11-37.19-11.62 0-21.89 6.49-28.05 16.39-6.17-9.9-16.43-16.39-28.05-16.39-18.85 0-34.13 17.07-34.13 38.12 0 8.32 2.39 16.02 6.44 22.29 0 0 19.48 32.14 55.74 48.45a116.67 116.67 0 0 0 14.83-8.04c-4.72-6.77-7.5-15-7.5-23.88"/><path class="cls-3" d="M338.25 86.22c-19.23 0-34.83 15.59-34.83 34.83s15.6 34.83 34.83 34.83 34.83-15.6 34.83-34.83-15.6-34.83-34.83-34.83m22.46 42.94h-14.35v14.35c0 1.84-1.49 3.33-3.33 3.33h-9.57c-1.84 0-3.33-1.49-3.33-3.33v-14.35h-14.36c-1.83 0-3.32-1.49-3.32-3.33v-9.57c0-1.84 1.49-3.33 3.32-3.33h14.36V98.58c0-1.84 1.49-3.33 3.33-3.33h9.57c1.83 0 3.33 1.49 3.33 3.33v14.35h14.35c1.83 0 3.33 1.49 3.33 3.33v9.57c0 1.84-1.49 3.33-3.33 3.33"/><path class="cls-3" d="M296.43 121.05c0-23.1 18.72-41.82 41.82-41.82 4.54 0 8.91.74 13.01 2.08-.44-20.62-15.54-37.19-34.11-37.19-11.62 0-21.89 6.49-28.05 16.39-6.17-9.9-16.43-16.39-28.05-16.39-18.85 0-34.13 17.07-34.13 38.12 0 8.32 2.39 16.02 6.44 22.29 0 0 19.48 32.14 55.74 48.45a116.67 116.67 0 0 0 14.83-8.04c-4.72-6.77-7.5-15-7.5-23.88"/></svg>