<svg xmlns="http://www.w3.org/2000/svg" viewBox="0 0 346.16 111.76"><defs><style>.cls-1,.cls-2{fill:#af067d;stroke-width:0}.cls-2{fill:#faf2fc}</style></defs><path class="cls-1" d="M111.33 42.1C92.1 42.1 76.5 57.69 76.5 76.93s15.6 34.83 34.83 34.83 34.83-15.6 34.83-34.83-15.6-34.83-34.83-34.83m22.46 42.94h-14.35v14.35c0 1.84-1.49 3.33-3.33 3.33h-9.57c-1.84 0-3.33-1.49-3.33-3.33V85.04H88.85c-1.83 0-3.32-1.49-3.32-3.33v-9.57c0-1.84 1.49-3.33 3.32-3.33h14.36V54.46c0-1.84 1.49-3.33 3.33-3.33h9.57c1.83 0 3.33 1.49 3.33 3.33v14.35h14.35c1.83 0 3.33 1.49 3.33 3.33v9.57c0 1.84-1.49 3.33-3.33 3.33"/><path class="cls-1" d="M69.51 76.93c0-23.1 18.72-41.82 41.82-41.82 4.54 0 8.91.74 13.01 2.08C123.9 16.57 108.8 0 90.23 0 78.61 0 68.34 6.49 62.18 16.39 56.02 6.49 45.75 0 34.13 0 15.28 0 0 17.07 0 38.12c0 8.32 2.39 16.02 6.44 22.29 0 0 19.48 32.14 55.74 48.45a116.67 116.67 0 0 0 14.83-8.04c-4.72-6.77-7.5-15-7.5-23.88"/><path class="cls-2" d="M311.33 42.1c-19.23 0-34.83 15.59-34.83 34.83s15.6 34.83 34.83 34.83 34.83-15.6 34.83-34.83-15.6-34.83-34.83-34.83m22.46 42.94h-14.35v14.35c0 1.84-1.49 3.33-3.33 3.33h-9.57c-1.84 0-3.33-1.49-3.33-3.33V85.04h-14.36c-1.83 0-3.32-1.49-3.32-3.33v-9.57c0-1.84 1.49-3.33 3.32-3.33h14.36V54.46c0-1.84 1.49-3.33 3.33-3.33h9.57c1.83 0 3.33 1.49 3.33 3.33v14.35h14.35c1.83 0 3.33 1.49 3.33 3.33v9.57c0 1.84-1.49 3.33-3.33 3.33"/><path class="cls-2" d="M269.51 76.93c0-23.1 18.72-41.82 41.82-41.82 4.54 0 8.91.74 13.01 2.08C323.9 16.57 308.8 0 290.23 0c-11.62 0-21.89 6.49-28.05 16.39C256.01 6.49 245.75 0 234.13 0 215.28 0 200 17.07 200 38.12c0 8.32 2.39 16.02 6.44 22.29 0 0 19.48 32.14 55.74 48.45a116.67 116.67 0 0 0 14.83-8.04c-4.72-6.77-7.5-15-7.5-23.88"/></svg>