<svg xmlns="http://www.w3.org/2000/svg" viewBox="0 0 400 200"><defs><style>.cls-1{fill:none}.cls-1,.cls-2,.cls-3{stroke-width:0}.cls-2{fill:#7600db}.cls-3{fill:#faf2fc}</style></defs><path class="cls-1" d="M0 0h200v200H0zM200 0h200v200H200z"/><path class="cls-2" d="M129.71 83.43c-10.89 2.15-15.8 12.88-23.01 12.88-7.06-.15-31.44-5.52-50.61-33.9 0 0-5.52 45.71 21.47 58.29 0 0-12.73 11.81-34.67 8.74 0 0 3.99 22.7 11.81 29.76 0 0 12.73-14.11 22.39-14.73 9.51-.46 33.74 2.76 42.03-13.95 8.13-16.72 4.6-34.51 25.46-38.19 0 0-3.99-11.04-14.88-8.89M136 67.79s-4.6-9.36-15.64-6.9c0 0 6.13 11.5 15.64 6.9M156.7 58.28s-11.66 5.98-7.06 15.64c0 0 9.51-4.6 7.06-15.64M149.95 45.7s-9.97 8.44-3.37 16.72c0 0 8.28-6.44 3.37-16.72"/><path class="cls-2" d="M138.76 99.08c-.46 3.53-.31 6.44.15 10.89.15 1.23 1.07 1.99 2.3 1.99h.31c1.23-.15 2.15-1.23 2-2.45-.46-5.06-.46-7.82.3-12.58-2.15.61-3.68 1.38-5.06 2.15M122.04 73s8.44 9.97 16.72 3.22c0 0-6.44-8.13-16.72-3.22M86.91 55.83c-.15 10.28-2.76 20.71-4.45 26.53 10.58 7.06 19.33 8.74 22.85 9.2 1.38-19.17-18.4-35.74-18.4-35.74M139.52 58.28c-1.23 1.53-2.3 2.92-2.91 3.68 1.23 1.99 5.52 10.27 5.06 19.63 1.69 1.07 3.07 2.45 4.14 3.83 2.3-13.5-5.37-25.77-5.68-26.23-.15-.46-.31-.77-.61-.92M135.54 40.8s-9.2 8.13-1.07 17.79c0-.15 9.66-7.52 1.07-17.79"/><path class="cls-3" d="M329.71 83.43c-10.89 2.15-15.8 12.88-23.01 12.88-7.06-.15-31.44-5.52-50.61-33.9 0 0-5.52 45.71 21.47 58.29 0 0-12.73 11.81-34.67 8.74 0 0 3.99 22.7 11.81 29.76 0 0 12.73-14.11 22.39-14.73 9.51-.46 33.74 2.76 42.03-13.95 8.13-16.72 4.6-34.51 25.46-38.19 0 0-3.99-11.04-14.88-8.89M336 67.79s-4.6-9.36-15.64-6.9c0 0 6.13 11.5 15.64 6.9M356.7 58.28s-11.66 5.98-7.06 15.64c0 0 9.51-4.6 7.06-15.64M349.95 45.7s-9.97 8.44-3.37 16.72c0 0 8.28-6.44 3.37-16.72"/><path class="cls-3" d="M338.76 99.08c-.46 3.53-.31 6.44.15 10.89.15 1.23 1.07 1.99 2.3 1.99h.31c1.23-.15 2.15-1.23 2-2.45-.46-5.06-.46-7.82.3-12.58-2.15.61-3.68 1.38-5.06 2.15M322.04 73s8.44 9.97 16.72 3.22c0 0-6.44-8.13-16.72-3.22M286.91 55.83c-.15 10.28-2.76 20.71-4.45 26.53 10.58 7.06 19.33 8.74 22.85 9.2 1.38-19.17-18.4-35.74-18.4-35.74M339.52 58.28c-1.23 1.53-2.3 2.92-2.91 3.68 1.23 1.99 5.52 10.27 5.06 19.63 1.69 1.07 3.07 2.45 4.14 3.83 2.3-13.5-5.37-25.77-5.68-26.23-.15-.46-.31-.77-.61-.92M335.54 40.8s-9.2 8.13-1.07 17.79c0-.15 9.66-7.52 1.07-17.79"/></svg>