<?xml version="1.0" encoding="UTF-8"?>
<svg id="Capa_2" data-name="Capa 2" xmlns="http://www.w3.org/2000/svg" viewBox="0 0 400 200">
  <defs>
    <style>
      .cls-1 {
        fill: none;
      }

      .cls-1, .cls-2, .cls-3 {
        stroke-width: 0px;
      }

      .cls-2 {
        fill: #af067d;
      }

      .cls-3 {
        fill: #faf2fc;
      }
    </style>
  </defs>
  <g id="Capa_1-2" data-name="Capa 1">
    <g>
      <rect class="cls-1" width="200" height="200"/>
      <g>
        <rect class="cls-1" x="200" width="200" height="200"/>
        <g id="m6MjhD.tif">
          <path class="cls-3" d="m328.45,35.32h2.06c2.13.97,4.26.94,6.39,0h1.44c3.07,1.1,3.63,1.1,6.8,0,.41,0,.82,0,1.24,0,.12.06.23.15.36.17,2.56.34,4.34,1.8,5.24,4.11.52,1.35,1.24,1.79,2.6,1.97,2.65.35,4.8,1.62,5.55,4.36.41,1.47.62,3.04.62,4.56.04,23.49.03,46.97.03,70.46,0,.41-.09.85.03,1.23.19.6.36,1.36.81,1.69,1.56,1.15,2.53,2.65,3.11,4.45v2.27c-.72,1.73-1.13,3.42-.55,5.35.33,1.09.33,2.46-.02,3.55-.61,1.93-.11,3.61.56,5.33v1.65c-.06.16-.15.3-.18.47-.48,2.48-1.87,4.35-4.2,5.21-1.34.49-1.66,1.21-1.83,2.46-.46,3.39-2.39,5.32-5.78,5.91-1.04.18-2.11.27-3.17.27-22.96.02-45.91.01-68.87.01-.99,0-2.01-.1-2.97.07-.62.11-1.31.49-1.71.96-2.25,2.67-4.69,3.4-8.08,2.48-.89-.24-1.96-.34-2.82-.08-1.68.49-3.26.38-4.85-.14-1.33-.44-2.6-.45-3.92.05-4.15,1.56-7.55-1.17-8.51-4.14-.31-.95-.79-1.3-1.8-1.38-3.7-.32-5.82-2.27-6.5-5.91-.2-1.07-.26-2.18-.26-3.28-.01-22.51-.01-45.02,0-67.53,0-1,.05-1.99.06-2.99.02-1.38-.34-2.49-1.58-3.35-1.38-.95-2.11-2.4-2.32-4.09-.03-.23-.12-.45-.18-.67,0-.14,0-.27,0-.41.26-1.4.66-2.79.76-4.2.13-1.91,0-3.84.04-5.76.04-1.46.06-2.86-.32-4.33-.86-3.37.19-6.04,3.1-7.52,1.67-.85,2.49-1.76,2.83-3.71.63-3.59,3.68-5.58,7.71-5.58,23.9,0,47.81,0,71.71,0,.41,0,.85.07,1.23-.04.54-.16,1.24-.32,1.52-.72,1.15-1.67,2.74-2.62,4.61-3.19Zm25.56,12.67c-.93.49-1.21,1.12-1.22,1.87-.02,1.51.03,3.02-.02,4.53-.07,2.14-1.32,3.28-3.42,3.23-1.93-.05-3.03-1.28-3.05-3.51-.03-3.37,0-6.73-.01-10.1,0-.48,0-.98-.12-1.43-.05-.2-.4-.42-.64-.45-.16-.02-.44.27-.51.47-.1.32-.07.68-.07,1.02,0,3.47.02,6.94,0,10.41-.02,2.18-1.18,3.51-3.03,3.58-2.28.09-3.54-1.13-3.56-3.53-.03-3.47-.03-6.94-.04-10.41,0-.37,0-.77-.11-1.12-.06-.19-.35-.44-.54-.44-.19,0-.5.24-.56.43-.12.42-.15.88-.15,1.32-.01,3.5.03,7.01-.03,10.51-.03,2.06-1.2,3.2-3.1,3.23-2.03.03-3.25-1-3.31-3.1-.11-3.57-.07-7.14-.09-10.72,0-.34.05-.71-.06-1.02-.09-.26-.38-.46-.58-.69-.21.21-.5.39-.6.65-.11.31-.07.68-.07,1.02,0,4.64.03,9.28-.01,13.92-.03,3.19-1.85,4.46-4.91,3.54-.23-.07-.45-.18-.68-.23-1.98-.39-3.95-.83-5.95-1.12-.55-.08-1.16.29-1.74.45.2.41.35.55.53.63,6.01,2.95,8.69,7.94,8.8,14.45.05,2.95-.09,5.91-.08,8.86,0,6.77.04,13.54.06,20.3.01,4.23,0,8.45,0,12.68,0,.37,0,.74,0,1.17,2.93.17,5.26-.7,6.83-3.13.83-1.3,1.58-2.65,2.29-4.02.86-1.63,2.07-2.57,3.99-2.55,4.69.05,8.56,3.91,8.6,8.64.01,1.67,0,3.35,0,5.15,1.88,0,3.93,0,5.98,0q1.37,0,1.37-1.37c0-23.71,0-47.42,0-71.13,0-.61-.1-1.22-.17-2.02Zm-100.03,110.17c.88-.89,1.17-1.58,1.15-2.59-.07-3.36-.07-6.73.07-10.09.08-2.01,1.38-3.06,3.31-3.04,1.87.02,3.07,1.09,3.14,3.09.11,3.4.07,6.8.1,10.2,0,.51,0,1.04.09,1.54.05.27.34.49.51.73.24-.23.59-.42.69-.71.13-.37.07-.81.07-1.23,0-3.23,0-6.46,0-9.69,0-.51.05-1.03.15-1.53.32-1.56,1.37-2.38,3-2.41,1.7-.03,2.87.76,3.19,2.31.18.9.19,1.84.2,2.76.02,3.02-.03,6.04,0,9.07,0,.53-.26,1.45.72,1.38.87-.06.54-.91.55-1.41.03-4.5.02-9,.02-13.5,0-4.08,1.75-5.25,5.66-4.01,1.85.59,3.8.87,5.72,1.21.71.13,1.42-.04,1.9-.87-.95-.58-1.85-1.12-2.74-1.68-3.73-2.39-6.04-5.72-6.29-10.19-.23-4.15-.24-8.31-.25-12.46,0-10.72.04-21.44.08-32.15,0-.86-.29-1.24-1.21-1.23-2.38.02-4.28.93-5.56,2.95-.9,1.42-1.72,2.89-2.53,4.36-1.06,1.92-2.52,2.67-4.69,2.35-4.84-.71-7.99-4.48-7.84-9.4.04-1.4.17-2.8.27-4.25h-7.53c0,.52,0,.95,0,1.39,0,23.71,0,47.41,0,71.12,0,.27-.07.57.02.82.13.36.32.92.57.98.71.15.69-.49.7-.96.02-1.44-.02-2.89.02-4.33.03-1.04.19-2.06,1.03-2.82.72-.64,1.42-1.28,2.29-2.07.89.93,1.86,1.82,2.66,2.83.37.47.61,1.18.62,1.78.03,3.4-.03,6.8-.04,10.2,0,.43.09.86.17,1.54Zm68.48-104.91c0-1.88,0-3.87,0-5.86q0-1.45-1.45-1.45c-22.67,0-45.35,0-68.02,0-.96,0-1.92-.02-2.88-.07-.91-.04-1.48.46-2.15,1.24.71.07,1.21.16,1.71.17,1.61.03,3.23-.05,4.84.05,1.97.12,3.05,1.24,3.1,3.03.05,2.01-.88,3.1-2.93,3.4-.47.07-.96.08-1.44.08-3.33,0-6.66,0-10,.01-.49,0-1.19-.1-1.13.64.02.24.74.57,1.16.59,1.27.08,2.54.03,3.81.03,2.34,0,4.67-.03,7.01.02,1.93.05,3.08.9,3.42,2.38.54,2.39-.74,4.13-3.2,4.18-3.5.07-7.01.03-10.51.05-.41,0-.83,0-1.22.11-.21.06-.52.36-.49.5.05.24.28.58.5.64.45.12.95.12,1.42.12,3.47.02,6.94-.01,10.41.04,2.33.04,3.63,1.77,3.13,4.04-.35,1.61-1.5,2.42-3.57,2.43-3.37.03-6.73,0-10.1.01-.41,0-.84-.01-1.22.1-.23.07-.54.35-.56.56-.01.18.3.48.53.57.27.11.61.07.91.07,2.44,0,4.88,0,7.32,0,2.37,0,4.74-.02,7.11.04,2.79.07,4.03,1.8,3.31,4.49-.08.3-.2.59-.26.89-.4,2.05-.82,4.09-1.16,6.15-.11.67.02,1.35.81,1.69.34-.62.64-1.19.97-1.75,1.93-3.27,4.65-5.63,8.32-6.63,1.93-.53,3.98-.85,5.98-.88,5.29-.07,10.58.11,15.86.12,8.59,0,17.17-.06,25.76-.07.7,0,.98-.14.94-.92-.14-3.02-1.53-5.2-4.22-6.58-1.04-.53-2.08-1.07-3.04-1.73-2.11-1.45-2.83-3.46-2.23-5.93.89-3.69,4.1-6.4,7.89-6.58,1.81-.08,3.63-.01,5.57-.01Zm-44.81,100.94h2.36c22.99,0,45.97,0,68.96,0,.51,0,1.03,0,1.54-.07.54-.08,1.47.33,1.47-.62,0-.99-.98-.63-1.55-.66-1.81-.1-3.64,0-5.45-.19-1.67-.17-2.51-1.28-2.56-2.95-.05-1.76.74-2.88,2.36-3.25.6-.14,1.22-.18,1.84-.18,3.4-.02,6.8,0,10.2-.01.5,0,1.18.07,1.1-.68-.03-.23-.69-.55-1.07-.56-3.33-.04-6.67-.02-10-.03-.68,0-1.38-.06-2.05-.19-1.18-.24-1.95-.99-2.27-2.14-.64-2.26.66-4.16,3.01-4.23,3.54-.1,7.08-.07,10.61-.1.41,0,.84.02,1.23-.09.23-.06.55-.36.54-.55,0-.22-.28-.52-.51-.61-.3-.12-.67-.08-1.02-.08-3.5,0-7.01.01-10.51,0-2.13-.01-3.31-1.04-3.44-2.9-.16-2.32,1.03-3.63,3.4-3.65,3.44-.03,6.87,0,10.31,0,.34,0,.71.07,1.02-.04.3-.1.53-.39.79-.6-.25-.21-.48-.48-.77-.6-.23-.1-.54-.03-.82-.03-4.47,0-8.93.04-13.4-.01-4.09-.05-5.16-1.74-3.94-5.63.61-1.94.85-4.01,1.15-6.04.07-.51-.3-1.07-.46-1.61-.12.01-.23.02-.35.03-.64,1-1.28,2.01-1.93,3.01-2.06,3.2-4.92,5.27-8.7,5.83-2.06.3-4.17.38-6.26.38-12.13.01-24.25-.03-36.38-.05-1.2,0-2.41-.01-3.61.01-.5.01-.94.11-.91.81.11,2.38.8,4.48,2.9,5.84,1.47.95,2.99,1.81,4.53,2.65,1.65.9,2.43,2.22,2.33,4.11-.2,3.74-2.71,7.1-6.35,7.97-1.66.4-3.46.26-5.2.31-.7.02-1.4-.08-2.14-.13v7.56Zm4-72.58c-.02.39-.05.66-.05.93,0,11.65,0,23.3-.02,34.95,0,.82.23,1.06,1.04,1.05,4.98-.05,9.96-.08,14.94-.08,6.56,0,13.12.02,19.68.08.98,0,1.28-.26,1.28-1.27-.03-11.37-.02-22.75-.02-34.12q0-1.61-1.62-1.61c-10.34.02-20.68.05-31.03.07-1.37,0-2.73,0-4.21,0Z"/>
        </g>
      </g>
      <g id="m6MjhD.tif-2" data-name="m6MjhD.tif">
        <path class="cls-2" d="m128.45,35.32h2.06c2.13.97,4.26.94,6.39,0h1.44c3.07,1.1,3.63,1.1,6.8,0,.41,0,.82,0,1.24,0,.12.06.23.15.36.17,2.56.34,4.34,1.8,5.24,4.11.52,1.35,1.24,1.79,2.6,1.97,2.65.35,4.8,1.62,5.55,4.36.41,1.47.62,3.04.62,4.56.04,23.49.03,46.97.03,70.46,0,.41-.09.85.03,1.23.19.6.36,1.36.81,1.69,1.56,1.15,2.53,2.65,3.11,4.45v2.27c-.72,1.73-1.13,3.42-.55,5.35.33,1.09.33,2.46-.02,3.55-.61,1.93-.11,3.61.56,5.33v1.65c-.06.16-.15.3-.18.47-.48,2.48-1.87,4.35-4.2,5.21-1.34.49-1.66,1.21-1.83,2.46-.46,3.39-2.39,5.32-5.78,5.91-1.04.18-2.11.27-3.17.27-22.96.02-45.91.01-68.87.01-.99,0-2.01-.1-2.97.07-.62.11-1.31.49-1.71.96-2.25,2.67-4.69,3.4-8.08,2.48-.89-.24-1.96-.34-2.82-.08-1.68.49-3.26.38-4.85-.14-1.33-.44-2.6-.45-3.92.05-4.15,1.56-7.55-1.17-8.51-4.14-.31-.95-.79-1.3-1.8-1.38-3.7-.32-5.82-2.27-6.5-5.91-.2-1.07-.26-2.18-.26-3.28-.01-22.51-.01-45.02,0-67.53,0-1,.05-1.99.06-2.99.02-1.38-.34-2.49-1.58-3.35-1.38-.95-2.11-2.4-2.32-4.09-.03-.23-.12-.45-.18-.67,0-.14,0-.27,0-.41.26-1.4.66-2.79.76-4.2.13-1.91,0-3.84.04-5.76.04-1.46.06-2.86-.32-4.33-.86-3.37.19-6.04,3.1-7.52,1.67-.85,2.49-1.76,2.83-3.71.63-3.59,3.68-5.58,7.71-5.58,23.9,0,47.81,0,71.71,0,.41,0,.85.07,1.23-.04.54-.16,1.24-.32,1.52-.72,1.15-1.67,2.74-2.62,4.61-3.19Zm25.56,12.67c-.93.49-1.21,1.12-1.22,1.87-.02,1.51.03,3.02-.02,4.53-.07,2.14-1.32,3.28-3.42,3.23-1.93-.05-3.03-1.28-3.05-3.51-.03-3.37,0-6.73-.01-10.1,0-.48,0-.98-.12-1.43-.05-.2-.4-.42-.64-.45-.16-.02-.44.27-.51.47-.1.32-.07.68-.07,1.02,0,3.47.02,6.94,0,10.41-.02,2.18-1.18,3.51-3.03,3.58-2.28.09-3.54-1.13-3.56-3.53-.03-3.47-.03-6.94-.04-10.41,0-.37,0-.77-.11-1.12-.06-.19-.35-.44-.54-.44-.19,0-.5.24-.56.43-.12.42-.15.88-.15,1.32-.01,3.5.03,7.01-.03,10.51-.03,2.06-1.2,3.2-3.1,3.23-2.03.03-3.25-1-3.31-3.1-.11-3.57-.07-7.14-.09-10.72,0-.34.05-.71-.06-1.02-.09-.26-.38-.46-.58-.69-.21.21-.5.39-.6.65-.11.31-.07.68-.07,1.02,0,4.64.03,9.28-.01,13.92-.03,3.19-1.85,4.46-4.91,3.54-.23-.07-.45-.18-.68-.23-1.98-.39-3.95-.83-5.95-1.12-.55-.08-1.16.29-1.74.45.2.41.35.55.53.63,6.01,2.95,8.69,7.94,8.8,14.45.05,2.95-.09,5.91-.08,8.86,0,6.77.04,13.54.06,20.3.01,4.23,0,8.45,0,12.68,0,.37,0,.74,0,1.17,2.93.17,5.26-.7,6.83-3.13.83-1.3,1.58-2.65,2.29-4.02.86-1.63,2.07-2.57,3.99-2.55,4.69.05,8.56,3.91,8.6,8.64.01,1.67,0,3.35,0,5.15,1.88,0,3.93,0,5.98,0q1.37,0,1.37-1.37c0-23.71,0-47.42,0-71.13,0-.61-.1-1.22-.17-2.02Zm-100.03,110.17c.88-.89,1.17-1.58,1.15-2.59-.07-3.36-.07-6.73.07-10.09.08-2.01,1.38-3.06,3.31-3.04,1.87.02,3.07,1.09,3.14,3.09.11,3.4.07,6.8.1,10.2,0,.51,0,1.04.09,1.54.05.27.34.49.51.73.24-.23.59-.42.69-.71.13-.37.07-.81.07-1.23,0-3.23,0-6.46,0-9.69,0-.51.05-1.03.15-1.53.32-1.56,1.37-2.38,3-2.41,1.7-.03,2.87.76,3.19,2.31.18.9.19,1.84.2,2.76.02,3.02-.03,6.04,0,9.07,0,.53-.26,1.45.72,1.38.87-.06.54-.91.55-1.41.03-4.5.02-9,.02-13.5,0-4.08,1.75-5.25,5.66-4.01,1.85.59,3.8.87,5.72,1.21.71.13,1.42-.04,1.9-.87-.95-.58-1.85-1.12-2.74-1.68-3.73-2.39-6.04-5.72-6.29-10.19-.23-4.15-.24-8.31-.25-12.46,0-10.72.04-21.44.08-32.15,0-.86-.29-1.24-1.21-1.23-2.38.02-4.28.93-5.56,2.95-.9,1.42-1.72,2.89-2.53,4.36-1.06,1.92-2.52,2.67-4.69,2.35-4.84-.71-7.99-4.48-7.84-9.4.04-1.4.17-2.8.27-4.25h-7.53c0,.52,0,.95,0,1.39,0,23.71,0,47.41,0,71.12,0,.27-.07.57.02.82.13.36.32.92.57.98.71.15.69-.49.7-.96.02-1.44-.02-2.89.02-4.33.03-1.04.19-2.06,1.03-2.82.72-.64,1.42-1.28,2.29-2.07.89.93,1.86,1.82,2.66,2.83.37.47.61,1.18.62,1.78.03,3.4-.03,6.8-.04,10.2,0,.43.09.86.17,1.54ZM122.48,53.25c0-1.88,0-3.87,0-5.86q0-1.45-1.45-1.45c-22.67,0-45.35,0-68.02,0-.96,0-1.92-.02-2.88-.07-.91-.04-1.48.46-2.15,1.24.71.07,1.21.16,1.71.17,1.61.03,3.23-.05,4.84.05,1.97.12,3.05,1.24,3.1,3.03.05,2.01-.88,3.1-2.93,3.4-.47.07-.96.08-1.44.08-3.33,0-6.66,0-10,.01-.49,0-1.19-.1-1.13.64.02.24.74.57,1.16.59,1.27.08,2.54.03,3.81.03,2.34,0,4.67-.03,7.01.02,1.93.05,3.08.9,3.42,2.38.54,2.39-.74,4.13-3.2,4.18-3.5.07-7.01.03-10.51.05-.41,0-.83,0-1.22.11-.21.06-.52.36-.49.5.05.24.28.58.5.64.45.12.95.12,1.42.12,3.47.02,6.94-.01,10.41.04,2.33.04,3.63,1.77,3.13,4.04-.35,1.61-1.5,2.42-3.57,2.43-3.37.03-6.73,0-10.1.01-.41,0-.84-.01-1.22.1-.23.07-.54.35-.56.56-.01.18.3.48.53.57.27.11.61.07.91.07,2.44,0,4.88,0,7.32,0,2.37,0,4.74-.02,7.11.04,2.79.07,4.03,1.8,3.31,4.49-.08.3-.2.59-.26.89-.4,2.05-.82,4.09-1.16,6.15-.11.67.02,1.35.81,1.69.34-.62.64-1.19.97-1.75,1.93-3.27,4.65-5.63,8.32-6.63,1.93-.53,3.98-.85,5.98-.88,5.29-.07,10.58.11,15.86.12,8.59,0,17.17-.06,25.76-.07.7,0,.98-.14.94-.92-.14-3.02-1.53-5.2-4.22-6.58-1.04-.53-2.08-1.07-3.04-1.73-2.11-1.45-2.83-3.46-2.23-5.93.89-3.69,4.1-6.4,7.89-6.58,1.81-.08,3.63-.01,5.57-.01Zm-44.81,100.94h2.36c22.99,0,45.97,0,68.96,0,.51,0,1.03,0,1.54-.07.54-.08,1.47.33,1.47-.62,0-.99-.98-.63-1.55-.66-1.81-.1-3.64,0-5.45-.19-1.67-.17-2.51-1.28-2.56-2.95-.05-1.76.74-2.88,2.36-3.25.6-.14,1.22-.18,1.84-.18,3.4-.02,6.8,0,10.2-.01.5,0,1.18.07,1.1-.68-.03-.23-.69-.55-1.07-.56-3.33-.04-6.67-.02-10-.03-.68,0-1.38-.06-2.05-.19-1.18-.24-1.95-.99-2.27-2.14-.64-2.26.66-4.16,3.01-4.23,3.54-.1,7.08-.07,10.61-.1.41,0,.84.02,1.23-.09.23-.06.55-.36.54-.55,0-.22-.28-.52-.51-.61-.3-.12-.67-.08-1.02-.08-3.5,0-7.01.01-10.51,0-2.13-.01-3.31-1.04-3.44-2.9-.16-2.32,1.03-3.63,3.4-3.65,3.44-.03,6.87,0,10.31,0,.34,0,.71.07,1.02-.04.3-.1.53-.39.79-.6-.25-.21-.48-.48-.77-.6-.23-.1-.54-.03-.82-.03-4.47,0-8.93.04-13.4-.01-4.09-.05-5.16-1.74-3.94-5.63.61-1.94.85-4.01,1.15-6.04.07-.51-.3-1.07-.46-1.61-.12.01-.23.02-.35.03-.64,1-1.28,2.01-1.93,3.01-2.06,3.2-4.92,5.27-8.7,5.83-2.06.3-4.17.38-6.26.38-12.13.01-24.25-.03-36.38-.05-1.2,0-2.41-.01-3.61.01-.5.01-.94.11-.91.81.11,2.38.8,4.48,2.9,5.84,1.47.95,2.99,1.81,4.53,2.65,1.65.9,2.43,2.22,2.33,4.11-.2,3.74-2.71,7.1-6.35,7.97-1.66.4-3.46.26-5.2.31-.7.02-1.4-.08-2.14-.13v7.56Zm4-72.58c-.02.39-.05.66-.05.93,0,11.65,0,23.3-.02,34.95,0,.82.23,1.06,1.04,1.05,4.98-.05,9.96-.08,14.94-.08,6.56,0,13.12.02,19.68.08.98,0,1.28-.26,1.28-1.27-.03-11.37-.02-22.75-.02-34.12q0-1.61-1.62-1.61c-10.34.02-20.68.05-31.03.07-1.37,0-2.73,0-4.21,0Z"/>
      </g>
    </g>
  </g>
</svg>