<?xml version="1.0" encoding="UTF-8"?>
<svg id="Capa_2" data-name="Capa 2" xmlns="http://www.w3.org/2000/svg" viewBox="0 0 400 200">
  <defs>
    <style>
      .cls-1 {
        fill: none;
      }

      .cls-1, .cls-2, .cls-3 {
        stroke-width: 0px;
      }

      .cls-2 {
        fill: #af067d;
      }

      .cls-3 {
        fill: #faf2fc;
      }
    </style>
  </defs>
  <g id="Capa_1-2" data-name="Capa 1">
    <g>
      <g>
        <rect class="cls-1" width="200" height="200"/>
        <g>
          <path class="cls-2" d="m106.4,155.57c-.36-.04-.72-.1-1.09-.12-8.7-.45-16.38-3.53-23.08-9.05-5.95-4.9-10.12-11.05-12.51-18.39-.36-1.11-.47-1.19-1.63-1.19-12.23,0-24.45.02-36.68.02-1.7,0-3.42.06-5.11-.15-7.38-.92-11.23-8.19-7.83-14.82,1.34-2.62,2.9-5.14,4.37-7.69,8.43-14.6,16.87-29.2,25.3-43.81,1.6-2.76,3.78-4.85,6.95-5.58,4.32-.99,7.84.53,10.45,3.96,1.43,1.88,2.52,4.03,3.72,6.09,3.94,6.81,7.86,13.62,11.78,20.44.11.19.22.37.36.59,8.79-7.4,18.9-10.55,30.37-9.51v-.84c0-7.48-.01-14.96,0-22.44,0-2.41.58-4.64,2.37-6.4,1.28-1.26,2.87-1.87,4.62-2.14.17-.03.33-.09.49-.13,18.63,0,37.27,0,55.9,0,.19.05.37.1.56.13,2.92.46,5.15,1.86,6.32,4.68.57,1.37.74,2.82.74,4.3,0,17.58,0,35.17,0,52.75,0,.33,0,.66-.02.98-.24,3.36-1.52,6.1-4.85,7.35-1.26.48-2.68.72-4.02.73-8.55.06-17.1.03-25.65.03h-.77c-.37,2.72-.61,5.33-1.1,7.9-1.55,8.25-5.33,15.35-11.44,21.14-6.81,6.46-14.97,9.98-24.29,10.88-1.01.1-2.03.17-3.04.25h-1.18Zm32.13-39.75c.01-16.95-13.5-30.88-30.72-31.08-17.68-.2-31.41,13.96-31.48,30.91-.07,17.24,13.86,31.07,30.69,31.29,17.22.22,31.52-13.77,31.52-31.12Zm35.58-35.87c0-5.4,0-10.8,0-16.2,0-3.19.02-6.38.02-9.58,0-1.11-.05-1.14-1.14-1.15-.17,0-.35,0-.52,0-6.82.01-13.64.04-20.47.04-9.95,0-19.9,0-29.85,0-.28,0-.57-.01-.85-.02-.65-.03-.86.17-.86.83-.02,3.59-.05,7.17-.06,10.76-.01,4.09,0,8.18,0,12.27q0,1.28,1.22,1.78c.22.09.44.18.67.28,5.19,2.2,9.84,5.2,13.78,9.25,4.9,5.05,8.11,11.07,9.99,17.81.18.65.45.83,1.12.83,8.66,0,17.32.02,25.98.05.91,0,.99-.08.99-1.02,0-8.64,0-17.27,0-25.91Zm-106.32,38.23c0-.26,0-.46,0-.65.06-2.09,0-4.2.21-6.28.69-6.56,3.04-12.52,6.83-17.92.37-.53.37-.93.06-1.47-5.18-8.94-10.34-17.89-15.52-26.82-.34-.59-.83-1.12-1.31-1.62-.39-.4-.9-.41-1.29,0-.49.52-.98,1.06-1.34,1.68-9.58,16.48-19.15,32.97-28.71,49.46-.31.54-.54,1.15-.69,1.75-.2.79.13,1.4.91,1.65.57.18,1.2.3,1.8.3,4.37-.02,8.74-.1,13.11-.1,8.37-.01,16.75,0,25.12.02.26,0,.51,0,.82,0Z"/>
          <path class="cls-2" d="m79.11,114.16c1.41-12.14,7.66-20.6,19.03-25.16,2.93-1.18,6.02-1.61,9.18-1.53,1.56.04,2.57.93,2.73,2.44.17,1.57-.66,2.79-2.2,3.06-1.57.28-3.17.35-4.73.66-9.13,1.79-15.89,8.5-17.71,17.6-.3,1.52-.43,3.07-.65,4.6-.23,1.6-1.18,2.47-2.7,2.48-1.62,0-2.64-.85-2.87-2.45-.08-.56-.06-1.13-.08-1.7Z"/>
        </g>
      </g>
      <g>
        <g>
          <path class="cls-3" d="m306.4,155.57c-.36-.04-.72-.1-1.09-.12-8.7-.45-16.38-3.53-23.08-9.05-5.95-4.9-10.12-11.05-12.51-18.39-.36-1.11-.47-1.19-1.63-1.19-12.23,0-24.45.02-36.68.02-1.7,0-3.42.06-5.11-.15-7.38-.92-11.23-8.19-7.83-14.82,1.34-2.62,2.9-5.14,4.37-7.69,8.43-14.6,16.87-29.2,25.3-43.81,1.6-2.76,3.78-4.85,6.95-5.58,4.32-.99,7.84.53,10.45,3.96,1.43,1.88,2.52,4.03,3.72,6.09,3.94,6.81,7.86,13.62,11.78,20.44.11.19.22.37.36.59,8.79-7.4,18.9-10.55,30.37-9.51v-.84c0-7.48-.01-14.96,0-22.44,0-2.41.58-4.64,2.37-6.4,1.28-1.26,2.87-1.87,4.62-2.14.17-.03.33-.09.49-.13,18.63,0,37.27,0,55.9,0,.19.05.37.1.56.13,2.92.46,5.15,1.86,6.32,4.68.57,1.37.74,2.82.74,4.3,0,17.58,0,35.17,0,52.75,0,.33,0,.66-.02.98-.24,3.36-1.52,6.1-4.85,7.35-1.26.48-2.68.72-4.02.73-8.55.06-17.1.03-25.65.03h-.77c-.37,2.72-.61,5.33-1.1,7.9-1.55,8.25-5.33,15.35-11.44,21.14-6.81,6.46-14.97,9.98-24.29,10.88-1.01.1-2.03.17-3.04.25h-1.18Zm32.13-39.75c.01-16.95-13.5-30.88-30.72-31.08-17.68-.2-31.41,13.96-31.48,30.91-.07,17.24,13.86,31.07,30.69,31.29,17.22.22,31.52-13.77,31.52-31.12Zm35.58-35.87c0-5.4,0-10.8,0-16.2,0-3.19.02-6.38.02-9.58,0-1.11-.05-1.14-1.14-1.15-.17,0-.35,0-.52,0-6.82.01-13.64.04-20.47.04-9.95,0-19.9,0-29.85,0-.28,0-.57-.01-.85-.02-.65-.03-.86.17-.86.83-.02,3.59-.05,7.17-.06,10.76-.01,4.09,0,8.18,0,12.27q0,1.28,1.22,1.78c.22.09.44.18.67.28,5.19,2.2,9.84,5.2,13.78,9.25,4.9,5.05,8.11,11.07,9.99,17.81.18.65.45.83,1.12.83,8.66,0,17.32.02,25.98.05.91,0,.99-.08.99-1.02,0-8.64,0-17.27,0-25.91Zm-106.32,38.23c0-.26,0-.46,0-.65.06-2.09,0-4.2.21-6.28.69-6.56,3.04-12.52,6.83-17.92.37-.53.37-.93.06-1.47-5.18-8.94-10.34-17.89-15.52-26.82-.34-.59-.83-1.12-1.31-1.62-.39-.4-.9-.41-1.29,0-.49.52-.98,1.06-1.34,1.68-9.58,16.48-19.15,32.97-28.71,49.46-.31.54-.54,1.15-.69,1.75-.2.79.13,1.4.91,1.65.57.18,1.2.3,1.8.3,4.37-.02,8.74-.1,13.11-.1,8.37-.01,16.75,0,25.12.02.26,0,.51,0,.82,0Z"/>
          <path class="cls-3" d="m279.11,114.16c1.41-12.14,7.66-20.6,19.03-25.16,2.93-1.18,6.02-1.61,9.18-1.53,1.56.04,2.57.93,2.73,2.44.17,1.57-.66,2.79-2.2,3.06-1.57.28-3.17.35-4.73.66-9.13,1.79-15.89,8.5-17.71,17.6-.3,1.52-.43,3.07-.65,4.6-.23,1.6-1.18,2.47-2.7,2.48-1.62,0-2.64-.85-2.87-2.45-.08-.56-.06-1.13-.08-1.7Z"/>
        </g>
        <rect class="cls-1" x="200" width="200" height="200"/>
      </g>
    </g>
  </g>
</svg>