<svg xmlns="http://www.w3.org/2000/svg" viewBox="0 0 400 200"><defs><style>.cls-1{fill:none}.cls-1,.cls-2,.cls-3,.cls-4{stroke-width:0}.cls-2{fill:#af067d}.cls-3{fill:#fff}.cls-4{fill:#faf2fc}</style></defs><path class="cls-1" d="M0 0h200v200H0zM200 0h200v200H200z"/><path class="cls-2" d="M42.96 165.88v-63c.85-.14 1.63-.39 2.42-.39 19.21-.02 38.43.03 57.64-.08 2.78-.02 3.47.94 3.46 3.56-.09 18.97-.05 37.94-.06 56.91 0 .94-.14 1.88-.23 3H42.97ZM92.19 98.91c-3.46-1.21-6.93-2.43-10.67-3.74 5.38-20.11 10.79-40.32 16.34-61.05 20.43 5.47 40.71 10.89 61.37 16.42-5.52 20.52-10.98 40.79-16.47 61.22-2.84-.69-5.38-1.31-7.92-1.93-6.92-1.75-13.85-3.49-20.77-5.24-5.58-1.5-11.16-2.99-16.75-4.49-1.7-.4-3.41-.79-5.11-1.19Z"/><path class="cls-2" d="M182.11 102.66v63.18h-63.19v-52.02c7.19 0 14.37-.11 21.55.07 2.2.05 3.15-.43 3.75-2.67 2.27-8.47 2.36-8.49 11.24-8.54 8.78-.05 17.56-.01 26.65-.01ZM41.48 165.91H17.89v-63.19h23.59v63.19ZM92.19 98.91c1.7.4 3.41.79 5.11 1.19l1.45 1.21c-12.54.94-24.76.44-36.51-5.1h15.47v-.47H58.48c1.07-4.4 1.95-8.34 2.99-12.24 4.08-15.24 8.29-30.44 12.25-45.71.75-2.9 1.97-3.81 4.93-3.68 5.9.26 11.81.08 18.09.08C91.19 54.91 85.73 75.33 80.19 96c4.12 1 8.06 1.96 12 2.92ZM107.72 110.52c.5 0 .87-.06 1.21 0q8.78 1.93 8.77 10.98v44.34h-9.98v-55.32Z"/><path class="cls-2" d="M114.05 104.59c6.92 1.75 13.85 3.49 20.77 5.24 1.44.72 2.87 1.44 4.68 2.35-6.83 0-13.3.2-19.76-.09-2.71-.12-5.37-1.25-8.05-1.95q-4.48-1.16-3.89-6.39l6.25.84Z"/><path class="cls-3" d="M65.62 133.11c-1.7-.22-3.27-.43-4.84-.62-1.67-.2-2.62-1.17-2.97-2.78-.35-1.64-.65-3.3-1.02-4.93-.14-.6-.32-1.22-.64-1.73-1-1.61-.81-3.28-.32-4.96.24-.82.88-1.28 1.73-1.34.46-.04.96-.07 1.39.06 4.45 1.37 8.76 3.07 11.63 6.99 1.42 1.95 2.52 4.14 3.76 6.22.15.25.27.52.48.94.32-.82-.78-2.22.84-2.03 1.19.13.27 1.18.44 2.01.22-.31.36-.47.45-.65.55-1.05 1.08-2.1 1.62-3.16 2.75-5.45 7.51-8.3 13.06-10.13.24-.08.48-.14.72-.18 2.19-.43 3.23.35 3.52 2.55.19 1.41-.1 2.65-.72 3.95-.55 1.15-.66 2.5-.97 3.77-.25 1.03-.48 2.06-.74 3.08-.34 1.32-1.2 2.09-2.54 2.28-1.45.21-2.9.37-4.35.55-.21.03-.41.03-.82.07.38.25.6.4.82.54.85.57 1.7 1.15 2.56 1.71 2.06 1.33 3.07 3.03 2.31 5.58-.73 2.47-1.23 5.01-1.96 7.48-.25.87-.78 1.7-1.33 2.45-.83 1.14-1.88 1.48-3.12.8a8.82 8.82 0 0 1-2.6-2.18c-1.79-2.25-2.71-4.95-3.56-7.66-.4-1.28-.77-2.56-1.18-3.84-.15-.46-.36-.9-.55-1.35-.09 0-.17.02-.26.02-.04.46-.08.92-.1 1.39-.05.84-.02 1.69-.16 2.51-.05.31-.48.55-.74.83-.25-.29-.67-.55-.72-.87-.13-.86-.08-1.74-.13-2.61-.02-.41-.09-.83-.35-1.28-.16.38-.36.75-.49 1.14-.95 2.76-1.81 5.56-2.86 8.29-.49 1.26-1.25 2.44-2.04 3.55-.53.74-1.27 1.39-2.05 1.87-1.55.95-2.84.6-3.85-.92-1.36-2.07-1.94-4.44-2.48-6.81-.3-1.33-.45-2.7-.73-4.04-.27-1.33.12-2.41 1.18-3.22 1.26-.96 2.56-1.87 3.85-2.8.22-.16.47-.29.8-.5ZM134.4 141.52c.65-.08 1.43-.18 2.22-.28.06.14.13.28.19.42-.62.46-1.19 1.03-1.87 1.36-1.98.95-2.96 2.98-2.39 5.17.35 1.36 2.46 2.64 4.25 2.58.27-.01.59 0 .81-.12 2.92-1.72 6.25-2.24 9.4-3.31.58-.2 1.29-.26 1.88-.13 1.05.23 2.06.66 3.23 1.06.38 1.61.75 3.39 1.24 5.13.14.5.59 1.17 1.02 1.28 1.7.44 3.44.69 5.29.61-.31-.14-.61-.28-1.2-.55 1.23-.37 2.27-.68 3.3-.98-1.94.21-3.73-1.74-5.66-.41-.1.07-.28.07-.4.04-2.42-.58-1.1-2.98-2.01-4.32-.05-.08.94-1.21 1.55-1.34 6.92-1.49 11.42-5.66 13.54-12.32.95-2.97-.05-5.73-1.92-8.16-.84-1.09-1.92-2.07-2.49-3.29-.41-.88-.53-2.27-.09-3.05.33-.6 1.74-.82 2.67-.8 1.15.02 2.29.49 3.44.68.9.15 1.82.19 2.73.28l.18-.58c-.68-.37-1.35-.77-2.04-1.11-2.03-.99-3.66-2.18-4.39-4.59-.9-2.95-5.79-3.63-8.29-1.31-1.7 1.57-2.39 3.59-1.96 5.84.39 2.03 1.06 4 1.63 6.09-1.43.39-2.95.74-4.43 1.21-3.85 1.23-6.88 3.68-9.78 6.41-3.15 2.96-6.48 5.73-9.65 8.52ZM113.95 63.54c-1.92.52-3.54.15-4.96-.95-2.22-1.72-2.61-4.72-1-7.32 1.24-2.02 3.17-3.19 5.21-4.2.72-.35 1.1-.74 1.12-1.62.02-.66.45-1.31.7-1.96.65.39 1.3.78 1.94 1.17.13.08.23.21.44.4.15-.77-.48-1.78.68-1.95.42-.06 1.19.13 1.27.38.18.55.01 1.2-.02 2.02.04.01.33.13.78.3.04-.49.01-.87.12-1.21.12-.38.33-1 .55-1.02.49-.05 1.08.11 1.48.39.17.11.04.78-.08 1.15-.15.49-.42.95-.68 1.54.95-.24 1.67-.5 2.4-.58.78-.09 1.17.33.99 1.16-.35 1.56-1.05 2.86-2.55 3.62-.25.13-.53.47-.55.74-.3 4.34-.5 8.68-.85 13.02-.23 2.92.75 4.83 3.65 5.84 2.42.85 4.74 2 7.06 3.11 2.92 1.4 4.57 3.75 4.96 6.98.04.33.15.68.31.98.71 1.32.5 2.31-.72 3.25-1.38-1.12-1.45-2-.92-3.65.26-.8-.17-1.82-.3-2.85-.31.17-.41.19-.41.23-.9 5.88-3.64 11.15-5.52 16.71-.55 1.63-1.42 1.98-3.11 1.65-3.28-.63-3.3-.68-2.25-3.76a45.9 45.9 0 0 0 1.15-3.79c.44-1.76-.09-3.03-1.79-3.61-1.76-.6-3.62-.92-5.45-1.26-1.05-.19-1.88.32-2.19 1.35-.54 1.83-1.07 3.67-1.46 5.53-.48 2.27-.64 2.43-2.9 1.91-2.56-.6-2.74-.65-2.4-3.24.75-5.83 1.57-11.65 2.56-17.45.71-4.15 1.73-8.24 2.61-12.35.04-.17.06-.33.11-.66Z"/><path class="cls-4" d="M242.96 165.88v-63c.85-.14 1.63-.39 2.42-.39 19.21-.02 38.43.03 57.64-.08 2.78-.02 3.47.94 3.46 3.56-.09 18.97-.05 37.94-.06 56.91 0 .94-.14 1.88-.23 3h-63.22ZM292.19 98.91c-3.46-1.21-6.93-2.43-10.67-3.74 5.38-20.11 10.79-40.32 16.34-61.05 20.43 5.47 40.71 10.89 61.37 16.42-5.52 20.52-10.98 40.79-16.47 61.22-2.84-.69-5.38-1.31-7.92-1.93-6.92-1.75-13.85-3.49-20.77-5.24-5.58-1.5-11.16-2.99-16.75-4.49-1.7-.4-3.41-.79-5.11-1.19Z"/><path class="cls-4" d="M382.11 102.66v63.18h-63.19v-52.02c7.19 0 14.37-.11 21.55.07 2.2.05 3.15-.43 3.75-2.67 2.27-8.47 2.36-8.49 11.24-8.54 8.78-.05 17.56-.01 26.65-.01ZM241.48 165.91h-23.59v-63.19h23.59v63.19ZM292.19 98.91c1.7.4 3.41.79 5.11 1.19l1.45 1.21c-12.54.94-24.76.44-36.51-5.1h15.47v-.47h-19.23c1.07-4.4 1.95-8.34 2.99-12.24 4.08-15.24 8.29-30.44 12.25-45.71.75-2.9 1.97-3.81 4.93-3.68 5.9.26 11.81.08 18.09.08-5.55 20.72-11.01 41.14-16.55 61.81 4.12 1 8.06 1.96 12 2.92ZM307.72 110.52c.5 0 .87-.06 1.21 0q8.78 1.93 8.77 10.98v44.34h-9.98v-55.32Z"/><path class="cls-4" d="M314.05 104.59c6.92 1.75 13.85 3.49 20.77 5.24 1.44.72 2.87 1.44 4.68 2.35-6.83 0-13.3.2-19.76-.09-2.71-.12-5.37-1.25-8.05-1.95q-4.48-1.16-3.89-6.39l6.25.84Z"/><path class="cls-2" d="M265.62 133.11c-1.7-.22-3.27-.43-4.84-.62-1.67-.2-2.62-1.17-2.97-2.78-.35-1.64-.65-3.3-1.02-4.93-.14-.6-.32-1.22-.64-1.73-1-1.61-.81-3.28-.32-4.96.24-.82.88-1.28 1.73-1.34.46-.04.96-.07 1.39.06 4.45 1.37 8.76 3.07 11.63 6.99 1.42 1.95 2.52 4.14 3.76 6.22.15.25.27.52.48.94.32-.82-.78-2.22.84-2.03 1.19.13.27 1.18.44 2.01.22-.31.36-.47.45-.65.55-1.05 1.08-2.1 1.62-3.16 2.75-5.45 7.51-8.3 13.06-10.13.24-.08.48-.14.72-.18 2.19-.43 3.23.35 3.52 2.55.19 1.41-.1 2.65-.72 3.95-.55 1.15-.66 2.5-.97 3.77-.25 1.03-.48 2.06-.74 3.08-.34 1.32-1.2 2.09-2.54 2.28-1.45.21-2.9.37-4.35.55-.21.03-.41.03-.82.07.38.25.6.4.82.54.85.57 1.7 1.15 2.56 1.71 2.06 1.33 3.07 3.03 2.31 5.58-.73 2.47-1.23 5.01-1.96 7.48-.25.87-.78 1.7-1.33 2.45-.83 1.14-1.88 1.48-3.12.8a8.82 8.82 0 0 1-2.6-2.18c-1.79-2.25-2.71-4.95-3.56-7.66-.4-1.28-.77-2.56-1.18-3.84-.15-.46-.36-.9-.55-1.35-.09 0-.17.02-.26.02-.04.46-.08.92-.1 1.39-.05.84-.02 1.69-.16 2.51-.05.31-.48.55-.74.83-.25-.29-.67-.55-.72-.87-.13-.86-.08-1.74-.13-2.61-.02-.41-.09-.83-.35-1.28-.16.38-.36.75-.49 1.14-.95 2.76-1.81 5.56-2.86 8.29-.49 1.26-1.25 2.44-2.04 3.55-.53.74-1.27 1.39-2.05 1.87-1.55.95-2.84.6-3.85-.92-1.36-2.07-1.94-4.44-2.48-6.81-.3-1.33-.45-2.7-.73-4.04-.27-1.33.12-2.41 1.18-3.22 1.26-.96 2.56-1.87 3.85-2.8.22-.16.47-.29.8-.5ZM334.4 141.52c.65-.08 1.43-.18 2.22-.28.06.14.13.28.19.42-.62.46-1.19 1.03-1.87 1.36-1.98.95-2.96 2.98-2.39 5.17.35 1.36 2.46 2.64 4.25 2.58.27-.01.59 0 .81-.12 2.92-1.72 6.25-2.24 9.4-3.31.58-.2 1.29-.26 1.88-.13 1.05.23 2.06.66 3.23 1.06.38 1.61.75 3.39 1.24 5.13.14.5.59 1.17 1.02 1.28 1.7.44 3.44.69 5.29.61-.31-.14-.61-.28-1.2-.55 1.23-.37 2.27-.68 3.3-.98-1.94.21-3.73-1.74-5.66-.41-.1.07-.28.07-.4.04-2.42-.58-1.1-2.98-2.01-4.32-.05-.08.94-1.21 1.55-1.34 6.92-1.49 11.42-5.66 13.54-12.32.95-2.97-.05-5.73-1.92-8.16-.84-1.09-1.92-2.07-2.49-3.29-.41-.88-.53-2.27-.09-3.05.33-.6 1.74-.82 2.67-.8 1.15.02 2.29.49 3.44.68.9.15 1.82.19 2.73.28l.18-.58c-.68-.37-1.35-.77-2.04-1.11-2.03-.99-3.66-2.18-4.39-4.59-.9-2.95-5.79-3.63-8.29-1.31-1.7 1.57-2.39 3.59-1.96 5.84.39 2.03 1.06 4 1.63 6.09-1.43.39-2.95.74-4.43 1.21-3.85 1.23-6.88 3.68-9.78 6.41-3.15 2.96-6.48 5.73-9.65 8.52ZM313.95 63.54c-1.92.52-3.54.15-4.96-.95-2.22-1.72-2.61-4.72-1-7.32 1.24-2.02 3.17-3.19 5.21-4.2.72-.35 1.1-.74 1.12-1.62.02-.66.45-1.31.7-1.96.65.39 1.3.78 1.94 1.17.13.08.23.21.44.4.15-.77-.48-1.78.68-1.95.42-.06 1.19.13 1.27.38.18.55.01 1.2-.02 2.02.04.01.33.13.78.3.04-.49.01-.87.12-1.21.12-.38.33-1 .55-1.02.49-.05 1.08.11 1.48.39.17.11.04.78-.08 1.15-.15.49-.42.95-.68 1.54.95-.24 1.67-.5 2.4-.58.78-.09 1.17.33.99 1.16-.35 1.56-1.05 2.86-2.55 3.62-.25.13-.53.47-.55.74-.3 4.34-.5 8.68-.85 13.02-.23 2.92.75 4.83 3.65 5.84 2.42.85 4.74 2 7.06 3.11 2.92 1.4 4.57 3.75 4.96 6.98.04.33.15.68.31.98.71 1.32.5 2.31-.72 3.25-1.38-1.12-1.45-2-.92-3.65.26-.8-.17-1.82-.3-2.85-.31.17-.41.19-.41.23-.9 5.88-3.64 11.15-5.52 16.71-.55 1.63-1.42 1.98-3.11 1.65-3.28-.63-3.3-.68-2.25-3.76a45.9 45.9 0 0 0 1.15-3.79c.44-1.76-.09-3.03-1.79-3.61-1.76-.6-3.62-.92-5.45-1.26-1.05-.19-1.88.32-2.19 1.35-.54 1.83-1.07 3.67-1.46 5.53-.48 2.27-.64 2.43-2.9 1.91-2.56-.6-2.74-.65-2.4-3.24.75-5.83 1.57-11.65 2.56-17.45.71-4.15 1.73-8.24 2.61-12.35.04-.17.06-.33.11-.66Z"/></svg>