<?xml version="1.0" encoding="UTF-8"?>
<svg id="Capa_2" data-name="Capa 2" xmlns="http://www.w3.org/2000/svg" viewBox="0 0 400 200">
  <defs>
    <style>
      .cls-1 {
        fill: none;
      }

      .cls-1, .cls-2, .cls-3 {
        stroke-width: 0px;
      }

      .cls-2 {
        fill: #af067d;
      }

      .cls-3 {
        fill: #faf2fc;
      }
    </style>
  </defs>
  <g id="Capa_1-2" data-name="Capa 1">
    <g>
      <g>
        <rect class="cls-1" width="200" height="200"/>
        <g id="bCOioH.tif">
          <g>
            <path class="cls-2" d="m67.7,141.06V56.37h75.73v-4.35h-1.95c-13.33,0-26.66,0-40,0-.65,0-1.31,0-1.95-.07-1.6-.21-2.75-1.45-2.86-3-.12-1.64.87-3.06,2.51-3.45.67-.16,1.39-.17,2.09-.17,13.43,0,26.86,0,40.3,0h1.69c.14-.23.22-.31.23-.4.22-4.68-.12-3.85-3.55-3.85-25.11-.01-50.22-.01-75.33,0-4.31,0-7.51,2.66-8.02,6.78-.38,3.06.84,5.5,3.38,7.21.71.48,1,.93,1,1.78-.02,35.58-.02,71.17-.02,106.75,0,.3-.03.59-.07,1.08-3.04-1.07-5.45-2.84-7.4-5.26-2.58-3.21-3.71-6.91-3.71-11.02.02-17.64,0-35.28,0-52.93,0-15.49-.02-30.97,0-46.46.01-7.3,4.78-13.08,11.81-14.4.98-.18,1.99-.21,2.99-.21,25.76-.01,51.52-.01,77.28,0,5.05,0,8.32,3.23,8.33,8.23,0,32.38,0,64.75,0,97.13,0,.4,0,.8,0,1.32h-82.51Zm39.02-27.14c2.11,1.78,4.54,1.99,7.02,1.08,5.19-1.9,7.88-8.31,5.67-13.43-1.11-2.57-2.95-4.55-5.57-5.61-2.46-1-4.86-.74-7.19,1.09,0-2.65,0-5.04,0-7.43-.02-3.2-.92-4.01-4.09-3.7-1.9.19-2.53.84-2.55,2.8-.03,3-.02,6.01-.02,9.01,0,5.01,0,10.01.02,15.02,0,1.04.17,2.02,1.28,2.49,1.86.78,4.12.24,5.44-1.32Zm-16.62-16.72c-2.84-2.24-5.98-2.41-8.83-.41-3.37,2.36-5.07,5.57-4.71,9.76.62,7.13,8.02,11.03,13.68,7.22.88,2.08,2.71,1.68,4.37,1.65,1.38-.03,2.18-.78,2.19-2.15.04-5.2.05-10.41-.03-15.61,0-.64-.48-1.5-1-1.86-1.65-1.13-4.58-.35-5.67,1.41Zm32.05,10.22c-.06,6.4,9.32,10.56,15.27,7.13,3.27-1.88,3.42-3.8.56-6.26-.97-.83-1.89-.97-3-.3-.59.36-1.25.67-1.91.81-1.73.37-3.47-.69-3.89-2.27-.51-1.92.39-3.92,2.24-4.28,1.02-.2,2.28.06,3.24.52,1.98.95,2.79.92,4.12-.81.39-.51.73-1.08.99-1.67.52-1.16.23-2.15-.8-2.9-3.4-2.48-7.06-3.03-10.89-1.22-3.88,1.83-5.92,4.95-5.95,11.26Z"/>
            <path class="cls-2" d="m67.7,165.54v-17.63h82.41c0,3.75.27,7.46-.07,11.12-.38,3.97-3.67,6.58-7.69,6.59-24.5.02-48.99.01-73.49,0-.34,0-.69-.05-1.15-.09Z"/>
            <path class="cls-2" d="m110.06,108.78c-1.79,0-3.25-1.44-3.28-3.23-.04-1.92,1.49-3.48,3.39-3.45,1.83.03,3.35,1.58,3.33,3.39-.02,1.77-1.61,3.3-3.43,3.3Z"/>
            <path class="cls-2" d="m86.56,102.08c1.85-.02,3.32,1.43,3.35,3.31.03,1.84-1.47,3.36-3.31,3.36-1.83,0-3.42-1.55-3.4-3.31.01-1.81,1.55-3.34,3.36-3.36Z"/>
          </g>
        </g>
      </g>
      <g>
        <rect class="cls-1" x="200" width="200" height="200"/>
        <g id="bCOioH.tif-2" data-name="bCOioH.tif">
          <g>
            <path class="cls-3" d="m267.7,141.06V56.37h75.73v-4.35h-1.95c-13.33,0-26.66,0-40,0-.65,0-1.31,0-1.95-.07-1.6-.21-2.75-1.45-2.86-3-.12-1.64.87-3.06,2.51-3.45.67-.16,1.39-.17,2.09-.17,13.43,0,26.86,0,40.3,0h1.69c.14-.23.22-.31.23-.4.22-4.68-.12-3.85-3.55-3.85-25.11-.01-50.22-.01-75.33,0-4.31,0-7.51,2.66-8.02,6.78-.38,3.06.84,5.5,3.38,7.21.71.48,1,.93,1,1.78-.02,35.58-.02,71.17-.02,106.75,0,.3-.03.59-.07,1.08-3.04-1.07-5.45-2.84-7.4-5.26-2.58-3.21-3.71-6.91-3.71-11.02.02-17.64,0-35.28,0-52.93,0-15.49-.02-30.97,0-46.46.01-7.3,4.78-13.08,11.81-14.4.98-.18,1.99-.21,2.99-.21,25.76-.01,51.52-.01,77.28,0,5.05,0,8.32,3.23,8.33,8.23,0,32.38,0,64.75,0,97.13,0,.4,0,.8,0,1.32h-82.51Zm39.02-27.14c2.11,1.78,4.54,1.99,7.02,1.08,5.19-1.9,7.88-8.31,5.67-13.43-1.11-2.57-2.95-4.55-5.57-5.61-2.46-1-4.86-.74-7.19,1.09,0-2.65,0-5.04,0-7.43-.02-3.2-.92-4.01-4.09-3.7-1.9.19-2.53.84-2.55,2.8-.03,3-.02,6.01-.02,9.01,0,5.01,0,10.01.02,15.02,0,1.04.17,2.02,1.28,2.49,1.86.78,4.12.24,5.44-1.32Zm-16.62-16.72c-2.84-2.24-5.98-2.41-8.83-.41-3.37,2.36-5.07,5.57-4.71,9.76.62,7.13,8.02,11.03,13.68,7.22.88,2.08,2.71,1.68,4.37,1.65,1.38-.03,2.18-.78,2.19-2.15.04-5.2.05-10.41-.03-15.61,0-.64-.48-1.5-1-1.86-1.65-1.13-4.58-.35-5.67,1.41Zm32.05,10.22c-.06,6.4,9.32,10.56,15.27,7.13,3.27-1.88,3.42-3.8.56-6.26-.97-.83-1.89-.97-3-.3-.59.36-1.25.67-1.91.81-1.73.37-3.47-.69-3.89-2.27-.51-1.92.39-3.92,2.24-4.28,1.02-.2,2.28.06,3.24.52,1.98.95,2.79.92,4.12-.81.39-.51.73-1.08.99-1.67.52-1.16.23-2.15-.8-2.9-3.4-2.48-7.06-3.03-10.89-1.22-3.88,1.83-5.92,4.95-5.95,11.26Z"/>
            <path class="cls-3" d="m267.7,165.54v-17.63h82.41c0,3.75.27,7.46-.07,11.12-.38,3.97-3.67,6.58-7.69,6.59-24.5.02-48.99.01-73.49,0-.34,0-.69-.05-1.15-.09Z"/>
            <path class="cls-3" d="m310.06,108.78c-1.79,0-3.25-1.44-3.28-3.23-.04-1.92,1.49-3.48,3.39-3.45,1.83.03,3.35,1.58,3.33,3.39-.02,1.77-1.61,3.3-3.43,3.3Z"/>
            <path class="cls-3" d="m286.56,102.08c1.85-.02,3.32,1.43,3.35,3.31.03,1.84-1.47,3.36-3.31,3.36-1.83,0-3.42-1.55-3.4-3.31.01-1.81,1.55-3.34,3.36-3.36Z"/>
          </g>
        </g>
      </g>
    </g>
  </g>
</svg>