<svg xmlns="http://www.w3.org/2000/svg" viewBox="0 0 400 200"><defs><style>.cls-1{fill:none}.cls-1,.cls-2,.cls-3{stroke-width:0}.cls-2{fill:#7600db}.cls-3{fill:#faf2fc}</style></defs><path class="cls-1" d="M0 0h200v200H0zM200 0h200v200H200z"/><path class="cls-2" d="M31.18 123.23v23.96h11.67V88.57c2.61 1.11 4.33 1.79 6 2.56 16.01 7.44 32.07 14.76 47.97 22.44 3.54 1.71 6.25 1.54 9.65-.12 10.73-5.24 21.62-10.12 32.42-15.2 9.95-4.68 19.87-9.42 29.93-14.19-.57-.66-.74-1.04-1.02-1.17-21.15-9.93-42.28-19.89-63.52-29.63-1.7-.78-4.42-.51-6.22.28-8.24 3.59-16.34 7.52-24.48 11.35-13.11 6.16-26.21 12.33-38.35 18.04.81 2.71 1.93 4.78 1.98 6.87.2 8.84-.14 17.69.18 26.52.17 4.54-.62 7.51-6.21 6.9Zm31.22-19.5c0 4.12.2 7.08-.03 10-1.19 14.49 5.57 20.15 17.27 24.1 14.69 4.96 29.64 4.88 44.33-.18 15.6-5.38 20.91-16.96 15.37-33.28-10.34 4.87-20.78 9.45-30.88 14.69-4.95 2.57-8.95 2.55-13.9-.03-10.23-5.33-20.82-9.96-32.15-15.3Z"/><path class="cls-2" d="M31.18 123.23c5.59.6 6.38-2.36 6.21-6.9-.32-8.83.02-17.68-.18-26.52-.05-2.09-1.16-4.16-1.98-6.87 12.14-5.71 25.24-11.88 38.35-18.04 8.14-3.82 16.23-7.76 24.48-11.35 1.81-.79 4.52-1.06 6.22-.28 21.24 9.73 42.37 19.7 63.52 29.63.28.13.45.51 1.02 1.17-10.06 4.77-19.98 9.52-29.93 14.19-10.8 5.08-21.7 9.96-32.42 15.2-3.4 1.66-6.11 1.83-9.65.12-15.89-7.68-31.96-15-47.97-22.44-1.67-.78-3.39-1.45-6-2.56v58.62H31.18v-23.96Z"/><path class="cls-2" d="M62.39 103.73c11.33 5.34 21.92 9.97 32.15 15.3 4.95 2.58 8.95 2.6 13.9.03 10.1-5.24 20.54-9.82 30.88-14.69 5.54 16.32.23 27.9-15.37 33.28-14.7 5.06-29.64 5.14-44.33.18-11.7-3.95-18.45-9.61-17.27-24.1.24-2.92.03-5.88.03-10Z"/><path class="cls-3" d="M231.18 123.23v23.96h11.67V88.57c2.61 1.11 4.33 1.79 6 2.56 16.01 7.44 32.07 14.76 47.97 22.44 3.54 1.71 6.25 1.54 9.65-.12 10.73-5.24 21.62-10.12 32.42-15.2 9.95-4.68 19.87-9.42 29.93-14.19-.57-.66-.74-1.04-1.02-1.17-21.15-9.93-42.28-19.89-63.52-29.63-1.7-.78-4.42-.51-6.22.28-8.24 3.59-16.34 7.52-24.48 11.35-13.11 6.16-26.21 12.33-38.35 18.04.81 2.71 1.93 4.78 1.98 6.87.2 8.84-.14 17.69.18 26.52.17 4.54-.62 7.51-6.21 6.9Zm31.22-19.5c0 4.12.2 7.08-.03 10-1.19 14.49 5.57 20.15 17.27 24.1 14.69 4.96 29.64 4.88 44.33-.18 15.6-5.38 20.91-16.96 15.37-33.28-10.34 4.87-20.78 9.45-30.88 14.69-4.95 2.57-8.95 2.55-13.9-.03-10.23-5.33-20.82-9.96-32.15-15.3Z"/><path class="cls-3" d="M231.18 123.23c5.59.6 6.38-2.36 6.21-6.9-.32-8.83.02-17.68-.18-26.52-.05-2.09-1.16-4.16-1.98-6.87 12.14-5.71 25.24-11.88 38.35-18.04 8.14-3.82 16.23-7.76 24.48-11.35 1.81-.79 4.52-1.06 6.22-.28 21.24 9.73 42.37 19.7 63.52 29.63.28.13.45.51 1.02 1.17-10.06 4.77-19.98 9.52-29.93 14.19-10.8 5.08-21.7 9.96-32.42 15.2-3.4 1.66-6.11 1.83-9.65.12-15.89-7.68-31.96-15-47.97-22.44-1.67-.78-3.39-1.45-6-2.56v58.62h-11.67v-23.96Z"/><path class="cls-3" d="M262.39 103.73c11.33 5.34 21.92 9.97 32.15 15.3 4.95 2.58 8.95 2.6 13.9.03 10.1-5.24 20.54-9.82 30.88-14.69 5.54 16.32.23 27.9-15.37 33.28-14.7 5.06-29.64 5.14-44.33.18-11.7-3.95-18.45-9.61-17.27-24.1.24-2.92.03-5.88.03-10Z"/></svg>