<svg xmlns="http://www.w3.org/2000/svg" viewBox="0 0 400 200"><defs><style>.cls-1{fill:none}.cls-1,.cls-2,.cls-3{stroke-width:0}.cls-2{fill:#af067d}.cls-3{fill:#faf2fc}</style></defs><path class="cls-1" d="M0 0h200v200H0z"/><path class="cls-2" d="M128.96 82.09V45.27c0-1.53-1.25-2.78-2.78-2.78h-18.12c-1.53 0-2.78 1.25-2.78 2.78v58.34c1.74-2.98 3.87-5.93 6.45-8.69V83.14c0-.49.4-.89.89-.89h8.99c.49 0 .89.4.89.89v2.89c2.43-1.69 4.51-2.93 6.45-3.94m-14.21-28.25c0 .38-.4.7-.89.7h-3.55l-.63-.21-.26-.5v-6.1c0-.39.4-.7.89-.7h3.55l.63.21.27.5v6.1Zm0 11.14c0 .38-.4.7-.89.7h-3.55l-.63-.21-.26-.5v-6.1c0-.38.4-.7.89-.7h3.55l.63.21.27.5v6.1Zm0 11.15c0 .38-.4.7-.89.7h-3.55l-.63-.21-.26-.5v-6.1c0-.38.4-.7.89-.7h3.55l.63.21.27.5v6.1Zm10.09-22.29c0 .38-.4.7-.89.7h-3.55l-.63-.21-.26-.5v-6.1c0-.39.4-.7.89-.7h3.55l.63.21.26.5v6.1Zm0 11.14c0 .38-.4.7-.89.7h-3.55l-.63-.21-.26-.5v-6.1c0-.38.4-.7.89-.7h3.55l.63.21.26.5v6.1Zm0 11.15c0 .38-.4.7-.89.7h-3.55l-.63-.21-.26-.5v-6.1c0-.38.4-.7.89-.7h3.55l.63.21.26.5v6.1Zm-2.33 27.93v.96c0 .44.35.79.79.79h4.88c.43 0 .79-.35.79-.79v-6.94l-6.45 5.98ZM142.36 77.93V46.84c0-1.45-1.19-2.63-2.64-2.63h-7.77c-.43 0-.78.35-.78.79v2.27c0 .44.35.79.78.79h6.9c.31 0 .55.25.55.56v2.44c0 .31-.25.56-.55.56h-6.9c-.43 0-.78.36-.78.78v2.27c0 .44.35.79.78.79h6.9c.31 0 .55.25.55.55v2.44c0 .3-.25.55-.55.55h-6.9a.79.79 0 0 0-.78.79v2.27c0 .43.35.79.78.79h6.9c.31 0 .55.25.55.56v2.43c0 .31-.25.56-.55.56h-6.9c-.43 0-.78.35-.78.79v2.27c0 .44.35.79.78.79h6.9c.31 0 .55.25.55.55v2.44c0 .3-.25.55-.55.55h-6.9a.79.79 0 0 0-.78.79v6.39c3.81-1.7 7.13-2.37 11.19-3.03m-11.19 18.1v.31c0 .59.48 1.07 1.07 1.07h9.33c.44 0 .79-.35.79-.79V85.67l-11.19 10.37Z"/><path class="cls-2" d="M152.68 79.72c-27.02.57-49.07 21.41-51.53 47.92 27.02-.57 49.07-21.41 51.53-47.92m-53.81 47.92c-2.47-26.51-24.51-47.35-51.54-47.92 2.47 26.51 24.51 47.35 51.54 47.92M106.12 145.74c2.39 5.22 6.51 10.06 13.67 11.91-7.2-.02-12.66.7-18.27-3.84 1.98-2 3.51-4.68 4.6-8.06Z"/><path class="cls-2" d="M88.81 120.33c-2.06-.19-4.13.07-6.15.57l1.14 1.74c1.44-.34 1.81 1.89 3.46 1.94 15.62.47 13.96 27.93-7.25 33.06 4.3.56 8.72.47 12.65-.82.5-.15.99-.32 1.47-.51 1.61 1.67 6.7 1.82 8.82 1.73-3.39-1.48-5.4-3.37-3.22-5.61.8-.8 1.18-1.35 1.84-2.36.35-.54.67-1.08.97-1.62.8-1.39 1.43-2.86 1.89-4.42 3.26-10.77-4.26-22.67-15.62-23.7M68.07 124.03c-1.06-.71-2.5-.43-3.22.63-.26.38-4.3 6.16-12.64 8.16l-.36.08c-4.88 1.09-11.19.89-19.05-2.37-1.18-.49-2.54.07-3.03 1.26-.49 1.18.07 2.54 1.26 3.04 5.73 2.37 10.8 3.3 15.2 3.3h.15c.29 1.86.61 4.66.55 7.61-2.14 7.98-6.62 11.82-6.88 12.03-.98.81-1.13 2.27-.33 3.26.46.56 1.13.86 1.8.86.52 0 1.04-.18 1.47-.52.3-.24 5.4-4.54 8.08-13.3.76-.15 1.56-.26 2.35-.31.76 5.5.92 10.47.93 10.56a2.32 2.32 0 0 0 2.32 2.25h.07a2.33 2.33 0 0 0 2.25-2.39c-.01-.37-.18-5.24-.94-10.83.02-2.55 0-7.58-.33-11.56 7.3-3.16 10.92-8.43 10.99-8.52.71-1.06.42-2.5-.64-3.21m-18.73 8.14c4.81 0 8.71-3.9 8.71-8.71s-3.9-8.72-8.71-8.72-8.71 3.9-8.71 8.72 3.9 8.71 8.71 8.71M170.24 131.79a2.334 2.334 0 0 0-3.03-1.26c-7.86 3.26-14.17 3.46-19.06 2.37l-.35-.08c-8.33-2-12.37-7.75-12.64-8.15a2.328 2.328 0 0 0-3.22-.64 2.321 2.321 0 0 0-.65 3.22c.07.1 4.1 5.96 12.24 9.04-1.05 2.98-2.83 8.71-3.31 14.46 0 0 .48.09 1.3.22-.4 3.93-.5 6.91-.51 7.2-.04 1.28.97 2.35 2.25 2.39h.07c1.25 0 2.28-.99 2.32-2.25 0-.07.1-2.97.48-6.77 1.3.12 2.73.21 4.17.22 2.76 6.27 6.46 9.39 6.72 9.6.43.35.95.52 1.46.52a2.33 2.33 0 0 0 1.47-4.13c-.04-.04-2.48-2.1-4.66-6.31 1.28-.21 2.46-.52 3.46-.99 0 0-2.3-7.04-2.46-12.43 3.79-.3 8.02-1.25 12.7-3.19a2.317 2.317 0 0 0 1.26-3.03m-24.97-14.96c.17.3.13.68-.1.95a8.532 8.532 0 0 0-1.9 3.84c-1.04 4.89 2.24 9.71 7.28 10.44 4.5.66 8.83-2.37 9.77-6.82a8.53 8.53 0 0 0-.17-4.24c-.1-.33.02-.69.3-.9 2.48-1.87.14 6.81 9.04 4.85-5.49-1.29-2.77-6.31-3.44-8.33-.64-1.9-4.03-3.59-7.07 1.23l-.49.04a8.49 8.49 0 0 0-4.87-2.96 8.602 8.602 0 0 0-5.64.7l-.43-.23c-.81-5.63-4.6-5.48-5.96-4.01-1.45 1.57-1.02 7.27-6.55 6.2 7.29 5.43 8.72-3.42 10.23-.74M128.96 82.02c-1.94 1.01-4.04 2.31-6.45 3.99v.02c2.43-1.69 4.51-2.93 6.45-3.94v-.07Zm-17.22 12.84c-2.59 2.75-4.72 5.72-6.45 8.69v.06c1.74-2.98 3.87-5.93 6.45-8.69v-.06ZM142.36 77.92c-4.07.66-7.38 1.33-11.19 3.03 3.81-1.69 7.13-2.37 11.19-3.02ZM148.48 79.97c-23.36 2.34-42.24 19.87-46.62 42.57.04.19.07.37.1.55l46.51-43.12Z"/><path class="cls-2" d="M98.14 123.09c-.06.32-.11.62-.16.91l.48.39c-.06-.4-.13-.79-.2-1.19l-.12-.11ZM51.64 79.98l46.5 43.11c.02-.09.03-.17.05-.26-4.27-22.8-23.14-40.45-46.55-42.85M101.97 123.09l-.25.23c-.16.9-.3 1.8-.41 2.71l1.24 1.15s-.11-1.56-.58-4.1"/><path class="cls-2" d="M98.19 122.83c-.02.09-.03.18-.05.26l.12.11c-.02-.13-.04-.24-.07-.37M75.98 74.09c0-1.07-.39-2.06-1.11-2.85.29-.52.44-1.11.44-1.72 0-1.08-.49-2.09-1.32-2.76.1-.28.16-.57.16-.87a2.5 2.5 0 1 0-4.79 1.01c-.74.67-1.15 1.61-1.15 2.62 0 .61.15 1.19.44 1.72-.72.78-1.11 1.78-1.11 2.85 0 2.05 1.46 3.76 3.4 4.14v3.76c.54.28 1.06.53 1.63.85v-4.61c1.94-.38 3.4-2.09 3.4-4.14M64.51 74.77c0-.48-.39-.88-.88-.88H51.59c-.49 0-.88.39-.88.88s.39.88.88.88h1.54v1.55c.63.1 1.17.18 1.76.27v-1.82h5.56v2.77c.59.11 1.19.24 1.76.37v-3.13h1.43c.48 0 .88-.39.88-.88m-11.38 6.6v.34h.37l-.37-.34ZM50.72 70.09c0 .49.39.88.88.88h12.04c.49 0 .88-.39.88-.88s-.39-.88-.88-.88H51.61c-.49 0-.88.39-.88.88M63.64 71.55H51.6c-.48 0-.88.39-.88.88s.39.88.88.88h12.04c.49 0 .88-.39.88-.88s-.39-.88-.88-.88"/><path class="cls-2" d="M86.41 77.95c0-1.37-.5-2.65-1.42-3.65.37-.67.57-1.43.57-2.2 0-1.38-.62-2.68-1.69-3.54.13-.36.2-.73.2-1.11 0-1.77-1.44-3.21-3.21-3.21a3.214 3.214 0 0 0-2.94 4.5 4.52 4.52 0 0 0-1.48 3.36c0 .77.2 1.53.57 2.2-.92 1-1.42 2.28-1.42 3.65 0 2.7 1.99 4.94 4.58 5.34v4.64c.53.4 1.08.8 1.64 1.23V83.3c2.6-.39 4.6-2.64 4.6-5.34M98.07 86.46c0-1.58-.58-3.06-1.64-4.22a5.265 5.265 0 0 0-1.29-6.64 3.709 3.709 0 0 0-3.48-4.99c-2.05 0-3.71 1.66-3.71 3.71 0 .51.11 1.02.32 1.49-1.09 1-1.71 2.39-1.71 3.88 0 .9.23 1.77.66 2.55a6.207 6.207 0 0 0-1.64 4.22c0 3.15 2.34 5.76 5.38 6.19v5.23c.57.72 1.12 1.45 1.63 2.19v-7.4c3.1-.38 5.5-3.02 5.5-6.21M81.1 51.45c1.82 0 3.3-1.48 3.3-3.3s-1.48-3.3-3.3-3.3-3.3 1.47-3.3 3.3 1.48 3.3 3.3 3.3M84.41 43.88v.97h.96l2.83-2.82v-.97h-.97l-2.82 2.82zM74.01 54.29v.96c.27.27.7.27.96 0l2.82-2.82v-.96a.682.682 0 0 0-.97 0L74 54.29ZM86.46 47.48a.68.68 0 0 0 0 1.36h3.99a.68.68 0 0 0 0-1.36h-3.99ZM71.75 47.48a.68.68 0 0 0 0 1.36h3.99a.68.68 0 0 0 0-1.36h-3.99ZM77.8 43.88v.97h-.97l-2.82-2.82v-.97h.97l2.82 2.82zM88.2 54.29v.96a.67.67 0 0 1-.96 0l-2.82-2.82v-.96c.27-.27.7-.27.97 0l2.82 2.82ZM81.79 42.8a.68.68 0 0 1-1.36 0v-3.99c0-.38.3-.68.68-.68s.68.3.68.68v3.99ZM81.79 57.51a.68.68 0 0 1-1.36 0v-4c0-.38.3-.68.68-.68s.68.3.68.68v4Z"/><path class="cls-1" d="M200 0h200v200H200z"/><path class="cls-3" d="M328.96 82.09V45.27c0-1.53-1.25-2.78-2.78-2.78h-18.12c-1.53 0-2.78 1.25-2.78 2.78v58.34c1.74-2.98 3.87-5.93 6.45-8.69V83.14c0-.49.4-.89.89-.89h8.99c.49 0 .89.4.89.89v2.89c2.43-1.69 4.51-2.93 6.45-3.94m-14.21-28.25c0 .38-.4.7-.89.7h-3.55l-.63-.21-.26-.5v-6.1c0-.39.4-.7.89-.7h3.55l.63.21.27.5v6.1Zm0 11.14c0 .38-.4.7-.89.7h-3.55l-.63-.21-.26-.5v-6.1c0-.38.4-.7.89-.7h3.55l.63.21.27.5v6.1Zm0 11.15c0 .38-.4.7-.89.7h-3.55l-.63-.21-.26-.5v-6.1c0-.38.4-.7.89-.7h3.55l.63.21.27.5v6.1Zm10.09-22.29c0 .38-.4.7-.89.7h-3.55l-.63-.21-.26-.5v-6.1c0-.39.4-.7.89-.7h3.55l.63.21.26.5v6.1Zm0 11.14c0 .38-.4.7-.89.7h-3.55l-.63-.21-.26-.5v-6.1c0-.38.4-.7.89-.7h3.55l.63.21.26.5v6.1Zm0 11.15c0 .38-.4.7-.89.7h-3.55l-.63-.21-.26-.5v-6.1c0-.38.4-.7.89-.7h3.55l.63.21.26.5v6.1Zm-2.33 27.93v.96c0 .44.35.79.79.79h4.88c.43 0 .79-.35.79-.79v-6.94l-6.45 5.98ZM342.36 77.93V46.84c0-1.45-1.19-2.63-2.64-2.63h-7.77c-.43 0-.78.35-.78.79v2.27c0 .44.35.79.78.79h6.9c.31 0 .55.25.55.56v2.44c0 .31-.25.56-.55.56h-6.9c-.43 0-.78.36-.78.78v2.27c0 .44.35.79.78.79h6.9c.31 0 .55.25.55.55v2.44c0 .3-.25.55-.55.55h-6.9a.79.79 0 0 0-.78.79v2.27c0 .43.35.79.78.79h6.9c.31 0 .55.25.55.56v2.43c0 .31-.25.56-.55.56h-6.9c-.43 0-.78.35-.78.79v2.27c0 .44.35.79.78.79h6.9c.31 0 .55.25.55.55v2.44c0 .3-.25.55-.55.55h-6.9a.79.79 0 0 0-.78.79v6.39c3.81-1.7 7.13-2.37 11.19-3.03m-11.19 18.1v.31c0 .59.48 1.07 1.07 1.07h9.33c.44 0 .79-.35.79-.79V85.67l-11.19 10.37Z"/><path class="cls-3" d="M352.68 79.72c-27.02.57-49.07 21.41-51.53 47.92 27.02-.57 49.07-21.41 51.53-47.92m-53.81 47.92c-2.47-26.51-24.51-47.35-51.54-47.92 2.47 26.51 24.51 47.35 51.54 47.92M306.12 145.74c2.39 5.22 6.51 10.06 13.67 11.91-7.2-.02-12.66.7-18.27-3.84 1.98-2 3.51-4.68 4.6-8.06Z"/><path class="cls-3" d="M288.81 120.33c-2.06-.19-4.13.07-6.15.57l1.14 1.74c1.44-.34 1.81 1.89 3.46 1.94 15.62.47 13.96 27.93-7.25 33.06 4.3.56 8.72.47 12.65-.82.5-.15.99-.32 1.47-.51 1.61 1.67 6.7 1.82 8.82 1.73-3.39-1.48-5.4-3.37-3.22-5.61.8-.8 1.18-1.35 1.84-2.36.35-.54.67-1.08.97-1.62.8-1.39 1.43-2.86 1.89-4.42 3.26-10.77-4.26-22.67-15.62-23.7M268.07 124.03c-1.06-.71-2.5-.43-3.22.63-.26.38-4.3 6.16-12.64 8.16l-.36.08c-4.88 1.09-11.19.89-19.05-2.37-1.18-.49-2.54.07-3.03 1.26-.49 1.18.07 2.54 1.26 3.04 5.73 2.37 10.8 3.3 15.2 3.3h.15c.29 1.86.61 4.66.55 7.61-2.14 7.98-6.62 11.82-6.88 12.03-.98.81-1.13 2.27-.33 3.26.46.56 1.13.86 1.8.86.52 0 1.04-.18 1.47-.52.3-.24 5.4-4.54 8.08-13.3.76-.15 1.56-.26 2.35-.31.76 5.5.92 10.47.93 10.56a2.32 2.32 0 0 0 2.32 2.25h.07a2.33 2.33 0 0 0 2.25-2.39c-.01-.37-.18-5.24-.94-10.83.02-2.55 0-7.58-.33-11.56 7.3-3.16 10.92-8.43 10.99-8.52.71-1.06.42-2.5-.64-3.21m-18.73 8.14c4.81 0 8.71-3.9 8.71-8.71s-3.9-8.72-8.71-8.72-8.71 3.9-8.71 8.72 3.9 8.71 8.71 8.71M370.24 131.79a2.334 2.334 0 0 0-3.03-1.26c-7.86 3.26-14.17 3.46-19.06 2.37l-.35-.08c-8.33-2-12.37-7.75-12.64-8.15a2.328 2.328 0 0 0-3.22-.64 2.321 2.321 0 0 0-.65 3.22c.07.1 4.1 5.96 12.24 9.04-1.05 2.98-2.83 8.71-3.31 14.46 0 0 .48.09 1.3.22-.4 3.93-.5 6.91-.51 7.2-.04 1.28.97 2.35 2.25 2.39h.07c1.25 0 2.28-.99 2.32-2.25 0-.07.1-2.97.48-6.77 1.3.12 2.73.21 4.17.22 2.76 6.27 6.46 9.39 6.72 9.6.43.35.95.52 1.46.52a2.33 2.33 0 0 0 1.47-4.13c-.04-.04-2.48-2.1-4.66-6.31 1.28-.21 2.46-.52 3.46-.99 0 0-2.3-7.04-2.46-12.43 3.79-.3 8.02-1.25 12.7-3.19a2.317 2.317 0 0 0 1.26-3.03m-24.97-14.96c.17.3.13.68-.1.95a8.532 8.532 0 0 0-1.9 3.84c-1.04 4.89 2.24 9.71 7.28 10.44 4.5.66 8.83-2.37 9.77-6.82a8.53 8.53 0 0 0-.17-4.24c-.1-.33.02-.69.3-.9 2.48-1.87.14 6.81 9.04 4.85-5.49-1.29-2.77-6.31-3.44-8.33-.64-1.9-4.03-3.59-7.07 1.23l-.49.04a8.49 8.49 0 0 0-4.87-2.96 8.602 8.602 0 0 0-5.64.7l-.43-.23c-.81-5.63-4.6-5.48-5.96-4.01-1.45 1.57-1.02 7.27-6.55 6.2 7.29 5.43 8.72-3.42 10.23-.74M328.96 82.02c-1.94 1.01-4.04 2.31-6.45 3.99v.02c2.43-1.69 4.51-2.93 6.45-3.94v-.07Zm-17.22 12.84c-2.59 2.75-4.72 5.72-6.45 8.69v.06c1.74-2.98 3.87-5.93 6.45-8.69v-.06ZM342.36 77.92c-4.07.66-7.38 1.33-11.19 3.03 3.81-1.69 7.13-2.37 11.19-3.02ZM348.48 79.97c-23.36 2.34-42.24 19.87-46.62 42.57.04.19.07.37.1.55l46.51-43.12Z"/><path class="cls-3" d="M298.14 123.09c-.06.32-.11.62-.16.91l.48.39c-.06-.4-.13-.79-.2-1.19l-.12-.11ZM251.64 79.98l46.5 43.11c.02-.09.03-.17.05-.26-4.27-22.8-23.14-40.45-46.55-42.85M301.97 123.09l-.25.23c-.16.9-.3 1.8-.41 2.71l1.24 1.15s-.11-1.56-.58-4.1"/><path class="cls-3" d="M298.19 122.83c-.02.09-.03.18-.05.26l.12.11c-.02-.13-.04-.24-.07-.37M275.98 74.09c0-1.07-.39-2.06-1.11-2.85.29-.52.44-1.11.44-1.72 0-1.08-.49-2.09-1.32-2.76.1-.28.16-.57.16-.87a2.5 2.5 0 1 0-4.79 1.01c-.74.67-1.15 1.61-1.15 2.62 0 .61.15 1.19.44 1.72-.72.78-1.11 1.78-1.11 2.85 0 2.05 1.46 3.76 3.4 4.14v3.76c.54.28 1.06.53 1.63.85v-4.61c1.94-.38 3.4-2.09 3.4-4.14M264.51 74.77c0-.48-.39-.88-.88-.88h-12.04c-.49 0-.88.39-.88.88s.39.88.88.88h1.54v1.55c.63.1 1.17.18 1.76.27v-1.82h5.56v2.77c.59.11 1.19.24 1.76.37v-3.13h1.43c.48 0 .88-.39.88-.88m-11.38 6.6v.34h.37l-.37-.34ZM250.72 70.09c0 .49.39.88.88.88h12.04c.49 0 .88-.39.88-.88s-.39-.88-.88-.88h-12.03c-.49 0-.88.39-.88.88M263.64 71.55H251.6c-.48 0-.88.39-.88.88s.39.88.88.88h12.04c.49 0 .88-.39.88-.88s-.39-.88-.88-.88"/><path class="cls-3" d="M286.41 77.95c0-1.37-.5-2.65-1.42-3.65.37-.67.57-1.43.57-2.2 0-1.38-.62-2.68-1.69-3.54.13-.36.2-.73.2-1.11 0-1.77-1.44-3.21-3.21-3.21a3.214 3.214 0 0 0-2.94 4.5 4.52 4.52 0 0 0-1.48 3.36c0 .77.2 1.53.57 2.2-.92 1-1.42 2.28-1.42 3.65 0 2.7 1.99 4.94 4.58 5.34v4.64c.53.4 1.08.8 1.64 1.23V83.3c2.6-.39 4.6-2.64 4.6-5.34M298.07 86.46c0-1.58-.58-3.06-1.64-4.22a5.265 5.265 0 0 0-1.29-6.64 3.709 3.709 0 0 0-3.48-4.99c-2.05 0-3.71 1.66-3.71 3.71 0 .51.11 1.02.32 1.49-1.09 1-1.71 2.39-1.71 3.88 0 .9.23 1.77.66 2.55a6.207 6.207 0 0 0-1.64 4.22c0 3.15 2.34 5.76 5.38 6.19v5.23c.57.72 1.12 1.45 1.63 2.19v-7.4c3.1-.38 5.5-3.02 5.5-6.21M281.1 51.45c1.82 0 3.3-1.48 3.3-3.3s-1.48-3.3-3.3-3.3-3.3 1.47-3.3 3.3 1.48 3.3 3.3 3.3M284.41 43.88v.97h.96l2.83-2.82v-.97h-.97l-2.82 2.82zM274.01 54.29v.96c.27.27.7.27.96 0l2.82-2.82v-.96a.682.682 0 0 0-.97 0L274 54.29ZM286.46 47.48a.68.68 0 0 0 0 1.36h3.99a.68.68 0 0 0 0-1.36h-3.99ZM271.75 47.48a.68.68 0 0 0 0 1.36h3.99a.68.68 0 0 0 0-1.36h-3.99ZM277.8 43.88v.97h-.97l-2.82-2.82v-.97h.97l2.82 2.82zM288.2 54.29v.96a.67.67 0 0 1-.96 0l-2.82-2.82v-.96c.27-.27.7-.27.97 0l2.82 2.82ZM281.79 42.8a.68.68 0 0 1-1.36 0v-3.99c0-.38.3-.68.68-.68s.68.3.68.68v3.99ZM281.79 57.51a.68.68 0 0 1-1.36 0v-4c0-.38.3-.68.68-.68s.68.3.68.68v4Z"/></svg>