<?xml version="1.0" encoding="UTF-8"?>
<svg id="Capa_2" data-name="Capa 2" xmlns="http://www.w3.org/2000/svg" viewBox="0 0 400 200">
  <defs>
    <style>
      .cls-1 {
        fill: none;
      }

      .cls-1, .cls-2, .cls-3 {
        stroke-width: 0px;
      }

      .cls-2 {
        fill: #af067d;
      }

      .cls-3 {
        fill: #faf2fc;
      }
    </style>
  </defs>
  <g id="Capa_1-2" data-name="Capa 1">
    <g>
      <g>
        <rect class="cls-1" width="200" height="200"/>
        <g id="n75uZJ.tif">
          <path class="cls-2" d="m128.62,136.65c.96,2.98,2.07,5.91,2.84,8.94,1.19,4.68,1.43,9.42-.33,14.06-2.88,7.58-10.46,10.39-17.62,6.52-4.88-2.63-7.99-6.87-10.29-11.76-1.1-2.33-1.96-4.77-3.44-7.25-.43,1.2-.87,2.4-1.31,3.6-1.66,4.52-3.93,8.66-7.38,12.08-2.28,2.26-4.9,3.97-8.04,4.7-7.08,1.65-13.46-2.96-14.86-10.52-1.14-6.17.22-11.94,2.43-17.63.35-.89.51-1.85.76-2.78.05-.05.1-.1.15-.15-.03.07-.06.14-.09.21-.81.33-1.67.57-2.41,1-4.16,2.4-8.53,4.16-13.29,4.96-3.09.52-6.11.32-9.06-.61-6.94-2.18-10.14-9.03-7.53-15.96,1.75-4.64,5.08-8.01,9.01-10.8,1.89-1.35,4-2.39,6.02-3.56.74-.43,1.48-.85,2.6-1.48-3.53-.85-6.59-1.39-9.52-2.33-5.39-1.71-10.3-4.3-13.6-9.14-4.15-6.09-2.7-13.31,3.51-17.04,1.81-1.09,3.9-1.81,5.96-2.37,4.81-1.31,9.63-.64,14.41.34,1.29.26,2.58.58,4.16.41-.66-.8-1.31-1.6-1.98-2.39-3.45-4.09-6.46-8.48-7.71-13.73-.63-2.65-.91-5.54-.58-8.23.9-7.32,7.45-11.4,14.6-9.49,5.21,1.39,9.4,4.39,13.05,8.21,1.9,2,3.62,4.17,5.94,6.26,0-.91.02-1.81,0-2.72-.12-5.9.46-11.71,3.16-17.05,1.07-2.12,2.52-4.21,4.26-5.81,4.95-4.55,11.96-3.93,16.51,1.24,3.19,3.63,4.81,8,5.42,12.7.43,3.28.44,6.62.63,9.93.03.53.05,1.05.1,2.22.83-.96,1.35-1.49,1.79-2.08,2.95-3.89,6.15-7.58,10.41-10.03,2.37-1.37,5-2.63,7.67-3.08,8.48-1.44,14.65,4.65,13.94,13.34-.58,7.04-4.02,12.74-8.35,18.03-.72.88-1.48,1.75-2.64,3.11,3.35-.59,6.03-1.09,8.73-1.54,4.53-.76,8.97-.35,13.27,1.19,6.4,2.29,9.63,7.56,8.54,13.8-.52,2.94-2.12,5.32-4.21,7.37-4.04,3.96-9.05,6.07-14.44,7.39-1.98.49-4,.81-6.7,1.35,1.36.76,2.23,1.29,3.13,1.74,4.29,2.16,8.2,4.83,11.31,8.55,1.87,2.23,3.28,4.69,3.92,7.57,1.46,6.61-2.13,12.43-8.68,14.24-5.11,1.41-9.99.5-14.77-1.27-2.43-.9-4.69-2.23-7.04-3.33-.78-.36-1.62-.6-2.43-.9-.05-.06-.1-.11-.14-.17.07.04.14.07.21.11Zm-22.5-56.81c.75-2.65,1.61-5.37,2.29-8.14,1.55-6.3,2.41-12.69,1.9-19.19-.31-3.96-1.16-7.82-3.33-11.23-3.85-6.04-9.92-6.06-13.81-.07-.44.67-.92,1.38-1.12,2.13-.82,3.19-1.89,6.37-2.23,9.63-.64,6.12.38,12.17,1.74,18.13.69,3.02,1.67,5.97,2.45,8.73h12.11Zm13.4,9.34c5.12-3.05,9.82-6.75,14.1-10.98,3.59-3.55,6.75-7.43,8.88-12.07,1.29-2.81,2.14-5.73,1.87-8.85-.42-4.82-3.69-7.37-8.49-6.73-3.04.41-5.59,1.88-7.94,3.72-4.23,3.3-7.5,7.45-10.26,12-2.97,4.91-5.4,10.07-7.27,15.27,3.07,2.58,5.93,4.97,9.11,7.64Zm-29.78-7.84c-1.56-3.43-3.09-7.14-4.92-10.71-3-5.87-6.66-11.28-11.73-15.61-2.41-2.06-5.04-3.76-8.22-4.38-5.14-1-8.65,1.6-9.13,6.81-.11,1.14.01,2.33.2,3.48.62,3.8,2.36,7.14,4.55,10.24,5.15,7.31,11.93,12.85,19.41,17.61.28.18.66.18.75.2,3.04-2.55,5.9-4.95,9.09-7.63Zm-11.59,12.09c-.29-.21-.75-.64-1.3-.89-4.79-2.23-9.5-4.67-14.41-6.58-4.69-1.82-9.65-2.81-14.76-2.6-3,.12-5.89.74-8.42,2.45-3.47,2.34-4.37,6.05-2.18,9.62.92,1.5,2.12,2.98,3.54,3.97,2.11,1.48,4.42,2.81,6.83,3.68,9.01,3.24,18.33,3.02,27.68,2.07.5-.05.96-.37,1.12-.43.64-3.81,1.23-7.32,1.9-11.29Zm45.86,11.31c.14.06.38.23.63.26,9.71,1.18,19.36,1.29,28.71-2.13,3.66-1.34,7.01-3.27,9.29-6.61,2.94-4.31,1.8-9.08-2.97-11.19-2.24-.99-4.81-1.56-7.26-1.69-7.64-.39-14.68,2.07-21.48,5.22-3.14,1.45-6.17,3.14-8.94,4.57.72,4.09,1.35,7.67,2.03,11.57Zm-47.06,4.68c-3.53.82-7.3,1.55-10.98,2.58-6.08,1.69-11.86,4.09-16.82,8.13-2.6,2.12-4.78,4.58-5.87,7.86-1.43,4.32.21,7.86,4.49,9.5,3.05,1.17,6.18,1.03,9.26.22,10.7-2.82,18.5-9.86,25.66-17.8.1-.11.09-.33.08-.3-1.88-3.3-3.69-6.46-5.82-10.18Zm40.29,10.39s.07.29.24.47c5.88,6.5,12.39,12.19,20.52,15.76,3.75,1.65,7.62,2.57,11.76,2.16,6.15-.62,9.12-5.53,6.66-11.16-.53-1.21-1.25-2.41-2.14-3.39-1.44-1.58-2.95-3.17-4.68-4.4-8-5.73-17.24-8.02-26.55-9.53-1.99,3.47-3.85,6.71-5.8,10.1Zm-30.6,3.11c-5.88,6.89-10.96,14.35-13.41,23.28-.98,3.57-1.31,7.22-.26,10.92,1.57,5.56,6.45,7.77,11.54,4.99,1.32-.72,2.65-1.64,3.58-2.79,1.69-2.07,3.42-4.22,4.56-6.61,3.82-8.02,4.95-16.63,5.03-25.42,0-.25-.14-.5-.15-.52-3.61-1.28-7.06-2.5-10.89-3.85Zm15.59,4.02c.34,3.77.54,7.8,1.1,11.77.89,6.26,2.62,12.28,6.22,17.6,1.63,2.41,3.57,4.49,6.22,5.82,5.11,2.57,9.72.52,11.38-4.97,1.22-4.06.65-8.01-.49-11.93-2.15-7.36-6.2-13.68-10.91-19.63-.77-.97-1.63-1.87-2.29-2.63-3.7,1.3-7.14,2.52-11.23,3.96Z"/>
        </g>
      </g>
      <g>
        <rect class="cls-1" x="200" width="200" height="200"/>
        <g id="n75uZJ.tif-2" data-name="n75uZJ.tif">
          <path class="cls-3" d="m328.62,136.65c.96,2.98,2.07,5.91,2.84,8.94,1.19,4.68,1.43,9.42-.33,14.06-2.88,7.58-10.46,10.39-17.62,6.52-4.88-2.63-7.99-6.87-10.29-11.76-1.1-2.33-1.96-4.77-3.44-7.25-.43,1.2-.87,2.4-1.31,3.6-1.66,4.52-3.93,8.66-7.38,12.08-2.28,2.26-4.9,3.97-8.04,4.7-7.08,1.65-13.46-2.96-14.86-10.52-1.14-6.17.22-11.94,2.43-17.63.35-.89.51-1.85.76-2.78.05-.05.1-.1.15-.15-.03.07-.06.14-.09.21-.81.33-1.67.57-2.41,1-4.16,2.4-8.53,4.16-13.29,4.96-3.09.52-6.11.32-9.06-.61-6.94-2.18-10.14-9.03-7.53-15.96,1.75-4.64,5.08-8.01,9.01-10.8,1.89-1.35,4-2.39,6.02-3.56.74-.43,1.48-.85,2.6-1.48-3.53-.85-6.59-1.39-9.52-2.33-5.39-1.71-10.3-4.3-13.6-9.14-4.15-6.09-2.7-13.31,3.51-17.04,1.81-1.09,3.9-1.81,5.96-2.37,4.81-1.31,9.63-.64,14.41.34,1.29.26,2.58.58,4.16.41-.66-.8-1.31-1.6-1.98-2.39-3.45-4.09-6.46-8.48-7.71-13.73-.63-2.65-.91-5.54-.58-8.23.9-7.32,7.45-11.4,14.6-9.49,5.21,1.39,9.4,4.39,13.05,8.21,1.9,2,3.62,4.17,5.94,6.26,0-.91.02-1.81,0-2.72-.12-5.9.46-11.71,3.16-17.05,1.07-2.12,2.52-4.21,4.26-5.81,4.95-4.55,11.96-3.93,16.51,1.24,3.19,3.63,4.81,8,5.42,12.7.43,3.28.44,6.62.63,9.93.03.53.05,1.05.1,2.22.83-.96,1.35-1.49,1.79-2.08,2.95-3.89,6.15-7.58,10.41-10.03,2.37-1.37,5-2.63,7.67-3.08,8.48-1.44,14.65,4.65,13.94,13.34-.58,7.04-4.02,12.74-8.35,18.03-.72.88-1.48,1.75-2.64,3.11,3.35-.59,6.03-1.09,8.73-1.54,4.53-.76,8.97-.35,13.27,1.19,6.4,2.29,9.63,7.56,8.54,13.8-.52,2.94-2.12,5.32-4.21,7.37-4.04,3.96-9.05,6.07-14.44,7.39-1.98.49-4,.81-6.7,1.35,1.36.76,2.23,1.29,3.13,1.74,4.29,2.16,8.2,4.83,11.31,8.55,1.87,2.23,3.28,4.69,3.92,7.57,1.46,6.61-2.13,12.43-8.68,14.24-5.11,1.41-9.99.5-14.77-1.27-2.43-.9-4.69-2.23-7.04-3.33-.78-.36-1.62-.6-2.43-.9-.05-.06-.1-.11-.14-.17.07.04.14.07.21.11Zm-22.5-56.81c.75-2.65,1.61-5.37,2.29-8.14,1.55-6.3,2.41-12.69,1.9-19.19-.31-3.96-1.16-7.82-3.33-11.23-3.85-6.04-9.92-6.06-13.81-.07-.44.67-.92,1.38-1.12,2.13-.82,3.19-1.89,6.37-2.23,9.63-.64,6.12.38,12.17,1.74,18.13.69,3.02,1.67,5.97,2.45,8.73h12.11Zm13.4,9.34c5.12-3.05,9.82-6.75,14.1-10.98,3.59-3.55,6.75-7.43,8.88-12.07,1.29-2.81,2.14-5.73,1.87-8.85-.42-4.82-3.69-7.37-8.49-6.73-3.04.41-5.59,1.88-7.94,3.72-4.23,3.3-7.5,7.45-10.26,12-2.97,4.91-5.4,10.07-7.27,15.27,3.07,2.58,5.93,4.97,9.11,7.64Zm-29.78-7.84c-1.56-3.43-3.09-7.14-4.92-10.71-3-5.87-6.66-11.28-11.73-15.61-2.41-2.06-5.04-3.76-8.22-4.38-5.14-1-8.65,1.6-9.13,6.81-.11,1.14.01,2.33.2,3.48.62,3.8,2.36,7.14,4.55,10.24,5.15,7.31,11.93,12.85,19.41,17.61.28.18.66.18.75.2,3.04-2.55,5.9-4.95,9.09-7.63Zm-11.59,12.09c-.29-.21-.75-.64-1.3-.89-4.79-2.23-9.5-4.67-14.41-6.58-4.69-1.82-9.65-2.81-14.76-2.6-3,.12-5.89.74-8.42,2.45-3.47,2.34-4.37,6.05-2.18,9.62.92,1.5,2.12,2.98,3.54,3.97,2.11,1.48,4.42,2.81,6.83,3.68,9.01,3.24,18.33,3.02,27.68,2.07.5-.05.96-.37,1.12-.43.64-3.81,1.23-7.32,1.9-11.29Zm45.86,11.31c.14.06.38.23.63.26,9.71,1.18,19.36,1.29,28.71-2.13,3.66-1.34,7.01-3.27,9.29-6.61,2.94-4.31,1.8-9.08-2.97-11.19-2.24-.99-4.81-1.56-7.26-1.69-7.64-.39-14.68,2.07-21.48,5.22-3.14,1.45-6.17,3.14-8.94,4.57.72,4.09,1.35,7.67,2.03,11.57Zm-47.06,4.68c-3.53.82-7.3,1.55-10.98,2.58-6.08,1.69-11.86,4.09-16.82,8.13-2.6,2.12-4.78,4.58-5.87,7.86-1.43,4.32.21,7.86,4.49,9.5,3.05,1.17,6.18,1.03,9.26.22,10.7-2.82,18.5-9.86,25.66-17.8.1-.11.09-.33.08-.3-1.88-3.3-3.69-6.46-5.82-10.18Zm40.29,10.39s.07.29.24.47c5.88,6.5,12.39,12.19,20.52,15.76,3.75,1.65,7.62,2.57,11.76,2.16,6.15-.62,9.12-5.53,6.66-11.16-.53-1.21-1.25-2.41-2.14-3.39-1.44-1.58-2.95-3.17-4.68-4.4-8-5.73-17.24-8.02-26.55-9.53-1.99,3.47-3.85,6.71-5.8,10.1Zm-30.6,3.11c-5.88,6.89-10.96,14.35-13.41,23.28-.98,3.57-1.31,7.22-.26,10.92,1.57,5.56,6.45,7.77,11.54,4.99,1.32-.72,2.65-1.64,3.58-2.79,1.69-2.07,3.42-4.22,4.56-6.61,3.82-8.02,4.95-16.63,5.03-25.42,0-.25-.14-.5-.15-.52-3.61-1.28-7.06-2.5-10.89-3.85Zm15.59,4.02c.34,3.77.54,7.8,1.1,11.77.89,6.26,2.62,12.28,6.22,17.6,1.63,2.41,3.57,4.49,6.22,5.82,5.11,2.57,9.72.52,11.38-4.97,1.22-4.06.65-8.01-.49-11.93-2.15-7.36-6.2-13.68-10.91-19.63-.77-.97-1.63-1.87-2.29-2.63-3.7,1.3-7.14,2.52-11.23,3.96Z"/>
        </g>
      </g>
    </g>
  </g>
</svg>