<?xml version="1.0" encoding="UTF-8"?>
<svg id="Capa_2" data-name="Capa 2" xmlns="http://www.w3.org/2000/svg" viewBox="0 0 400 200">
  <defs>
    <style>
      .cls-1 {
        fill: none;
      }

      .cls-1, .cls-2, .cls-3 {
        stroke-width: 0px;
      }

      .cls-2 {
        fill: #af067d;
      }

      .cls-3 {
        fill: #faf2fc;
      }
    </style>
  </defs>
  <g id="Capa_1-2" data-name="Capa 1">
    <g>
      <g>
        <rect class="cls-1" width="200" height="200"/>
        <g id="Sa10yW.tif">
          <path class="cls-2" d="m131.74,164.35c-4.03,0-8.06.02-12.09,0-3.66-.03-5.18-1.5-5.44-5.16-.5-6.88-5.88-11.93-12.72-11.93-6.86,0-12.29,5.04-12.77,11.87-.27,3.78-1.79,5.22-5.62,5.23-7.9.02-15.8.04-23.71,0-8.24-.05-13.66-5.47-13.72-13.73-.05-7.9-.03-15.8,0-23.71.01-3.82,1.44-5.3,5.26-5.58,6.82-.51,11.87-5.97,11.86-12.81-.01-6.83-5.07-12.19-11.96-12.7-3.65-.27-5.15-1.81-5.16-5.46-.03-7.98-.05-15.96,0-23.94.06-8.21,5.55-13.6,13.81-13.65,6.2-.03,12.4-.06,18.59.02,1.61.02,2.45-.38,2.99-2.05,2.97-9.18,11.03-15.09,20.37-15.1,9.33-.01,17.46,5.93,20.4,15.07.53,1.64,1.33,2.1,2.97,2.08,6.2-.09,12.4-.06,18.59-.03,8.36.04,13.81,5.48,13.86,13.85.04,6.2.06,12.4-.02,18.59-.02,1.64.44,2.44,2.08,2.97,9.16,2.97,15.07,11.07,15.06,20.41,0,9.33-5.93,17.39-15.1,20.38-1.48.48-2.07,1.14-2.04,2.77.1,5.96.05,11.93.04,17.9-.01,9.58-5.19,14.72-14.84,14.73-3.56,0-7.13,0-10.69,0Zm-60.49-102.88c-3.8,0-7.59-.01-11.39,0-4.11.02-5.47,1.35-5.49,5.38-.02,6.12.05,12.24-.04,18.36-.03,1.66.49,2.42,2.1,2.95,9.16,3,15.08,11.1,15.07,20.41-.01,9.32-5.93,17.36-15.1,20.38-1.45.48-2.1,1.11-2.07,2.76.11,6.27.02,12.55.05,18.82.02,3.61,1.48,5.09,5.07,5.11,6.27.03,12.55-.05,18.82.05,1.63.03,2.28-.55,2.77-2.03,3.02-9.21,11-15.1,20.36-15.13,9.42-.03,17.39,5.85,20.51,15.24.46,1.39,1.09,1.94,2.61,1.92,6.2-.09,12.39-.02,18.59-.04,4.03-.01,5.44-1.42,5.45-5.45.02-7.67,0-15.34,0-23.01,0-4.2,1.28-5.57,5.42-5.89,6.63-.52,11.7-6.03,11.7-12.74,0-6.72-5.07-12.25-11.68-12.74-4.1-.3-5.42-1.72-5.43-5.89-.01-7.67,0-15.34,0-23.01,0-4.05-1.39-5.44-5.43-5.45-7.9-.02-15.8.02-23.71-.02-3.35-.02-4.94-1.58-5.2-4.93-.56-7.15-5.82-12.18-12.73-12.19-6.92-.01-12.25,5.04-12.79,12.12-.26,3.47-1.85,4.98-5.37,5-4.03.03-8.06,0-12.08.01Z"/>
        </g>
      </g>
      <g>
        <rect class="cls-1" x="200" width="200" height="200"/>
        <g id="Sa10yW.tif-2" data-name="Sa10yW.tif">
          <path class="cls-3" d="m331.74,164.35c-4.03,0-8.06.02-12.09,0-3.66-.03-5.18-1.5-5.44-5.16-.5-6.88-5.88-11.93-12.72-11.93-6.86,0-12.29,5.04-12.77,11.87-.27,3.78-1.79,5.22-5.62,5.23-7.9.02-15.8.04-23.71,0-8.24-.05-13.66-5.47-13.72-13.73-.05-7.9-.03-15.8,0-23.71.01-3.82,1.44-5.3,5.26-5.58,6.82-.51,11.87-5.97,11.86-12.81-.01-6.83-5.07-12.19-11.96-12.7-3.65-.27-5.15-1.81-5.16-5.46-.03-7.98-.05-15.96,0-23.94.06-8.21,5.55-13.6,13.81-13.65,6.2-.03,12.4-.06,18.59.02,1.61.02,2.45-.38,2.99-2.05,2.97-9.18,11.03-15.09,20.37-15.1,9.33-.01,17.46,5.93,20.4,15.07.53,1.64,1.33,2.1,2.97,2.08,6.2-.09,12.4-.06,18.59-.03,8.36.04,13.81,5.48,13.86,13.85.04,6.2.06,12.4-.02,18.59-.02,1.64.44,2.44,2.08,2.97,9.16,2.97,15.07,11.07,15.06,20.41,0,9.33-5.93,17.39-15.1,20.38-1.48.48-2.07,1.14-2.04,2.77.1,5.96.05,11.93.04,17.9-.01,9.58-5.19,14.72-14.84,14.73-3.56,0-7.13,0-10.69,0Zm-60.49-102.88c-3.8,0-7.59-.01-11.39,0-4.11.02-5.47,1.35-5.49,5.38-.02,6.12.05,12.24-.04,18.36-.03,1.66.49,2.42,2.1,2.95,9.16,3,15.08,11.1,15.07,20.41-.01,9.32-5.93,17.36-15.1,20.38-1.45.48-2.1,1.11-2.07,2.76.11,6.27.02,12.55.05,18.82.02,3.61,1.48,5.09,5.07,5.11,6.27.03,12.55-.05,18.82.05,1.63.03,2.28-.55,2.77-2.03,3.02-9.21,11-15.1,20.36-15.13,9.42-.03,17.39,5.85,20.51,15.24.46,1.39,1.09,1.94,2.61,1.92,6.2-.09,12.39-.02,18.59-.04,4.03-.01,5.44-1.42,5.45-5.45.02-7.67,0-15.34,0-23.01,0-4.2,1.28-5.57,5.42-5.89,6.63-.52,11.7-6.03,11.7-12.74,0-6.72-5.07-12.25-11.68-12.74-4.1-.3-5.42-1.72-5.43-5.89-.01-7.67,0-15.34,0-23.01,0-4.05-1.39-5.44-5.43-5.45-7.9-.02-15.8.02-23.71-.02-3.35-.02-4.94-1.58-5.2-4.93-.56-7.15-5.82-12.18-12.73-12.19-6.92-.01-12.25,5.04-12.79,12.12-.26,3.47-1.85,4.98-5.37,5-4.03.03-8.06,0-12.08.01Z"/>
        </g>
      </g>
    </g>
  </g>
</svg>