<svg xmlns="http://www.w3.org/2000/svg" viewBox="0 0 400 200"><defs><style>.cls-1{fill:none}.cls-1,.cls-2,.cls-3{stroke-width:0}.cls-2{fill:#7600db}.cls-3{fill:#faf2fc}</style></defs><path class="cls-1" d="M0 0h200v200H0z"/><path class="cls-2" d="M146.52 82.7c-2.94 2.79-3.18 7.56-.53 10.65l3.17 3.72c2.64 3.1 7.16 3.35 10.1.56L146.52 82.7ZM88.73 89.41c.02 4.17 3.23 7.53 7.18 7.51l4.74-.02c3.95-.02 7.14-3.41 7.13-7.57l-19.04.08ZM145.69 95.53c-.34.25-.65.56-.9.93l-4.76 7.04-7.71-7.21h-17.87l-7.71 7.21-3.02-4.47H95c.02.75.26 1.5.71 2.16l7.26 10.71a3.76 3.76 0 0 0 5.71.68l5.89-5.51v9.03l-5.48 22.14h5.61v16.56c0 2.24 1.73 4.06 3.87 4.06s3.86-1.82 3.86-4.06v-16.56h1.93v16.56c0 2.24 1.73 4.06 3.86 4.06s3.87-1.83 3.87-4.06v-16.56h5.61l-5.48-22.21v-8.96l5.89 5.51c1.69 1.58 4.38 1.29 5.71-.68l7.26-10.71c.11-.17.22-.35.32-.54-1.29-.49-2.47-1.33-3.42-2.45l-2.27-2.67ZM123.39 77.22c4.55 0 8.23 3.89 8.23 8.68s-3.68 8.68-8.23 8.68-8.23-3.89-8.23-8.68 3.69-8.68 8.23-8.68M57.09 78.78c-2.89-2.84-3.15-7.53-.6-10.68l.23-.29c.55-.61 1.19-1.12 1.86-1.51-4.42.38-8.32 3.66-9.5 8.46l-8.07 33.05c-1.09 4.45 1.24 9.45 6.06 10.77 14.6 12.15 5.92 28.03 4.8 29.92-1.54 2.58-.82 5.99 1.62 7.63 2.44 1.64 5.68.89 7.25-1.7 4.85-8.04 9.64-25.71-2.43-39.88 8.35 4.13 13.81 18.69 13.88 18.87 1.02 2.86 4.04 4.31 6.75 3.24 2.72-1.07 4.1-4.26 3.08-7.13-.35-1-7.5-20.68-21.2-25.9l6.77-17.14c-3.42-1.75-6.97-4.26-10.5-7.71"/><path class="cls-2" d="M96.82 84.17c1.31-1.62 1.67-3.97.74-6.01-1.27-2.76-4.4-3.91-7.01-2.58-.12.06-12.11 5.96-24.87-6.54-2.13-2.08-5.45-1.95-7.42.29-1.98 2.23-1.85 5.75.27 7.83 17.03 16.67 35.72 10.19 38.3 7.01M56.31 45.01c3.77-4.65 10.4-5.2 14.81-1.23s4.93 10.97 1.16 15.62c-3.77 4.65-10.4 5.2-14.81 1.23s-4.93-10.97-1.17-15.62"/><path class="cls-1" d="M200 0h200v200H200z"/><path class="cls-3" d="M346.52 82.7c-2.94 2.79-3.18 7.56-.53 10.65l3.17 3.72c2.64 3.1 7.16 3.35 10.1.56L346.52 82.7ZM288.73 89.41c.02 4.17 3.23 7.53 7.18 7.51l4.74-.02c3.95-.02 7.14-3.41 7.13-7.57l-19.04.08ZM345.69 95.53c-.34.25-.65.56-.9.93l-4.76 7.04-7.71-7.21h-17.87l-7.71 7.21-3.02-4.47H295c.02.75.26 1.5.71 2.16l7.26 10.71a3.76 3.76 0 0 0 5.71.68l5.89-5.51v9.03l-5.48 22.14h5.61v16.56c0 2.24 1.73 4.06 3.87 4.06s3.86-1.82 3.86-4.06v-16.56h1.93v16.56c0 2.24 1.73 4.06 3.86 4.06s3.87-1.83 3.87-4.06v-16.56h5.61l-5.48-22.21v-8.96l5.89 5.51c1.69 1.58 4.38 1.29 5.71-.68l7.26-10.71c.11-.17.22-.35.32-.54-1.29-.49-2.47-1.33-3.42-2.45l-2.27-2.67ZM323.39 77.22c4.55 0 8.23 3.89 8.23 8.68s-3.68 8.68-8.23 8.68-8.23-3.89-8.23-8.68 3.69-8.68 8.23-8.68M257.09 78.78c-2.89-2.84-3.15-7.53-.6-10.68l.23-.29c.55-.61 1.19-1.12 1.86-1.51-4.42.38-8.32 3.66-9.5 8.46l-8.07 33.05c-1.09 4.45 1.24 9.45 6.06 10.77 14.6 12.15 5.92 28.03 4.8 29.92-1.54 2.58-.82 5.99 1.62 7.63 2.44 1.64 5.68.89 7.25-1.7 4.85-8.04 9.64-25.71-2.43-39.88 8.35 4.13 13.81 18.69 13.88 18.87 1.02 2.86 4.04 4.31 6.75 3.24 2.72-1.07 4.1-4.26 3.08-7.13-.35-1-7.5-20.68-21.2-25.9l6.77-17.14c-3.42-1.75-6.97-4.26-10.5-7.71"/><path class="cls-3" d="M296.82 84.17c1.31-1.62 1.67-3.97.74-6.01-1.27-2.76-4.4-3.91-7.01-2.58-.12.06-12.11 5.96-24.87-6.54-2.13-2.08-5.45-1.95-7.42.29-1.98 2.23-1.85 5.75.27 7.83 17.03 16.67 35.72 10.19 38.3 7.01M256.31 45.01c3.77-4.65 10.4-5.2 14.81-1.23s4.93 10.97 1.16 15.62c-3.77 4.65-10.4 5.2-14.81 1.23s-4.93-10.97-1.17-15.62"/></svg>