<svg xmlns="http://www.w3.org/2000/svg" viewBox="0 0 400 200"><defs><style>.cls-1{fill:none;stroke-width:0}</style></defs><path class="cls-1" d="M0 0h200v200H0zM200 0h200v200H200z"/><path d="M170.34 108.86V77.59c0-1.65-1.36-2.99-3.02-2.99s-3.02 1.34-3.02 2.99v17.18c0 .3-.12.59-.33.8-.32.32-.82.42-1.24.25-.42-.17-.7-.59-.7-1.05V72.62c0-1.66-1.35-3.01-3.01-3.01S156 70.96 156 72.62v22.15c0 .63-.51 1.14-1.13 1.14s-1.14-.51-1.14-1.14V65.98c0-1.66-1.35-3.01-3.01-3.01s-3.02 1.35-3.02 3.01v28.79c0 .63-.51 1.14-1.13 1.14s-1.14-.51-1.14-1.14V72.62c0-1.66-1.35-3.01-3.01-3.01s-3.01 1.35-3.01 3.01V104.72c0 .63-.51 1.14-1.13 1.14-.63 0-1.14-.51-1.14-1.14V91.13c-.01-1.65-1.35-3-3.01-3s-3.02 1.36-3.02 3.02v12.05c0 3.71 1.2 7.41 3.39 10.43.76 1.6 5.72 5.03 5.06 13.64h23.59c4.15-9.08 7.19-12.11 7.19-18.43m-57.79-11.87c3.96-8.72 7.17-12.02 7.17-18.43V47.27c0-1.66-1.36-3.02-3.02-3.02a3 3 0 0 0-3.02 2.9v17.29c0 .12-.02.24-.06.36-.17.53-.7.85-1.26.76-.54-.09-.95-.56-.95-1.12V42.29c0-1.66-1.35-3.02-3.02-3.02s-3.01 1.35-3.01 3.02v22.15c0 .63-.51 1.13-1.14 1.13s-1.13-.5-1.13-1.13V35.65c0-1.66-1.35-3.01-3.02-3.01s-3.02 1.35-3.02 3.01v28.79c0 .63-.51 1.13-1.13 1.13s-1.14-.5-1.14-1.13V42.29c0-1.66-1.35-3.02-3.01-3.02s-3.02 1.35-3.02 3.02v32.1c0 .64-.51 1.15-1.13 1.15s-1.14-.51-1.14-1.13V60.84c0-1.67-1.35-3.02-3.02-3.02s-3.02 1.36-3.02 3.02v12.02c0 3.76 1.17 7.37 3.39 10.45.7 1.5 5.73 4.98 5.06 13.64h23.61ZM61.7 148.91c4.12-9.04 7.17-12.08 7.17-18.43V99.22c0-1.67-1.36-3.02-3.02-3.02s-2.95 1.29-3.02 2.9v17.3c0 .63-.51 1.13-1.14 1.13-.45 0-.83-.25-1.02-.63-.07-.16-.12-.33-.12-.51V94.24c0-1.66-1.35-3.02-3.02-3.02s-3.01 1.35-3.01 3.02v22.15c0 .63-.51 1.13-1.14 1.13s-1.13-.5-1.13-1.13V87.6c0-1.66-1.35-3.01-3.01-3.01s-3.02 1.35-3.02 3.01v28.79c0 .63-.51 1.13-1.13 1.13s-1.14-.5-1.14-1.13V94.24c0-1.66-1.36-3.02-3.02-3.02s-3.01 1.35-3.01 3.02v32.11c0 .63-.51 1.13-1.13 1.13s-1.14-.51-1.14-1.13v-13.57c0-1.67-1.36-3.02-3.02-3.02s-2.99 1.35-2.99 3.02v12.05c0 3.73 1.2 7.44 3.37 10.43.71 1.52 5.72 5 5.06 13.65h23.61Zm-27.55 4.45v13.95h30.9v-13.95c0-1.2-.98-2.18-2.18-2.18H36.32c-1.2 0-2.18.98-2.18 2.18m50.85-51.94v65.89h30.9v-65.89c0-1.22-.95-2.18-2.17-2.18H87.17c-1.22 0-2.17.96-2.17 2.18m50.6 30.29v35.6h30.92v-35.6c0-1.18-1-2.18-2.18-2.18h-26.55c-1.21 0-2.2.98-2.2 2.18" style="fill:#af067d;stroke-width:0"/><path d="M370.34 108.86V77.59c0-1.65-1.36-2.99-3.02-2.99s-3.02 1.34-3.02 2.99v17.18c0 .3-.12.59-.33.8-.32.32-.82.42-1.24.25-.42-.17-.7-.59-.7-1.05V72.62c0-1.66-1.35-3.01-3.01-3.01S356 70.96 356 72.62v22.15c0 .63-.51 1.14-1.13 1.14s-1.14-.51-1.14-1.14V65.98c0-1.66-1.35-3.01-3.01-3.01s-3.02 1.35-3.02 3.01v28.79c0 .63-.51 1.14-1.13 1.14s-1.14-.51-1.14-1.14V72.62c0-1.66-1.35-3.01-3.01-3.01s-3.01 1.35-3.01 3.01V104.72c0 .63-.51 1.14-1.13 1.14-.63 0-1.14-.51-1.14-1.14V91.13c-.01-1.65-1.35-3-3.01-3s-3.02 1.36-3.02 3.02v12.05c0 3.71 1.2 7.41 3.39 10.43.76 1.6 5.72 5.03 5.06 13.64h23.59c4.15-9.08 7.19-12.11 7.19-18.43m-57.79-11.87c3.96-8.72 7.17-12.02 7.17-18.43V47.27c0-1.66-1.36-3.02-3.02-3.02a3 3 0 0 0-3.02 2.9v17.29c0 .12-.02.24-.06.36-.17.53-.7.85-1.26.76-.54-.09-.95-.56-.95-1.12V42.29c0-1.66-1.35-3.02-3.02-3.02s-3.01 1.35-3.01 3.02v22.15c0 .63-.51 1.13-1.14 1.13s-1.13-.5-1.13-1.13V35.65c0-1.66-1.35-3.01-3.02-3.01s-3.02 1.35-3.02 3.01v28.79c0 .63-.51 1.13-1.13 1.13s-1.14-.5-1.14-1.13V42.29c0-1.66-1.35-3.02-3.01-3.02s-3.02 1.35-3.02 3.02v32.1c0 .64-.51 1.15-1.13 1.15s-1.14-.51-1.14-1.13V60.84c0-1.67-1.35-3.02-3.02-3.02s-3.02 1.36-3.02 3.02v12.02c0 3.76 1.17 7.37 3.39 10.45.7 1.5 5.73 4.98 5.06 13.64h23.61Zm-50.85 51.94c4.12-9.04 7.17-12.08 7.17-18.43V99.22c0-1.67-1.36-3.02-3.02-3.02s-2.95 1.29-3.02 2.9v17.3c0 .63-.51 1.13-1.14 1.13-.45 0-.83-.25-1.02-.63-.07-.16-.12-.33-.12-.51V94.24c0-1.66-1.35-3.02-3.02-3.02s-3.01 1.35-3.01 3.02v22.15c0 .63-.51 1.13-1.14 1.13s-1.13-.5-1.13-1.13V87.6c0-1.66-1.35-3.01-3.01-3.01s-3.02 1.35-3.02 3.01v28.79c0 .63-.51 1.13-1.13 1.13s-1.14-.5-1.14-1.13V94.24c0-1.66-1.36-3.02-3.02-3.02s-3.01 1.35-3.01 3.02v32.11c0 .63-.51 1.13-1.13 1.13s-1.14-.51-1.14-1.13v-13.57c0-1.67-1.36-3.02-3.02-3.02s-2.99 1.35-2.99 3.02v12.05c0 3.73 1.2 7.44 3.37 10.43.71 1.52 5.72 5 5.06 13.65h23.61Zm-27.55 4.45v13.95h30.9v-13.95c0-1.2-.98-2.18-2.18-2.18h-26.55c-1.2 0-2.18.98-2.18 2.18m50.85-51.94v65.89h30.9v-65.89c0-1.22-.95-2.18-2.17-2.18h-26.55c-1.22 0-2.17.96-2.17 2.18m50.6 30.29v35.6h30.92v-35.6c0-1.18-1-2.18-2.18-2.18h-26.55c-1.21 0-2.2.98-2.2 2.18" style="fill:#faf2fc;stroke-width:0"/></svg>