<?xml version="1.0" encoding="UTF-8"?>
<svg id="Capa_2" data-name="Capa 2" xmlns="http://www.w3.org/2000/svg" viewBox="0 0 400 200">
  <defs>
    <style>
      .cls-1 {
        fill: none;
      }

      .cls-1, .cls-2, .cls-3 {
        stroke-width: 0px;
      }

      .cls-2 {
        fill: #af067d;
      }

      .cls-3 {
        fill: #faf2fc;
      }
    </style>
  </defs>
  <g id="Capa_1-2" data-name="Capa 1">
    <g>
      <rect class="cls-1" width="200" height="200"/>
      <g>
        <rect class="cls-1" x="200" width="200" height="200"/>
        <g id="ndGtwH.tif">
          <path class="cls-3" d="m278.08,167.69h-1.83c-1.53-.9-1.37-2.24-1.37-3.53,0-7.13,0-14.27,0-21.4,0-.93,0-1.86,0-3.04-6.69,1.42-13.08,2.78-19.76,4.2.15.75.28,1.57.49,2.36,1.56,5.89,3.16,11.77,4.7,17.66.32,1.24.63,2.56-.84,3.69h-2.69c-.51-1.55-1.11-3.13-1.54-4.74-1.68-6.21-3.28-12.45-4.97-18.66-1.37-5.03-1-5.94,3.68-8.25.37-.18.75-.36,1.42-.67-.34-1.43-.67-2.8-1-4.18-7.9-1.88-12.16-7.66-15.94-13.92-1.68-2.79-3.12-5.73-4.71-8.58-.76-1.37-.94-2.79-.25-4.18,1.21-2.45,4.29-2.78,6.24-.56,1.81,2.06,3.39,4.33,5.12,6.46.54.66,1.26,1.17,2.36,2.17.07-1.24.23-1.82.11-2.32-1.8-7.24-3.64-14.48-5.47-21.71-.13-.5-.27-.99-.38-1.5-.6-2.95.25-4.66,2.6-5.31,2.32-.64,4.03.51,4.84,3.35,1.13,3.96,2.19,7.94,3.3,11.91.27.98.61,1.94.98,3.12.75-.22,1.35-.4,2.17-.64-.2-1.42-.34-2.68-.56-3.93-.98-5.49-1.97-10.99-2.97-16.48-.31-1.69.13-3.07,1.63-3.99,1.45-.89,3.13-.85,4.28.32.62.63,1.1,1.55,1.29,2.42,1.31,5.77,2.52,11.57,3.77,17.36.16.74.37,1.48.58,2.32h1.94c.09-.53.28-1.03.23-1.5-.71-5.79-1.45-11.58-3.15-17.2-.54-1.8-.98-3.65-1.29-5.51-.69-4.08,1.4-7.61,5.04-8.75,3.69-1.15,7.49.48,9.31,4.09.96,1.91,1.72,3.93,2.62,5.88.2.44.58.8,1.22,1.64,0-1.4,0-2.3,0-3.19,0-8.85.09-17.7-.03-26.56-.07-4.95,3.68-7.71,7.14-7.93,4.44-.28,7.82,2.55,8.18,7.05.2,2.47.25,4.95.63,7.42.32-4.54.63-9.07.95-13.61.41-5.94,6.47-8.5,11.2-6.07,2.91,1.49,3.91,4.16,3.89,7.31-.02,2.74,0,5.48-.25,8.21.39-1.8.62-3.65,1.19-5.39,1.25-3.76,4.69-5.66,8.54-4.91,3.42.67,5.87,3.77,5.75,7.52-.09,2.74-.43,5.48-.63,8.22-.06.81,0,1.63.39,2.51.15-.46.28-.92.45-1.37,1.29-3.49,4.45-5.33,7.92-4.61,3.3.69,5.51,3.65,5.24,7.25-.34,4.45-.65,8.92-1.26,13.34-.8,5.79-1.4,11.59-1.41,17.44,0,2.32-.24,4.63-.34,6.95-.04,1.01,0,2.02,0,3.14.68.06,1.15.09,1.9.16.25-1.44.53-2.76.68-4.1.58-5.21,1.12-10.42,1.69-15.63.08-.76.2-1.55.49-2.24.63-1.54,1.91-2.26,3.47-2.09,1.42.15,2.63,1.32,2.77,2.94.1,1.19-.06,2.4-.15,3.6-.41,5.22-.86,10.45-1.27,15.67-.07.83,0,1.67,0,2.65.72.07,1.19.12,1.66.17.18-.29.4-.49.44-.71.82-4.82,1.62-9.65,2.43-14.48.1-.59.16-1.2.37-1.75.69-1.75,2.21-2.61,3.85-2.27,1.78.37,2.88,1.55,2.72,3.49-.26,3.25-.76,6.48-1.19,9.71-.67,5.02-1.38,10.04-2.05,15.06-.08.57-.01,1.15-.01,2.39.84-.72,1.41-1.02,1.69-1.48,1.37-2.28,2.63-4.63,3.99-6.91.43-.72.96-1.48,1.63-1.94,1.91-1.33,4.58-.15,4.95,2.17.13.83.17,1.8-.14,2.54-2.21,5.3-4.31,10.66-6.87,15.79-2.11,4.21-5.3,7.6-10.15,9.45-.12,1.38-.24,2.78-.36,4.15,1.43.64,2.64,1.08,3.74,1.71,1.73.99,2.48,2.48,2.16,4.54-1.22,7.89-2.36,15.79-3.6,23.68-.14.87-.66,1.68-.95,2.37-3.02.42-3.89-.26-3.56-2.9.54-4.34,1.27-8.66,1.91-13,.37-2.53.73-5.07,1.08-7.55-7.57-.9-14.93-1.78-22.68-2.7,0,1.01,0,1.92,0,2.83,0,6.88.02,13.75-.02,20.63-.01,2.66-.52,3.04-3.29,2.82-1.44-.86-1.31-2.28-1.31-3.65,0-11.17,0-22.34,0-33.52,0-.92,0-1.83,0-3.15-14.59,3.04-28.8,2.88-43.37-.3,0,1.23,0,2.14,0,3.05,0,11.34,0,22.69,0,34.03,0,1.28.18,2.63-1.41,3.62Zm27.86-96.43c-.18-1.45-.47-2.6-.43-3.73.29-8.93.65-17.86.98-26.79.09-2.39-.75-3.62-2.53-3.79-1.97-.18-3.09.95-3.26,3.37-.25,3.6-.47,7.2-.71,10.8-.36,5.49-.69,10.98-1.1,16.46-.09,1.14-.47,2.26-.74,3.48-1.27.11-2.19.24-3.12.27-3.96.12-4.3-.16-4.43-4.09-.23-6.87-.4-13.74-.59-20.61-.04-1.45-.32-2.85-1.82-3.4-1.59-.59-3.05-.21-4.13,1.45v35.93c2.7,1.24,5.23,2.27,7.65,3.54,1.56.82,1.91,2.27,1.18,3.43-.71,1.13-1.83,1.32-3.39.56-.46-.22-.9-.51-1.35-.74-2.25-1.14-4.6-2.04-7.14-1.88-2.37.15-3.61-.96-4.47-3.04-1.6-3.89-3.31-7.73-5.06-11.55-.86-1.89-2.28-2.55-3.91-2.06-1.61.48-2.32,1.84-1.87,3.96.48,2.27,1.1,4.5,1.67,6.75,1.61,6.41,3.3,12.8,6.52,18.66,2.58,4.69,5.79,8.71,10.79,11.03.59.27,1.06.81,1.82,1.4v12.96c10.54,1.3,20.74,1.46,31.09-.1.05-1.18.12-2.02.13-2.87.01-2.84.05-5.67,0-8.51-.03-1.67.46-2.95,1.89-3.96,6.73-4.75,10-11.66,11.53-19.44,1.22-6.23,2.06-12.54,2.9-18.83.52-3.91.8-7.86,1.06-11.8.17-2.52-.73-3.13-3.56-2.41-.29.97-.73,2.07-.95,3.22-1.09,5.74-2.09,11.49-3.2,17.22-.18.93-.75,1.79-1.02,2.4-2.35.76-3.74-.53-5.31-1.11-1.43-.53-1.87-1.65-1.74-3.08.57-6.33,1.15-12.66,1.7-18.99.27-3.08.55-6.16.73-9.25.1-1.88-.79-2.98-2.31-3.17-1.49-.19-2.56.53-3.02,2.17-.23.82-.28,1.69-.38,2.54-.8,7.17-1.57,14.34-2.42,21.51-.11.94-.66,1.83-1.11,2.99-2.21-.3-4.13-.56-6.57-.89Zm19.7-12.64s-.1,0-.14,0v1.49s.1,0,.14,0v-1.49Z"/>
        </g>
      </g>
      <g id="ndGtwH.tif-2" data-name="ndGtwH.tif">
        <path class="cls-2" d="m78.08,167.69h-1.83c-1.53-.9-1.37-2.24-1.37-3.53,0-7.13,0-14.27,0-21.4,0-.93,0-1.86,0-3.04-6.69,1.42-13.08,2.78-19.76,4.2.15.75.28,1.57.49,2.36,1.56,5.89,3.16,11.77,4.7,17.66.32,1.24.63,2.56-.84,3.69h-2.69c-.51-1.55-1.11-3.13-1.54-4.74-1.68-6.21-3.28-12.45-4.97-18.66-1.37-5.03-1-5.94,3.68-8.25.37-.18.75-.36,1.42-.67-.34-1.43-.67-2.8-1-4.18-7.9-1.88-12.16-7.66-15.94-13.92-1.68-2.79-3.12-5.73-4.71-8.58-.76-1.37-.94-2.79-.25-4.18,1.21-2.45,4.29-2.78,6.24-.56,1.81,2.06,3.39,4.33,5.12,6.46.54.66,1.26,1.17,2.36,2.17.07-1.24.23-1.82.11-2.32-1.8-7.24-3.64-14.48-5.47-21.71-.13-.5-.27-.99-.38-1.5-.6-2.95.25-4.66,2.6-5.31,2.32-.64,4.03.51,4.84,3.35,1.13,3.96,2.19,7.94,3.3,11.91.27.98.61,1.94.98,3.12.75-.22,1.35-.4,2.17-.64-.2-1.42-.34-2.68-.56-3.93-.98-5.49-1.97-10.99-2.97-16.48-.31-1.69.13-3.07,1.63-3.99,1.45-.89,3.13-.85,4.28.32.62.63,1.1,1.55,1.29,2.42,1.31,5.77,2.52,11.57,3.77,17.36.16.74.37,1.48.58,2.32h1.94c.09-.53.28-1.03.23-1.5-.71-5.79-1.45-11.58-3.15-17.2-.54-1.8-.98-3.65-1.29-5.51-.69-4.08,1.4-7.61,5.04-8.75,3.69-1.15,7.49.48,9.31,4.09.96,1.91,1.72,3.93,2.62,5.88.2.44.58.8,1.22,1.64,0-1.4,0-2.3,0-3.19,0-8.85.09-17.7-.03-26.56-.07-4.95,3.68-7.71,7.14-7.93,4.44-.28,7.82,2.55,8.18,7.05.2,2.47.25,4.95.63,7.42.32-4.54.63-9.07.95-13.61.41-5.94,6.47-8.5,11.2-6.07,2.91,1.49,3.91,4.16,3.89,7.31-.02,2.74,0,5.48-.25,8.21.39-1.8.62-3.65,1.19-5.39,1.25-3.76,4.69-5.66,8.54-4.91,3.42.67,5.87,3.77,5.75,7.52-.09,2.74-.43,5.48-.63,8.22-.06.81,0,1.63.39,2.51.15-.46.28-.92.45-1.37,1.29-3.49,4.45-5.33,7.92-4.61,3.3.69,5.51,3.65,5.24,7.25-.34,4.45-.65,8.92-1.26,13.34-.8,5.79-1.4,11.59-1.41,17.44,0,2.32-.24,4.63-.34,6.95-.04,1.01,0,2.02,0,3.14.68.06,1.15.09,1.9.16.25-1.44.53-2.76.68-4.1.58-5.21,1.12-10.42,1.69-15.63.08-.76.2-1.55.49-2.24.63-1.54,1.91-2.26,3.47-2.09,1.42.15,2.63,1.32,2.77,2.94.1,1.19-.06,2.4-.15,3.6-.41,5.22-.86,10.45-1.27,15.67-.07.83,0,1.67,0,2.65.72.07,1.19.12,1.66.17.18-.29.4-.49.44-.71.82-4.82,1.62-9.65,2.43-14.48.1-.59.16-1.2.37-1.75.69-1.75,2.21-2.61,3.85-2.27,1.78.37,2.88,1.55,2.72,3.49-.26,3.25-.76,6.48-1.19,9.71-.67,5.02-1.38,10.04-2.05,15.06-.08.57-.01,1.15-.01,2.39.84-.72,1.41-1.02,1.69-1.48,1.37-2.28,2.63-4.63,3.99-6.91.43-.72.96-1.48,1.63-1.94,1.91-1.33,4.58-.15,4.95,2.17.13.83.17,1.8-.14,2.54-2.21,5.3-4.31,10.66-6.87,15.79-2.11,4.21-5.3,7.6-10.15,9.45-.12,1.38-.24,2.78-.36,4.15,1.43.64,2.64,1.08,3.74,1.71,1.73.99,2.48,2.48,2.16,4.54-1.22,7.89-2.36,15.79-3.6,23.68-.14.87-.66,1.68-.95,2.37-3.02.42-3.89-.26-3.56-2.9.54-4.34,1.27-8.66,1.91-13,.37-2.53.73-5.07,1.08-7.55-7.57-.9-14.93-1.78-22.68-2.7,0,1.01,0,1.92,0,2.83,0,6.88.02,13.75-.02,20.63-.01,2.66-.52,3.04-3.29,2.82-1.44-.86-1.31-2.28-1.31-3.65,0-11.17,0-22.34,0-33.52,0-.92,0-1.83,0-3.15-14.59,3.04-28.8,2.88-43.37-.3,0,1.23,0,2.14,0,3.05,0,11.34,0,22.69,0,34.03,0,1.28.18,2.63-1.41,3.62Zm27.86-96.43c-.18-1.45-.47-2.6-.43-3.73.29-8.93.65-17.86.98-26.79.09-2.39-.75-3.62-2.53-3.79-1.97-.18-3.09.95-3.26,3.37-.25,3.6-.47,7.2-.71,10.8-.36,5.49-.69,10.98-1.1,16.46-.09,1.14-.47,2.26-.74,3.48-1.27.11-2.19.24-3.12.27-3.96.12-4.3-.16-4.43-4.09-.23-6.87-.4-13.74-.59-20.61-.04-1.45-.32-2.85-1.82-3.4-1.59-.59-3.05-.21-4.13,1.45v35.93c2.7,1.24,5.23,2.27,7.65,3.54,1.56.82,1.91,2.27,1.18,3.43-.71,1.13-1.83,1.32-3.39.56-.46-.22-.9-.51-1.35-.74-2.25-1.14-4.6-2.04-7.14-1.88-2.37.15-3.61-.96-4.47-3.04-1.6-3.89-3.31-7.73-5.06-11.55-.86-1.89-2.28-2.55-3.91-2.06-1.61.48-2.32,1.84-1.87,3.96.48,2.27,1.1,4.5,1.67,6.75,1.61,6.41,3.3,12.8,6.52,18.66,2.58,4.69,5.79,8.71,10.79,11.03.59.27,1.06.81,1.82,1.4v12.96c10.54,1.3,20.74,1.46,31.09-.1.05-1.18.12-2.02.13-2.87.01-2.84.05-5.67,0-8.51-.03-1.67.46-2.95,1.89-3.96,6.73-4.75,10-11.66,11.53-19.44,1.22-6.23,2.06-12.54,2.9-18.83.52-3.91.8-7.86,1.06-11.8.17-2.52-.73-3.13-3.56-2.41-.29.97-.73,2.07-.95,3.22-1.09,5.74-2.09,11.49-3.2,17.22-.18.93-.75,1.79-1.02,2.4-2.35.76-3.74-.53-5.31-1.11-1.43-.53-1.87-1.65-1.74-3.08.57-6.33,1.15-12.66,1.7-18.99.27-3.08.55-6.16.73-9.25.1-1.88-.79-2.98-2.31-3.17-1.49-.19-2.56.53-3.02,2.17-.23.82-.28,1.69-.38,2.54-.8,7.17-1.57,14.34-2.42,21.51-.11.94-.66,1.83-1.11,2.99-2.21-.3-4.13-.56-6.57-.89Zm19.7-12.64s-.1,0-.14,0v1.49s.1,0,.14,0v-1.49Z"/>
      </g>
    </g>
  </g>
</svg>