<svg xmlns="http://www.w3.org/2000/svg" viewBox="0 0 400 200"><defs><style>.cls-1{fill:none;stroke-width:0}</style></defs><path class="cls-1" d="M0 0h200v200H0zM200 0h200v200H200z"/><path d="M107.83 90.5c0 4.27-3.46 7.72-7.72 7.72s-7.72-3.45-7.72-7.72 3.46-7.72 7.72-7.72 7.72 3.46 7.72 7.72M70.86 73.2H55.71c-8.51 0-11.39 6.06-15.66 14.9l-7.84 16.15a4.787 4.787 0 0 0 2.22 6.41c2.39 1.17 5.27.18 6.44-2.21l10.84-20.94v59.23c0 2.88 2.33 5.21 5.22 5.21s5.21-2.33 5.21-5.21v-30.36h2.34v30.4a5.215 5.215 0 0 0 10.43 0V87.51l9 18.01c1.8-3.47 3.78-6.46 7.13-7.65l-4.5-9.78c-4.27-8.84-7.15-14.9-15.66-14.9m-7.58-2c6.41 0 11.6-5.19 11.6-11.6s-5.19-11.6-11.6-11.6-11.6 5.19-11.6 11.6 5.19 11.6 11.6 11.6m104.51 33.05-7.84-16.15c-4.27-8.84-7.15-14.9-15.66-14.9h-15.15c-8.51 0-11.39 6.06-15.66 14.9l-4.76 9.78c3.4 1.13 5.41 3.51 7.21 6.94l9.2-17.31-5.27 26.75 2.43 4.85c1.29 2.64-.23 7.76-5.52 7.76h8.36v19.87c0 2.88 2.34 5.22 5.21 5.22s5.22-2.34 5.22-5.22v-19.87h2.34v19.91c0 2.88 2.33 5.21 5.21 5.21s5.22-2.34 5.22-5.21v-19.91h8.12l-8.12-39.36 10.81 20.94c1.16 2.38 4.05 3.37 6.43 2.21 2.39-1.16 3.39-4.03 2.22-6.41m-31.08-33.05c6.41 0 11.6-5.19 11.6-11.6s-5.19-11.6-11.6-11.6-11.6 5.19-11.6 11.6 5.19 11.6 11.6 11.6m-21.13 38.26c-2.85-5.88-4.76-9.92-10.43-9.92H95.08c-5.66 0-7.58 4.04-10.43 9.92l-5.22 10.75a3.178 3.178 0 0 0 1.47 4.27c1.61.77 3.73-.33 4.29-1.47l7.21-13.94-4.53 23.38h4.53v16.04c0 1.92 1.56 3.47 3.47 3.47s3.47-1.55 3.47-3.47v-16.04h1.55v16.06c0 1.92 1.55 3.47 3.47 3.47s3.47-1.55 3.47-3.47v-16.06h4.8l-4.8-23.39 7.2 13.94c.77 1.47 2.52 2.32 4.29 1.47a3.193 3.193 0 0 0 1.48-4.27l-5.22-10.75Z" style="fill:#af067d;stroke-width:0"/><path d="M307.83 90.5c0 4.27-3.46 7.72-7.72 7.72s-7.72-3.45-7.72-7.72 3.46-7.72 7.72-7.72 7.72 3.46 7.72 7.72m-36.97-17.3h-15.15c-8.51 0-11.39 6.06-15.66 14.9l-7.84 16.15a4.787 4.787 0 0 0 2.22 6.41c2.39 1.17 5.27.18 6.44-2.21l10.84-20.94v59.23c0 2.88 2.33 5.21 5.22 5.21s5.21-2.33 5.21-5.21v-30.36h2.34v30.4a5.215 5.215 0 0 0 10.43 0V87.51l9 18.01c1.8-3.47 3.78-6.46 7.13-7.65l-4.5-9.78c-4.27-8.84-7.15-14.9-15.66-14.9m-7.58-2c6.41 0 11.6-5.19 11.6-11.6s-5.19-11.6-11.6-11.6-11.6 5.19-11.6 11.6 5.19 11.6 11.6 11.6m104.51 33.05-7.84-16.15c-4.27-8.84-7.15-14.9-15.66-14.9h-15.15c-8.51 0-11.39 6.06-15.66 14.9l-4.76 9.78c3.4 1.13 5.41 3.51 7.21 6.94l9.2-17.31-5.27 26.75 2.43 4.85c1.29 2.64-.23 7.76-5.52 7.76h8.36v19.87c0 2.88 2.34 5.22 5.21 5.22s5.22-2.34 5.22-5.22v-19.87h2.34v19.91c0 2.88 2.33 5.21 5.21 5.21s5.22-2.34 5.22-5.21v-19.91h8.12l-8.12-39.36 10.81 20.94c1.16 2.38 4.05 3.37 6.43 2.21 2.39-1.16 3.39-4.03 2.22-6.41m-31.08-33.05c6.41 0 11.6-5.19 11.6-11.6s-5.19-11.6-11.6-11.6-11.6 5.19-11.6 11.6 5.19 11.6 11.6 11.6m-21.13 38.26c-2.85-5.88-4.76-9.92-10.43-9.92h-10.09c-5.66 0-7.58 4.04-10.43 9.92l-5.22 10.75a3.178 3.178 0 0 0 1.47 4.27c1.61.77 3.73-.33 4.29-1.47l7.21-13.94-4.53 23.38h4.53v16.04c0 1.92 1.56 3.47 3.47 3.47s3.47-1.55 3.47-3.47v-16.04h1.55v16.06c0 1.92 1.55 3.47 3.47 3.47s3.47-1.55 3.47-3.47v-16.06h4.8l-4.8-23.39 7.2 13.94c.77 1.47 2.52 2.32 4.29 1.47a3.193 3.193 0 0 0 1.48-4.27l-5.22-10.75Z" style="fill:#faf2fc;stroke-width:0"/></svg>