<?xml version="1.0" encoding="UTF-8"?>
<svg id="Capa_2" data-name="Capa 2" xmlns="http://www.w3.org/2000/svg" viewBox="0 0 400 200">
  <defs>
    <style>
      .cls-1 {
        fill: none;
      }

      .cls-1, .cls-2, .cls-3 {
        stroke-width: 0px;
      }

      .cls-2 {
        fill: #af067d;
      }

      .cls-3 {
        fill: #faf2fc;
      }
    </style>
  </defs>
  <g id="Capa_1-2" data-name="Capa 1">
    <g>
      <rect class="cls-1" width="200" height="200"/>
      <g>
        <rect class="cls-1" x="200" width="200" height="200"/>
        <g id="iAg7kN.tif">
          <g>
            <path class="cls-3" d="m299.65,140.09c-1.33,3.64-2.67,7.28-3.98,10.92-1.52,4.23-3.09,8.44-4.48,12.71-.7,2.15-1.94,3.05-4.21,3.03-7.42-.08-14.83-.02-22.25-.04-3.33,0-4.05-.69-3.82-3.97.78-10.97,1.64-21.94,2.49-32.9,1.35-17.36,3-34.71,3.9-52.09.28-5.44-1.32-11.01-2.3-16.47-1.19-6.63-2.62-13.23-4-19.82-.49-2.32.28-3.64,2.62-4.2,5.26-1.25,10.48-2.69,15.77-3.83,1.53-.33,3.33-.23,4.83.24,10.59,3.3,21.11,3.38,31.7-.03,1.49-.48,3.29-.52,4.83-.19,5.2,1.13,10.36,2.49,15.52,3.81,2.72.7,3.23,1.58,2.67,4.34-2.08,10.28-4.23,20.55-6.19,30.85-.41,2.17-.28,4.49-.11,6.71,2.08,27,4.21,53.99,6.33,80.99.51,6.47.43,6.58-6.1,6.58-6.42,0-12.83-.09-19.25.04-2.63.05-4.09-.78-4.95-3.41-2.26-6.87-4.81-13.65-7.25-20.47-.33-.92-.72-1.83-1.08-2.74-.23-.02-.45-.04-.68-.05Zm.47-48.38c-5.83,0-11.67.04-17.5-.02-2.31-.02-3.39.93-3.32,3.28.08,2.67-.04,5.34.05,8,.27,7.25,6.03,13.42,13.27,13.85,4.9.29,9.85.34,14.73-.02,6.26-.46,10.73-4.02,12.41-9.97,1.03-3.67.75-7.73.88-11.62.1-2.9-.58-3.49-3.53-3.5-5.67-.02-11.33,0-17,0Zm-15.37-52.97c.09,6.47,7.62,12.52,15.22,12.52,7.6,0,15.1-5.99,15.25-12.54-10.16,2.89-20.32,2.73-30.47.02Zm27.17,25.19c-.06-1.84-1.55-3.27-3.38-3.24-1.77.03-3.32,1.58-3.33,3.34-.01,1.89,1.61,3.41,3.56,3.33,1.88-.08,3.21-1.53,3.15-3.43Zm-17.19.22c.06-1.76-1.44-3.37-3.2-3.46-1.83-.09-3.36,1.28-3.48,3.12-.13,2.02,1.27,3.53,3.26,3.55,1.86.02,3.36-1.39,3.42-3.21Z"/>
            <path class="cls-3" d="m300.29,96.25c4.57,0,9.15.05,13.72-.02,1.6-.02,2.29.53,2.18,2.17-.1,1.57.06,3.17-.09,4.74-.53,5.27-4.72,9.14-10.03,9.26-4.07.09-8.15.09-12.22,0-5.38-.12-9.56-4.19-10-9.57q-.54-6.57,5.97-6.57c3.49,0,6.99,0,10.48,0Z"/>
          </g>
        </g>
      </g>
      <g id="iAg7kN.tif-2" data-name="iAg7kN.tif">
        <g>
          <path class="cls-2" d="m99.65,140.09c-1.33,3.64-2.67,7.28-3.98,10.92-1.52,4.23-3.09,8.44-4.48,12.71-.7,2.15-1.94,3.05-4.21,3.03-7.42-.08-14.83-.02-22.25-.04-3.33,0-4.05-.69-3.82-3.97.78-10.97,1.64-21.94,2.49-32.9,1.35-17.36,3-34.71,3.9-52.09.28-5.44-1.32-11.01-2.3-16.47-1.19-6.63-2.62-13.23-4-19.82-.49-2.32.28-3.64,2.62-4.2,5.26-1.25,10.48-2.69,15.77-3.83,1.53-.33,3.33-.23,4.83.24,10.59,3.3,21.11,3.38,31.7-.03,1.49-.48,3.29-.52,4.83-.19,5.2,1.13,10.36,2.49,15.52,3.81,2.72.7,3.23,1.58,2.67,4.34-2.08,10.28-4.23,20.55-6.19,30.85-.41,2.17-.28,4.49-.11,6.71,2.08,27,4.21,53.99,6.33,80.99.51,6.47.43,6.58-6.1,6.58-6.42,0-12.83-.09-19.25.04-2.63.05-4.09-.78-4.95-3.41-2.26-6.87-4.81-13.65-7.25-20.47-.33-.92-.72-1.83-1.08-2.74-.23-.02-.45-.04-.68-.05Zm.47-48.38c-5.83,0-11.67.04-17.5-.02-2.31-.02-3.39.93-3.32,3.28.08,2.67-.04,5.34.05,8,.27,7.25,6.03,13.42,13.27,13.85,4.9.29,9.85.34,14.73-.02,6.26-.46,10.73-4.02,12.41-9.97,1.03-3.67.75-7.73.88-11.62.1-2.9-.58-3.49-3.53-3.5-5.67-.02-11.33,0-17,0Zm-15.37-52.97c.09,6.47,7.62,12.52,15.22,12.52,7.6,0,15.1-5.99,15.25-12.54-10.16,2.89-20.32,2.73-30.47.02Zm27.17,25.19c-.06-1.84-1.55-3.27-3.38-3.24-1.77.03-3.32,1.58-3.33,3.34-.01,1.89,1.61,3.41,3.56,3.33,1.88-.08,3.21-1.53,3.15-3.43Zm-17.19.22c.06-1.76-1.44-3.37-3.2-3.46-1.83-.09-3.36,1.28-3.48,3.12-.13,2.02,1.27,3.53,3.26,3.55,1.86.02,3.36-1.39,3.42-3.21Z"/>
          <path class="cls-2" d="m100.29,96.25c4.57,0,9.15.05,13.72-.02,1.6-.02,2.29.53,2.18,2.17-.1,1.57.06,3.17-.09,4.74-.53,5.27-4.72,9.14-10.03,9.26-4.07.09-8.15.09-12.22,0-5.38-.12-9.56-4.19-10-9.57q-.54-6.57,5.97-6.57c3.49,0,6.99,0,10.48,0Z"/>
        </g>
      </g>
    </g>
  </g>
</svg>