<?xml version="1.0" encoding="UTF-8"?>
<svg id="Capa_2" data-name="Capa 2" xmlns="http://www.w3.org/2000/svg" viewBox="0 0 400 200">
  <defs>
    <style>
      .cls-1 {
        fill: none;
      }

      .cls-1, .cls-2, .cls-3 {
        stroke-width: 0px;
      }

      .cls-2 {
        fill: #af067d;
      }

      .cls-3 {
        fill: #faf2fc;
      }
    </style>
  </defs>
  <g id="Capa_1-2" data-name="Capa 1">
    <g>
      <rect class="cls-1" width="200" height="200"/>
      <g id="pAPBZe.tif">
        <path class="cls-2" d="m61.5,41.73c15.14-8.23,30.93-12.64,48.24-10.29,29.15,3.95,53.22,27.1,58.33,56.32,6.26,35.8-15.54,69.87-50.67,79.16-37.29,9.87-75.9-13.28-84.56-51.06-5.45-23.76.39-44.82,16.58-63.02.78-.88,1.58-1.5.77-2.97-2.13-3.88-1.5-7.32,1.49-9.57,2.94-2.21,6.18-1.77,9.82,1.43Zm82.06,80.1c-4.08-2.04-4.16-2.1-2.02-5.24.95-1.39.61-2.06-.56-3.05-4.08-3.43-5.96-7.91-4.82-13.12.63-2.9,2.25-5.58,3.5-8.55-4.65-2-7.97-5.86-9.72-11.31-.75.63-1.29,1-1.75,1.46-4.25,4.23-8.43,8.53-12.75,12.69-1.32,1.27-1.26,2.12-.24,3.55,7.44,10.44,14.78,20.95,22.2,31.41.94,1.32,1.43,2.21-.3,3.42-1.67,1.17-2.49.86-3.57-.7-4.97-7.19-10.03-14.32-15.07-21.46-2.57-3.65-5.15-7.29-7.72-10.91-.49.23-.77.28-.93.44-4.9,4.87-9.83,9.73-14.63,14.69-.43.45-.43,1.88-.05,2.46,2.67,4.02,5.5,7.93,8.28,11.88,4.06,5.77,8.12,11.54,12.15,17.27-3.07,3.33-3.37,3.31-5.73-.05-4.83-6.88-9.66-13.76-14.5-20.64-1.47-2.08-2.97-4.14-4.68-6.54-3.73,3.77-7.25,7.29-10.69,10.88-.33.34-.36,1.24-.17,1.75.66,1.77,1.48,3.48,2.23,5.22,10.93-.93,18.72,3.07,19.73,10.29-1.56.13-2.92,2.89-4.68-.12-3.48-5.91-9.52-7.58-15.7-4.57-3.01,1.46-4.16.62-4.27-2.8-.06-1.77-.62-3.52-.91-5.06-3.25,3.22-6.16,6.11-9.05,8.97,19.25,15.74,53.76,16.5,75.04-8.39,19.93-23.32,14.58-54.66,1.32-69.14-2.85,2.93-5.74,5.8-8.47,8.82-.55.61-.75,1.85-.62,2.73.85,5.73,4.82,9.41,10.62,10.31,1.15.18,2.17,1.13,3.26,1.72-.63,1.14-1.15,2.37-1.93,3.39-.59.77-1.56,1.24-2.32,1.88-5.43,4.64-4.51,12.53,1.87,15.74,1.68.85,3.33,1.74,2.1,3.93-1.3,2.3-2.89,4.44-4.42,6.74Zm-69.62-38.12c-5.93-8.41-11.63-16.51-17.34-24.6-.48-.68-.88-1.58-1.54-1.92-.77-.39-2.05-.66-2.64-.27-.61.4-.91,1.68-.86,2.54.05.73.76,1.44,1.24,2.11,6.6,9.4,13.22,18.8,19.82,28.21.5.72.89,1.52,1.31,2.24-3.36,2.89-3.32,2.86-5.75-.41-.61-.82-1.44-1.75-2.35-2.02-3.66-1.09-7.37-2.06-11.11-2.85-2.45-.52-4.73.02-6.42,2.38.57.33.9.56,1.27.72,10.98,5,21.97,9.98,32.92,15.02,1.55.71,2.43.13,3.46-.91,5.62-5.69,11.21-11.41,16.98-16.94,3.2-3.07,4-4.28.78-8.98-5.5-8.04-11.19-15.95-16.8-23.92-.34-.48-.61-1.21-1.06-1.35-1-.31-2.26-.7-3.08-.32-.5.23-.66,1.85-.5,2.76.15.83.92,1.55,1.45,2.3,2.97,4.28,5.96,8.56,8.9,12.79-3.34,3.24-3.36,3.24-5.71-.07-.82-1.15-1.62-2.32-2.44-3.48-4.89-6.95-9.77-13.89-14.66-20.83-.94-1.33-2.01-2.81-3.82-1.47-1.73,1.29-.81,2.79.15,4.15.19.27.4.54.59.81,5.75,8.17,11.47,16.36,17.28,24.49,1.01,1.41.95,2.19-.49,3.21-1.46,1.03-2.32,1.05-3.41-.54-4.09-5.98-8.31-11.87-12.48-17.79-3.21-4.56-6.43-9.12-9.64-13.68-.95-1.35-2.35-2.08-3.53-.86-.61.63-.19,2.29-.14,3.48,0,.28.36.54.56.81,7.04,10.01,14.09,20.02,21.12,30.04.56.79,1.02,1.65,1.62,2.63-1.27.87-2.34,1.61-3.67,2.53Zm27.85-35.13c.29.2.47.26.55.39,3.5,5.75,8.41,7.37,14.76,5.25,2.58-.86,3.78.2,3.57,2.99-.21,2.72.29,5.17,2.33,7.08.43.4,1.6.73,1.86.49,2.95-2.75,5.78-5.62,8.64-8.45-9.87-9.99-39.79-15.62-47.2-9.51,1.55,1.62,3.26,3.15,4.65,4.93,2,2.55,3.76,5.29,5.63,7.95,4.57,6.51,9.15,13.01,13.57,19.3,3.38-3.38,6.83-6.83,10.05-10.04-1.59-2.93-3.22-5.95-4.98-9.19-10.21-.65-15.55-3.59-16.92-9.73,1.17-.49,2.37-.99,3.48-1.45Zm-34.22,72.9c4.23-4.16,8.4-8.26,12.76-12.53-11.59-5.25-23.13-10.47-34.7-15.71-3.43,9.63,3.17,33.74,11.25,40.38,1.6-1.81,3.37-3.58,4.84-5.57.76-1.03,1.46-2.51,1.34-3.71-.62-6.12-3.91-10.41-9.8-12.28-2.42-.77-1.79-2.13-1.46-3.64.45-2.07,1.94-1.19,2.97-.83,5.4,1.84,9.34,5.33,11.56,10.65.47,1.13.88,2.29,1.25,3.24Zm-4.87-37.73c-3.31-4.71-6.2-8.81-9.56-13.58-2.12,4.55-3.93,8.45-5.75,12.34.18.26.36.51.55.77,4.8-2.71,9.41-.64,14.76.47Z"/>
      </g>
      <g>
        <rect class="cls-1" x="200" width="200" height="200"/>
        <g id="pAPBZe.tif-2" data-name="pAPBZe.tif">
          <path class="cls-3" d="m261.5,41.73c15.14-8.23,30.93-12.64,48.24-10.29,29.15,3.95,53.22,27.1,58.33,56.32,6.26,35.8-15.54,69.87-50.67,79.16-37.29,9.87-75.9-13.28-84.56-51.06-5.45-23.76.39-44.82,16.58-63.02.78-.88,1.58-1.5.77-2.97-2.13-3.88-1.5-7.32,1.49-9.57,2.94-2.21,6.18-1.77,9.82,1.43Zm82.06,80.1c-4.08-2.04-4.16-2.1-2.02-5.24.95-1.39.61-2.06-.56-3.05-4.08-3.43-5.96-7.91-4.82-13.12.63-2.9,2.25-5.58,3.5-8.55-4.65-2-7.97-5.86-9.72-11.31-.75.63-1.29,1-1.75,1.46-4.25,4.23-8.43,8.53-12.75,12.69-1.32,1.27-1.26,2.12-.24,3.55,7.44,10.44,14.78,20.95,22.2,31.41.94,1.32,1.43,2.21-.3,3.42-1.67,1.17-2.49.86-3.57-.7-4.97-7.19-10.03-14.32-15.07-21.46-2.57-3.65-5.15-7.29-7.72-10.91-.49.23-.77.28-.93.44-4.9,4.87-9.83,9.73-14.63,14.69-.43.45-.43,1.88-.05,2.46,2.67,4.02,5.5,7.93,8.28,11.88,4.06,5.77,8.12,11.54,12.15,17.27-3.07,3.33-3.37,3.31-5.73-.05-4.83-6.88-9.66-13.76-14.5-20.64-1.47-2.08-2.97-4.14-4.68-6.54-3.73,3.77-7.25,7.29-10.69,10.88-.33.34-.36,1.24-.17,1.75.66,1.77,1.48,3.48,2.23,5.22,10.93-.93,18.72,3.07,19.73,10.29-1.56.13-2.92,2.89-4.68-.12-3.48-5.91-9.52-7.58-15.7-4.57-3.01,1.46-4.16.62-4.27-2.8-.06-1.77-.62-3.52-.91-5.06-3.25,3.22-6.16,6.11-9.05,8.97,19.25,15.74,53.76,16.5,75.04-8.39,19.93-23.32,14.58-54.66,1.32-69.14-2.85,2.93-5.74,5.8-8.47,8.82-.55.61-.75,1.85-.62,2.73.85,5.73,4.82,9.41,10.62,10.31,1.15.18,2.17,1.13,3.26,1.72-.63,1.14-1.15,2.37-1.93,3.39-.59.77-1.56,1.24-2.32,1.88-5.43,4.64-4.51,12.53,1.87,15.74,1.68.85,3.33,1.74,2.1,3.93-1.3,2.3-2.89,4.44-4.42,6.74Zm-69.62-38.12c-5.93-8.41-11.63-16.51-17.34-24.6-.48-.68-.88-1.58-1.54-1.92-.77-.39-2.05-.66-2.64-.27-.61.4-.91,1.68-.86,2.54.05.73.76,1.44,1.24,2.11,6.6,9.4,13.22,18.8,19.82,28.21.5.72.89,1.52,1.31,2.24-3.36,2.89-3.32,2.86-5.75-.41-.61-.82-1.44-1.75-2.35-2.02-3.66-1.09-7.37-2.06-11.11-2.85-2.45-.52-4.73.02-6.42,2.38.57.33.9.56,1.27.72,10.98,5,21.97,9.98,32.92,15.02,1.55.71,2.43.13,3.46-.91,5.62-5.69,11.21-11.41,16.98-16.94,3.2-3.07,4-4.28.78-8.98-5.5-8.04-11.19-15.95-16.8-23.92-.34-.48-.61-1.21-1.06-1.35-1-.31-2.26-.7-3.08-.32-.5.23-.66,1.85-.5,2.76.15.83.92,1.55,1.45,2.3,2.97,4.28,5.96,8.56,8.9,12.79-3.34,3.24-3.36,3.24-5.71-.07-.82-1.15-1.62-2.32-2.44-3.48-4.89-6.95-9.77-13.89-14.66-20.83-.94-1.33-2.01-2.81-3.82-1.47-1.73,1.29-.81,2.79.15,4.15.19.27.4.54.59.81,5.75,8.17,11.47,16.36,17.28,24.49,1.01,1.41.95,2.19-.49,3.21-1.46,1.03-2.32,1.05-3.41-.54-4.09-5.98-8.31-11.87-12.48-17.79-3.21-4.56-6.43-9.12-9.64-13.68-.95-1.35-2.35-2.08-3.53-.86-.61.63-.19,2.29-.14,3.48,0,.28.36.54.56.81,7.04,10.01,14.09,20.02,21.12,30.04.56.79,1.02,1.65,1.62,2.63-1.27.87-2.34,1.61-3.67,2.53Zm27.85-35.13c.29.2.47.26.55.39,3.5,5.75,8.41,7.37,14.76,5.25,2.58-.86,3.78.2,3.57,2.99-.21,2.72.29,5.17,2.33,7.08.43.4,1.6.73,1.86.49,2.95-2.75,5.78-5.62,8.64-8.45-9.87-9.99-39.79-15.62-47.2-9.51,1.55,1.62,3.26,3.15,4.65,4.93,2,2.55,3.76,5.29,5.63,7.95,4.57,6.51,9.15,13.01,13.57,19.3,3.38-3.38,6.83-6.83,10.05-10.04-1.59-2.93-3.22-5.95-4.98-9.19-10.21-.65-15.55-3.59-16.92-9.73,1.17-.49,2.37-.99,3.48-1.45Zm-34.22,72.9c4.23-4.16,8.4-8.26,12.76-12.53-11.59-5.25-23.13-10.47-34.7-15.71-3.43,9.63,3.17,33.74,11.25,40.38,1.6-1.81,3.37-3.58,4.84-5.57.76-1.03,1.46-2.51,1.34-3.71-.62-6.12-3.91-10.41-9.8-12.28-2.42-.77-1.79-2.13-1.46-3.64.45-2.07,1.94-1.19,2.97-.83,5.4,1.84,9.34,5.33,11.56,10.65.47,1.13.88,2.29,1.25,3.24Zm-4.87-37.73c-3.31-4.71-6.2-8.81-9.56-13.58-2.12,4.55-3.93,8.45-5.75,12.34.18.26.36.51.55.77,4.8-2.71,9.41-.64,14.76.47Z"/>
        </g>
      </g>
    </g>
  </g>
</svg>