<svg xmlns="http://www.w3.org/2000/svg" viewBox="0 0 400 200"><defs><style>.cls-1{fill:none}.cls-1,.cls-2,.cls-3{stroke-width:0}.cls-2{fill:#7600db}.cls-3{fill:#faf2fc}</style></defs><path class="cls-1" d="M0 0h200v200H0zM200 0h200v200H200z"/><path class="cls-3" d="m301 124.95 1.61-7.14-4.95 2.38-3.33-6.26-2 6.63-5.82-3.89 1.94 6.79-5.58.24 3.26 3.05-4.98 4.1 6.39 1.07.11 5.54 4.6-2.86-3.1.24-.24-3.99-4.31-.71 3.76-2.8-2.03-2.56 3.74.02-1.13-4.72 4.17 2.73 1.44-4.67 1.99 4.57 4-1.45.46 3.69zM322.14 38.86c.49-.41-.38-1.04-.46-.39.28.19.22.33.46.39m-2.93 3.18c.19.28.42.51.01.71.35.18.47.62.56.98.5.25.68.55.88.95.53-.39 1.11-.12 1.68-.05.13-.37.39-.55.7-.4.54-.51.31-1.1.98-1.46-.47-.63-.2-1.33-.44-1.98-.15.09-.3.14-.48 0-.13-.17.06-.37-.15-.53-.3.21-.66.03-.88-.35-.5.26-1.03.28-1.57.15.07.53-.59.68-.88.74-.2.49.01.81-.42 1.24m11.11 6.63c.4.63 1.18.64 1.65.12-.38-.49-1.13-.66-1.61-.29.04.06.03.11-.04.17m3.3 6.73c.19-.21.26-.16.33-.42-.32-.27-.23-.73-.47-1.1-.23-.36-.74-.54-.72-1.02-.29.14-.58 0-.77-.36-.47.43-1.03-.11-1.48.53-.09-.09-.19-.14-.27-.14-.19.14.07.25-.12.4-.18.12-.4-.1-.57.11.24.42-.11.89-.3 1.34.24.43.01.91.28 1.34-.6-.22-1.19-.29-1.71.33.73 1.7 2.54-.4 3.58 1.07.76-.4 1.83-.4 2.08-1.52.19-.08.4.11.57-.11-.11-.15-.48-.28-.41-.45m-26.41-11.76c-.27-.36-.42-.72-.68-1.08-.27.37.41.94.68 1.08m18.21 23.81c-.01.35.53.66.77.36.12-.42-.51-.7-.77-.36m-27.65-6.83c-.22-.25-.39 0-.6-.22-.19-.33.07-.7.17-1.05-.2-.24-.35.02-.55-.27-.11-.22-.02-.47-.01-.71-.61-.34-.48-.75-.63-1.14-.18 0-.34.17-.53.05-.36-.71-1.02-.01-1.39-.79-.73.51-1.55.46-2.24-.22-.31.34.17.6.03.93-.32.6-.7.49-1.04.81-.07.5-.32 1.1-.74 1.77.3.24.16.53.13.81.34.22.48.46.38.73-.2.38-.43.3-.64.56.38.1.75.08 1.14.38.1.41.04.83.69 1.19.18-.16.37-.17.57-.11.11.23-.13.48.12.7.28.04.44-.76.85-.46.25.19-.06.44.27.63.28-.22.37-.33.52-.65.57.08.22.69.54.77.2-.26-.11-.46.09-.72.55-.14.76-1.13 1.37-1.12.36.09.94 1.11 1.52 1.11-1.41-.65-1.48-2.49-.06-2.94m13.09 11.03c-.06.68.63.77 1.18 1.42.14-.52-.67-1.13-1.18-1.42m-13.46-7.55c.34.43.72.84 1.12 1.26.05-.43-.71-1.06-1.12-1.26m-9.97-5.76c.14-.63-.68-.74-.99-.45-.39.37-.03.86-.31 1.23.55.9 1.26-.11 1.89-.18.04-.12.04-.22.07-.34-.24-.27-.44-.24-.66-.26m19.09 17.88c-.25.35.28.86.46.99.12-.36-.22-.67-.46-.99m-3.46.23c.3-.61.48-1.21.47-1.79-.3.61-.45 1.21-.47 1.79m24.61-18.68.19-.24c-.23-.38-.22-.3-.67-.37-.08-.35-.33-.36-.43-.67-.3.17-.61.22-.98-.23-.59.32-1.43.21-1.93.85-.26.33-.2.95-.64 1.05-.12-1.84-3.24-2.68-4.11-4.03.51-.33 1.04-.53 1.56-.86.26.12.72.09.76-.35-.99-.39-1.84.71-2.83.27-.02-.62-.29-1.02-.36-1.71.65-.91.59-1.68.72-2.48.05-.33.35-.61.03-.88-.1.06-.2.07-.31.03-.32.31-.18.57-.5.87-.85-.17-1.51-1.45-1.9-2.33-.37.31-.24.57-.5.87-.85-.2-.86-.98-1.64-1.21-.15-.48.06-.99-.29-1.45-.11-.66.37-1.38.08-2.03-.34.39-.18.6-.22 1.01-.05.46-.28 1.13-.28 1.56 0 .56.24.95-.04 1.26-.39.42-.91.01-1.48-.08-1.67 1.34-3.07-.72-4-2.23.42 1.04 1.26 2.03 1.49 3.08-.71-.01-1.41.02-2.08.31-.32-.32-.17-.67-.67-.97-.31.29.12.5.07.76-1.06-.55-.78-1.66-1.9-2.33.05-.1-.01-.18.03-.27.14-.25.3-.12.44-.32-.09-.41-.07-.86.27-1.17-.25-.54-.39-1.09 0-1.7-.24-.29-.41.18-.65-.15.24-.63-.31-.54-.57-1.09-.14.03-.27.18-.41.15-.5-.67-.9-.19-1.35-.36-.27-.48-.19-.97-.79-1.18-.24.33.45.57.34.9-.65.37-1.29.86-1.96 1.12.11.36-.03.82-.48 1.08.09.64.13 1.35-.04 1.86.18.22.32.06.5.23.07.28.14.57-.03.87.81.17 1.4.73 2.11 1.11.16 0 .29-.32.45-.32.19.14.37.22.55.27.21.05.18-.34.3-.25.69.78 2.02 1.72 2.2 2.79-.33.79-.71 1.53-1.52 1.9-.16-.01-.34-.37-.63-.54-.11-.17.14-.38-.05-.54-1.15-.67-2.25-.75-3.29-.12-.19.37-.39.73-.69 1.11-.19.82.23 1.58.22 2.38.31-.14.71.27.79.58.92.21 1.84.4 2.68-.21.86.74.2 1.62.48 2.41-.86.75-1.75 1.3-2.62 1.95.7.01 1.44-.58 2.21-1.31.29.13.57.13.87.25.03.27.24.52.02.82-.17.23-.39.04-.56.22.73.5 1.85 1.35.9 2.38.25.38.41-.07.64.16.22.87-1.01 2.67-1.79 2.96.01-.74.62-1.4-.12-1.9-.73-.51-1.65.39-1.67 1.37.43.7.64 1.54 1.53 1.11.16 1.07-1.29 2.08-2.15 1.96-.27-.14-.55-.28-.8-.09.04.05.03.11-.04.17.11.3.59.56.87.85-.08.43-.03.84-.36 1.29-.31.06-.93-.19-1.04.21.39-.17 1.09.27 1.23.76-.15.23-.25.46-.36.69.28.51.31 1.17.92 1.5 0 .31-.4.66-.28.95.31.31.54-.2.85.14 0 .29-.61.64-.23.9.29.12.53-.39.81-.4.58.28.75.66 1.2 1.03 0 .14-.12.3-.07.44.12-.08.03-.39.24-.3.23.21.06.47.43.67.2-.26.23-.53.52-.65 1.15.88 2.14-.13 3.2-.25.81.47.93 1.29 1.41 1.61-.1-.3-.43-.58-.35-.9.25-.05.6.14.66-.23-.35-.33-.65-.19-.97-.23-.08-.28-.49-.53-.39-.84.29-.5.63-.39.96-.48.19-.33.1-.63.39-.97.22-.2.51.24.73-.07.18-.26-.27-.45-.33-.68.27-.5.42-.45.77-.84-.3-.44-.51-.9-.02-1.42-.4-.45-.69-.92-.19-1.46.01-.24-.28-.45-.22-.69.08.04.4-.09.3-.25-.42.25-.86-.58-.92-.89-.26-.15-.48.13-.75-.15.07-.13 0-.25.12-.39.62.06 1.31.85 1.94.96.5-.64.72-1.52 1.58-1.85.06.05.11 0 .16.04 0 .18.12.35.36.51-.09 1.17.77 1.94 1.06 3.01.19-1-1.41-2.3 0-3.61-.3-.41-.72.28-.86-.14.51-.37 1.09-.03 1.62-.21 1.71.77 1.57 2.85 3.27 3.51 1.7-1.31-1.43-3.42-.58-4.7.52-.79.98-.01 1.6.18.24-.59-.73-.81-.7-1.3.39-.54.87-.11 1.32-.07.37-.66.85-.32 1.38-.51.11-.43-.49-.79-.27-1.23.69-.2 1.94-.82 2.25.33.55 0 .55.48.61.92.42-.09.53.25.79.58.79-.19 2.03.21 2.4-.94.21-.22.45-.07.66-.34-.15-.7.38-1.47-.14-2.12m-19.91 5.81c.22.09.55.44.28.74-.33-.03-.43-.48-.28-.74m6.05.4c.19.33-.12.7-.17 1.05-.22-.32-.38-1 .17-1.05m-10.07-3.34c-.66-.09-1.6-.17-2.05.04.69.03 1.39.2 2.05-.04m-5.85 3.08c.2 0 .75.86 1.11.66-.34-.3-1-.91-1.11-.66"/><path class="cls-3" d="M332.55 144.17c-.16-.02-.33-.05-.46-.15-.21-.16-.26-.47-.3-.74-.7-5.24-3.06-10.23-6.63-14.03 2.7-4.83 9.11-6.63 13.74-3.61 3.7 2.42 5.44 7.62 3.97 11.89-1.45 4.24-5.92 7.13-10.24 6.64-.03 0-.06 0-.09-.01m-40.01-10.31c-1.06-.98-1.69-2.33-1.78-3.81-.09-1.48.38-2.9 1.32-4a5.278 5.278 0 0 1 4.01-1.86c1.31 0 2.56.49 3.54 1.38l13.64 12.51 10.89-5.98c.77.79 1.79 2.05 2.72 3.78.04.07.08.12.11.19a19.39 19.39 0 0 1 1.79 5.06c.12.6.22 1.21.28 1.83l-13.77 6.73c-.7.4-1.48.66-2.3.72-.11 0-.22.04-.33.04a5.23 5.23 0 0 1-3.54-1.38l-16.58-15.21Zm38.95-14.81c-6.37 1.11-11.96 6.5-12.81 13.4 1.37-.61 2.67-1.36 3.89-2.24-.36-.39-.18-1.04.06-1.53 2.01-4.18 6.39-7.02 10.89-7.06 4.51-.04 8.94 2.74 10.98 6.89 2.04 4.16 1.6 9.51-1.12 13.24-2.71 3.73-7.57 5.64-11.99 4.71-.52-.11-1.05-.26-1.48-.59-.17-.14-.35-.3-.57-.33-.17-.02-.33.06-.49.13-2.21 1.02-4.41 2.04-6.62 3.06 1.26 3.81 4.44 12.98 4.44 12.98s32.97 0 32.95.06c-1.39-10.64-4.43-22.26-9.85-31.41-2.82-4.76-6.65-9.27-11.81-10.9-2.15-.68-4.36-.79-6.48-.42M289.18 145.46c-1.69-8.7-9.93-14.38-18.34-12.64-8.4 1.75-13.89 10.29-12.21 18.98l2.26 10h32.37l-4.09-16.35ZM265.39 97.6c-8.3-.47-15.56 4.87-17.14 12.96-.32 1.32-.51 2.69-.51 4.11 0 .4.03.8.06 1.2-.12.66-.34 1.36-.75 2.08-2.15 2.29-7.83-.6-6.48 1.08 3.84 7.97 13.54 11.48 20.49 12.49.68.14 1.58.05 2.29.1l.26.03c9.09.51 16.85-6.7 17.34-16.11.49-9.41-6.48-17.44-15.56-17.95M321.22 81.06c9.94 0 18 8.34 18 18.64s-8.06 18.64-18 18.64-18-8.34-18-18.64 8.06-18.64 18-18.64"/><path class="cls-2" d="m101 124.95 1.61-7.14-4.95 2.38-3.33-6.26-2 6.63-5.82-3.89 1.94 6.79-5.58.24 3.26 3.05-4.98 4.1 6.39 1.07.11 5.54 4.6-2.86-3.1.24-.24-3.99-4.31-.71 3.76-2.8-2.03-2.56 3.74.02-1.13-4.72 4.17 2.73 1.44-4.67 1.99 4.57 4-1.45.46 3.69zM122.14 38.86c.49-.41-.38-1.04-.46-.39.28.19.22.33.46.39m-2.93 3.18c.19.28.42.51.01.71.35.18.47.62.56.98.5.25.68.55.88.95.53-.39 1.11-.12 1.68-.05.13-.37.39-.55.7-.4.54-.51.31-1.1.98-1.46-.47-.63-.2-1.33-.44-1.98-.15.09-.3.14-.48 0-.13-.17.06-.37-.15-.53-.3.21-.66.03-.88-.35-.5.26-1.03.28-1.57.15.07.53-.59.68-.88.74-.2.49.01.81-.42 1.24m11.11 6.63c.4.63 1.18.64 1.65.12-.38-.49-1.13-.66-1.61-.29.04.06.03.11-.04.17m3.3 6.73c.19-.21.26-.16.33-.42-.32-.27-.23-.73-.47-1.1-.23-.36-.74-.54-.72-1.02-.29.14-.58 0-.77-.36-.47.43-1.03-.11-1.48.53-.09-.09-.19-.14-.27-.14-.19.14.07.25-.12.4-.18.12-.4-.1-.57.11.24.42-.11.89-.3 1.34.24.43.01.91.28 1.34-.6-.22-1.19-.29-1.71.33.73 1.7 2.54-.4 3.58 1.07.76-.4 1.83-.4 2.08-1.52.19-.08.4.11.57-.11-.11-.15-.48-.28-.41-.45m-26.41-11.76c-.27-.36-.42-.72-.68-1.08-.27.37.41.94.68 1.08m18.21 23.81c-.01.35.53.66.77.36.12-.42-.51-.7-.77-.36m-27.65-6.83c-.22-.25-.39 0-.6-.22-.19-.33.07-.7.17-1.05-.2-.24-.35.02-.55-.27-.11-.22-.02-.47-.01-.71-.61-.34-.48-.75-.63-1.14-.18 0-.34.17-.53.05-.36-.71-1.02-.01-1.39-.79-.73.51-1.55.46-2.24-.22-.31.34.17.6.03.93-.32.6-.7.49-1.04.81-.07.5-.32 1.1-.74 1.77.3.24.16.53.13.81.34.22.48.46.38.73-.2.38-.43.3-.64.56.38.1.75.08 1.14.38.1.41.04.83.69 1.19.18-.16.37-.17.57-.11.11.23-.13.48.12.7.28.04.44-.76.85-.46.25.19-.06.44.27.63.28-.22.37-.33.52-.65.57.08.22.69.54.77.2-.26-.11-.46.09-.72.55-.14.76-1.13 1.37-1.12.36.09.94 1.11 1.52 1.11-1.41-.65-1.48-2.49-.06-2.94m13.09 11.03c-.06.68.63.77 1.18 1.42.14-.52-.67-1.13-1.18-1.42m-13.46-7.55c.34.43.72.84 1.12 1.26.05-.43-.71-1.06-1.12-1.26m-9.97-5.76c.14-.63-.68-.74-.99-.45-.39.37-.03.86-.31 1.23.55.9 1.26-.11 1.89-.18.04-.12.04-.22.07-.34-.24-.27-.44-.24-.66-.26m19.09 17.88c-.25.35.28.86.46.99.12-.36-.22-.67-.46-.99m-3.46.23c.3-.61.48-1.21.47-1.79-.3.61-.45 1.21-.47 1.79m24.61-18.68.19-.24c-.23-.38-.22-.3-.67-.37-.08-.35-.33-.36-.43-.67-.3.17-.61.22-.98-.23-.59.32-1.43.21-1.93.85-.26.33-.2.95-.64 1.05-.12-1.84-3.24-2.68-4.11-4.03.51-.33 1.04-.53 1.56-.86.26.12.72.09.76-.35-.99-.39-1.84.71-2.83.27-.02-.62-.29-1.02-.36-1.71.65-.91.59-1.68.72-2.48.05-.33.35-.61.03-.88-.1.06-.2.07-.31.03-.32.31-.18.57-.5.87-.85-.17-1.51-1.45-1.9-2.33-.37.31-.24.57-.5.87-.85-.2-.86-.98-1.64-1.21-.15-.48.06-.99-.29-1.45-.11-.66.37-1.38.08-2.03-.34.39-.18.6-.22 1.01-.05.46-.28 1.13-.28 1.56 0 .56.24.95-.04 1.26-.39.42-.91.01-1.48-.08-1.67 1.34-3.07-.72-4-2.23.42 1.04 1.26 2.03 1.49 3.08-.71-.01-1.41.02-2.08.31-.32-.32-.17-.67-.67-.97-.31.29.12.5.07.76-1.06-.55-.78-1.66-1.9-2.33.05-.1-.01-.18.03-.27.14-.25.3-.12.44-.32-.09-.41-.07-.86.27-1.17-.25-.54-.39-1.09 0-1.7-.24-.29-.41.18-.65-.15.24-.63-.31-.54-.57-1.09-.14.03-.27.18-.41.15-.5-.67-.9-.19-1.35-.36-.27-.48-.19-.97-.79-1.18-.24.33.45.57.34.9-.65.37-1.29.86-1.96 1.12.11.36-.03.82-.48 1.08.09.64.13 1.35-.04 1.86.18.22.32.06.5.23.07.28.14.57-.03.87.81.17 1.4.73 2.11 1.11.16 0 .29-.32.45-.32.19.14.37.22.55.27.21.05.18-.34.3-.25.69.78 2.02 1.72 2.2 2.79-.33.79-.71 1.53-1.52 1.9-.16-.01-.34-.37-.63-.54-.11-.17.14-.38-.05-.54-1.15-.67-2.25-.75-3.29-.12-.19.37-.39.73-.69 1.11-.19.82.23 1.58.22 2.38.31-.14.71.27.79.58.92.21 1.84.4 2.68-.21.86.74.2 1.62.48 2.41-.86.75-1.75 1.3-2.62 1.95.7.01 1.44-.58 2.21-1.31.29.13.57.13.87.25.03.27.24.52.02.82-.17.23-.39.04-.56.22.73.5 1.85 1.35.9 2.38.25.38.41-.07.64.16.22.87-1.01 2.67-1.79 2.96.01-.74.62-1.4-.12-1.9-.73-.51-1.65.39-1.67 1.37.43.7.64 1.54 1.53 1.11.16 1.07-1.29 2.08-2.15 1.96-.27-.14-.55-.28-.8-.09.04.05.03.11-.04.17.11.3.59.56.87.85-.08.43-.03.84-.36 1.29-.31.06-.93-.19-1.04.21.39-.17 1.09.27 1.23.76-.15.23-.25.46-.36.69.28.51.31 1.17.92 1.5 0 .31-.4.66-.28.95.31.31.54-.2.85.14 0 .29-.61.64-.23.9.29.12.53-.39.81-.4.58.28.75.66 1.2 1.03 0 .14-.12.3-.07.44.12-.08.03-.39.24-.3.23.21.06.47.43.67.2-.26.23-.53.52-.65 1.15.88 2.14-.13 3.2-.25.81.47.93 1.29 1.41 1.61-.1-.3-.43-.58-.35-.9.25-.05.6.14.66-.23-.35-.33-.65-.19-.97-.23-.08-.28-.49-.53-.39-.84.29-.5.63-.39.96-.48.19-.33.1-.63.39-.97.22-.2.51.24.73-.07.18-.26-.27-.45-.33-.68.27-.5.42-.45.77-.84-.3-.44-.51-.9-.02-1.42-.4-.45-.69-.92-.19-1.46.01-.24-.28-.45-.22-.69.08.04.4-.09.3-.25-.42.25-.86-.58-.92-.89-.26-.15-.48.13-.75-.15.07-.13 0-.25.12-.39.62.06 1.31.85 1.94.96.5-.64.72-1.52 1.58-1.85.06.05.11 0 .16.04 0 .18.12.35.36.51-.09 1.17.77 1.94 1.06 3.01.19-1-1.41-2.3 0-3.61-.3-.41-.72.28-.86-.14.51-.37 1.09-.03 1.62-.21 1.71.77 1.57 2.85 3.27 3.51 1.7-1.31-1.43-3.42-.58-4.7.52-.79.98-.01 1.6.18.24-.59-.73-.81-.7-1.3.39-.54.87-.11 1.32-.07.37-.66.85-.32 1.38-.51.11-.43-.49-.79-.27-1.23.69-.2 1.94-.82 2.25.33.55 0 .55.48.61.92.42-.09.53.25.79.58.79-.19 2.03.21 2.4-.94.21-.22.45-.07.66-.34-.15-.7.38-1.47-.14-2.12m-19.91 5.81c.22.09.55.44.28.74-.33-.03-.43-.48-.28-.74m6.05.4c.19.33-.12.7-.17 1.05-.22-.32-.38-1 .17-1.05m-10.07-3.34c-.66-.09-1.6-.17-2.05.04.69.03 1.39.2 2.05-.04m-5.85 3.08c.2 0 .75.86 1.11.66-.34-.3-1-.91-1.11-.66"/><path class="cls-2" d="M132.55 144.17c-.16-.02-.33-.05-.46-.15-.21-.16-.26-.47-.3-.74-.7-5.24-3.06-10.23-6.63-14.03 2.7-4.83 9.11-6.63 13.74-3.61 3.7 2.42 5.44 7.62 3.97 11.89-1.45 4.24-5.92 7.13-10.24 6.64-.03 0-.06 0-.09-.01m-40.01-10.31c-1.06-.98-1.69-2.33-1.78-3.81-.09-1.48.38-2.9 1.32-4a5.278 5.278 0 0 1 4.01-1.86c1.31 0 2.56.49 3.54 1.38l13.64 12.51 10.89-5.98c.77.79 1.79 2.05 2.72 3.78.04.07.08.12.11.19a19.39 19.39 0 0 1 1.79 5.06c.12.6.22 1.21.28 1.83l-13.77 6.73c-.7.4-1.48.66-2.3.72-.11 0-.22.04-.33.04a5.23 5.23 0 0 1-3.54-1.38l-16.58-15.21Zm38.95-14.81c-6.37 1.11-11.96 6.5-12.81 13.4 1.37-.61 2.67-1.36 3.89-2.24-.36-.39-.18-1.04.06-1.53 2.01-4.18 6.39-7.02 10.89-7.06 4.51-.04 8.94 2.74 10.98 6.89 2.04 4.16 1.6 9.51-1.12 13.24-2.71 3.73-7.57 5.64-11.99 4.71-.52-.11-1.05-.26-1.48-.59-.17-.14-.35-.3-.57-.33-.17-.02-.33.06-.49.13-2.21 1.02-4.41 2.04-6.62 3.06 1.26 3.81 4.44 12.98 4.44 12.98s32.97 0 32.95.06c-1.39-10.64-4.43-22.26-9.85-31.41-2.82-4.76-6.65-9.27-11.81-10.9-2.15-.68-4.36-.79-6.48-.42M89.18 145.46c-1.69-8.7-9.93-14.38-18.34-12.64-8.4 1.75-13.89 10.29-12.21 18.98l2.26 10h32.37l-4.09-16.35ZM65.39 97.6c-8.3-.47-15.56 4.87-17.14 12.96-.32 1.32-.51 2.69-.51 4.11 0 .4.03.8.06 1.2-.12.66-.34 1.36-.75 2.08-2.15 2.29-7.83-.6-6.48 1.08 3.84 7.97 13.54 11.48 20.49 12.49.68.14 1.58.05 2.29.1l.26.03c9.09.51 16.85-6.7 17.34-16.11.49-9.41-6.48-17.44-15.56-17.95M121.22 81.06c9.94 0 18 8.34 18 18.64s-8.06 18.64-18 18.64-18-8.34-18-18.64 8.06-18.64 18-18.64"/></svg>