<?xml version="1.0" encoding="UTF-8"?>
<svg id="Capa_2" data-name="Capa 2" xmlns="http://www.w3.org/2000/svg" viewBox="0 0 400 200">
  <defs>
    <style>
      .cls-1 {
        fill: none;
      }

      .cls-1, .cls-2, .cls-3 {
        stroke-width: 0px;
      }

      .cls-2 {
        fill: #af067d;
      }

      .cls-3 {
        fill: #faf2fc;
      }
    </style>
  </defs>
  <g id="Capa_1-2" data-name="Capa 1">
    <g>
      <rect class="cls-1" width="200" height="200"/>
      <g>
        <rect class="cls-1" x="200" width="200" height="200"/>
        <g id="_4DluAS.tif" data-name="4DluAS.tif">
          <g>
            <path class="cls-3" d="m269.79,34.36c1.36,0,2.72,0,4.08,0,.3.07.6.18.91.2,8.71.53,16.5,3.47,23.37,8.86q1.77,1.39,3.55-.02c5.21-4.1,11.04-6.85,17.55-8.11,1.98-.38,3.99-.62,5.99-.93,1.6,0,3.2,0,4.8,0,.26.07.52.16.78.2,2.52.41,5.08.63,7.55,1.23,16.46,3.97,30.27,17.24,32.76,35.63.24,1.8.45,3.61.67,5.42v3.6c-.07.26-.18.52-.19.79-.5,9.09-3.63,17.21-9.52,24.08-3.97,4.64-8.37,8.92-12.69,13.25-14.49,14.53-29.03,29.01-43.54,43.52-1.45,1.45-2.91,2.82-4.87,3.56h-2.16c-1.36-.93-2.91-1.68-4.06-2.82-10.32-10.21-20.59-20.48-30.85-30.74-7.49-7.5-14.94-15.03-22.43-22.53-11.06-11.06-15.17-24.31-12.5-39.67,3.08-17.73,17.89-32.16,35.63-34.82,1.72-.26,3.45-.47,5.18-.7Zm30.56,122.65c2.95-3.02,6.16-6.36,9.43-9.65,14.45-14.51,28.92-29.01,43.37-43.51,8.9-8.93,12.56-19.54,10.24-32.04-2.21-11.9-8.42-20.84-19.58-25.98-11.69-5.38-23.2-5.4-34.32,1.56-2.36,1.48-4.5,3.32-6.72,5.02-2.24,1.71-3.62,1.72-5.79-.05-1.15-.93-2.22-1.96-3.4-2.85-14.74-11.19-35.44-9.59-48.03,3.97-8.01,8.62-11.24,18.93-9.28,30.63,1.34,7.98,5.26,14.67,10.95,20.36,14.4,14.39,28.78,28.81,43.2,43.17,3.14,3.13,6.45,6.09,9.92,9.37Z"/>
            <path class="cls-3" d="m322.8,59.57c.86-1.63,1.55-2.92,2.31-4.36.67,1.74,1.27,3.33,1.96,5.12,1.25-1.27,2.37-2.45,3.53-3.59,1.22-1.21,2.41-2.47,3.72-3.56,3.17-2.64,6.87-2.57,9.86.26,2.82,2.66,5.56,5.41,8.22,8.23,2.99,3.17,2.86,7.12-.12,10.3-2.04,2.19-4.02,4.44-6.02,6.66-.15-.08-.3-.17-.45-.25.72.39,1.43.78,2.29,1.24-.84.78-1.62,1.5-2.19,2.02,1.46,1.6,2.84,3.13,4.25,4.65.73.79,1.55,1.5,2.26,2.32,2.89,3.31,2.91,6.85-.04,10.12-1.79,1.99-3.74,3.83-5.62,5.74-.7.71-1.42,1.41-2.14,2.1-3.59,3.4-7.6,3.38-11.14-.08-1.8-1.76-3.58-3.54-5.37-5.31-.28-.28-.57-.54-.99-.94-.62,1.68-1.2,3.26-1.86,5.06-.81-1.55-1.5-2.87-2.28-4.35-.94,1.01-1.79,1.98-2.69,2.9-1.17,1.2-2.27,2.49-3.57,3.53-2.96,2.37-6.25,2.45-9.07-.07-3.18-2.85-6.23-5.87-9.07-9.06-2.64-2.96-2.55-6.35.07-9.34,1.99-2.28,4.26-4.32,6.41-6.47.31-.31.66-.57,1.17-1.01-1.39-.54-2.56-.99-3.88-1.5.74-.93,1.42-1.78,2.13-2.66-1.73-1.65-3.45-3.21-5.06-4.86-1.92-1.96-3.3-4.26-2.45-7.1.42-1.4,1.23-2.81,2.22-3.89,2.48-2.71,5.12-5.29,7.77-7.82,3.35-3.2,7.34-3.11,10.63.17,1.53,1.52,2.99,3.12,4.46,4.7.27.29.45.66.76,1.12Zm-18.18,7.36c.62.56,1.27,1.09,1.85,1.67,10.51,10.52,21.01,21.05,31.51,31.57,1.13,1.13,1.14,1.11,2.24-.02,1.79-1.83,3.56-3.68,5.42-5.43.88-.83.88-1.32,0-2.18-10.91-10.85-21.78-21.74-32.66-32.62-.24-.24-.52-.46-.74-.66-2.52,2.54-4.96,5-7.61,7.67Zm34.28,6.99c2.19-2.02,4.6-4.24,7-6.46.5-.46.54-.93.03-1.43-2.06-2.05-4.1-4.14-6.19-6.16-.21-.21-.91-.27-1.1-.09-2.44,2.27-4.84,4.6-7.43,7.09,2.73,2.51,5.34,4.9,7.69,7.06Zm-26.67,11.88c-2.41,2.51-4.74,4.91-7.01,7.36-.17.18-.04.91.19,1.15,1.96,2.04,4,4.01,5.97,6.04.65.67,1.08.52,1.66-.08,1.45-1.49,2.96-2.91,4.43-4.38.8-.8,1.57-1.64,2.32-2.43-2.54-2.58-4.98-5.05-7.56-7.67Z"/>
          </g>
        </g>
      </g>
      <g id="_4DluAS.tif-2" data-name="4DluAS.tif">
        <g>
          <path class="cls-2" d="m69.79,34.36c1.36,0,2.72,0,4.08,0,.3.07.6.18.91.2,8.71.53,16.5,3.47,23.37,8.86q1.77,1.39,3.55-.02c5.21-4.1,11.04-6.85,17.55-8.11,1.98-.38,3.99-.62,5.99-.93,1.6,0,3.2,0,4.8,0,.26.07.52.16.78.2,2.52.41,5.08.63,7.55,1.23,16.46,3.97,30.27,17.24,32.76,35.63.24,1.8.45,3.61.67,5.42v3.6c-.07.26-.18.52-.19.79-.5,9.09-3.63,17.21-9.52,24.08-3.97,4.64-8.37,8.92-12.69,13.25-14.49,14.53-29.03,29.01-43.54,43.52-1.45,1.45-2.91,2.82-4.87,3.56h-2.16c-1.36-.93-2.91-1.68-4.06-2.82-10.32-10.21-20.59-20.48-30.85-30.74-7.49-7.5-14.94-15.03-22.43-22.53-11.06-11.06-15.17-24.31-12.5-39.67,3.08-17.73,17.89-32.16,35.63-34.82,1.72-.26,3.45-.47,5.18-.7Zm30.56,122.65c2.95-3.02,6.16-6.36,9.43-9.65,14.45-14.51,28.92-29.01,43.37-43.51,8.9-8.93,12.56-19.54,10.24-32.04-2.21-11.9-8.42-20.84-19.58-25.98-11.69-5.38-23.2-5.4-34.32,1.56-2.36,1.48-4.5,3.32-6.72,5.02-2.24,1.71-3.62,1.72-5.79-.05-1.15-.93-2.22-1.96-3.4-2.85-14.74-11.19-35.44-9.59-48.03,3.97-8.01,8.62-11.24,18.93-9.28,30.63,1.34,7.98,5.26,14.67,10.95,20.36,14.4,14.39,28.78,28.81,43.2,43.17,3.14,3.13,6.45,6.09,9.92,9.37Z"/>
          <path class="cls-2" d="m122.8,59.57c.86-1.63,1.55-2.92,2.31-4.36.67,1.74,1.27,3.33,1.96,5.12,1.25-1.27,2.37-2.45,3.53-3.59,1.22-1.21,2.41-2.47,3.72-3.56,3.17-2.64,6.87-2.57,9.86.26,2.82,2.66,5.56,5.41,8.22,8.23,2.99,3.17,2.86,7.12-.12,10.3-2.04,2.19-4.02,4.44-6.02,6.66-.15-.08-.3-.17-.45-.25.72.39,1.43.78,2.29,1.24-.84.78-1.62,1.5-2.19,2.02,1.46,1.6,2.84,3.13,4.25,4.65.73.79,1.55,1.5,2.26,2.32,2.89,3.31,2.91,6.85-.04,10.12-1.79,1.99-3.74,3.83-5.62,5.74-.7.71-1.42,1.41-2.14,2.1-3.59,3.4-7.6,3.38-11.14-.08-1.8-1.76-3.58-3.54-5.37-5.31-.28-.28-.57-.54-.99-.94-.62,1.68-1.2,3.26-1.86,5.06-.81-1.55-1.5-2.87-2.28-4.35-.94,1.01-1.79,1.98-2.69,2.9-1.17,1.2-2.27,2.49-3.57,3.53-2.96,2.37-6.25,2.45-9.07-.07-3.18-2.85-6.23-5.87-9.07-9.06-2.64-2.96-2.55-6.35.07-9.34,1.99-2.28,4.26-4.32,6.41-6.47.31-.31.66-.57,1.17-1.01-1.39-.54-2.56-.99-3.88-1.5.74-.93,1.42-1.78,2.13-2.66-1.73-1.65-3.45-3.21-5.06-4.86-1.92-1.96-3.3-4.26-2.45-7.1.42-1.4,1.23-2.81,2.22-3.89,2.48-2.71,5.12-5.29,7.77-7.82,3.35-3.2,7.34-3.11,10.63.17,1.53,1.52,2.99,3.12,4.46,4.7.27.29.45.66.76,1.12Zm-18.18,7.36c.62.56,1.27,1.09,1.85,1.67,10.51,10.52,21.01,21.05,31.51,31.57,1.13,1.13,1.14,1.11,2.24-.02,1.79-1.83,3.56-3.68,5.42-5.43.88-.83.88-1.32,0-2.18-10.91-10.85-21.78-21.74-32.66-32.62-.24-.24-.52-.46-.74-.66-2.52,2.54-4.96,5-7.61,7.67Zm34.28,6.99c2.19-2.02,4.6-4.24,7-6.46.5-.46.54-.93.03-1.43-2.06-2.05-4.1-4.14-6.19-6.16-.21-.21-.91-.27-1.1-.09-2.44,2.27-4.84,4.6-7.43,7.09,2.73,2.51,5.34,4.9,7.69,7.06Zm-26.67,11.88c-2.41,2.51-4.74,4.91-7.01,7.36-.17.18-.04.91.19,1.15,1.96,2.04,4,4.01,5.97,6.04.65.67,1.08.52,1.66-.08,1.45-1.49,2.96-2.91,4.43-4.38.8-.8,1.57-1.64,2.32-2.43-2.54-2.58-4.98-5.05-7.56-7.67Z"/>
        </g>
      </g>
    </g>
  </g>
</svg>