<svg xmlns="http://www.w3.org/2000/svg" viewBox="0 0 400 200"><defs><style>.cls-1{fill:none;stroke-width:0}</style></defs><path class="cls-1" d="M0 0h200v200H0z"/><path d="M109.02 54.33c-.3.01-.55.08-.85.21L82.44 66.57c-1.16.54-1.6 1.82-1.06 2.99l2.38 5.13c.55 1.18 1.8 1.72 2.97 1.18l.63-.27c.1-.08.21-.16.32-.21l20.01-9.3 3.87-1.82c.08-.04.17-.08.27-.11l.63-.32a2.25 2.25 0 0 0 1.11-3.04l-2.38-5.13a2.288 2.288 0 0 0-2.17-1.34Zm2.44 13.73L90.6 77.79l1.59 3.53.11.11c.11.13.2.27.26.43l5.51 12.08.53 1.23c.02.05.04.1.05.16l1.96 4.17 20.86-9.73-10-21.7ZM90.13 84.79c-11.17 4.98-23.21 9.98-32.93 13.95-10.19 4.16-18.06 7.33-19.43 7.96-1.9.88-3.47 2.32-4.34 3.85-.87 1.52-1.09 2.99-.47 4.33 1.32 2.85 5.26 4.06 8.95 2.35.94-.47 3.23-1.38 6.77-2.83 3.58-1.47 8.3-3.43 13.6-5.61 10.13-4.18 22.21-9.26 32.51-13.84l-.11-.27-4.55-9.89Zm36.1 6.74c-.3.02-.61.13-.9.27l-25.72 11.97c-1.17.54-1.6 1.82-1.06 2.99l2.38 5.19c.55 1.18 1.8 1.67 2.97 1.12l25.73-11.97c1.16-.54 1.65-1.87 1.11-3.05l-2.38-5.18c-.41-.88-1.24-1.39-2.12-1.34m-44.42 31.48c-2.74 0-4.87 2.17-4.87 4.92v3.74h78.82v-3.74c0-2.75-2.13-4.92-4.87-4.92H81.82Zm-11.64 12.08c-2.72 0-4.87 2.17-4.87 4.92v.75c0 2.75 2.15 4.92 4.87 4.92h92.37c2.72 0 4.87-2.17 4.87-4.92v-.75c0-2.75-2.15-4.92-4.87-4.92H70.18Z" style="fill:#7600db;stroke-width:0"/><path class="cls-1" d="M200 0h200v200H200z"/><path d="M309.02 54.33c-.3.01-.55.08-.85.21l-25.73 12.03c-1.16.54-1.6 1.82-1.06 2.99l2.38 5.13c.55 1.18 1.8 1.72 2.97 1.18l.63-.27c.1-.08.21-.16.32-.21l20.01-9.3 3.87-1.82c.08-.04.17-.08.27-.11l.63-.32a2.25 2.25 0 0 0 1.11-3.04l-2.38-5.13a2.288 2.288 0 0 0-2.17-1.34Zm2.44 13.73-20.86 9.73 1.59 3.53.11.11c.11.13.2.27.26.43l5.51 12.08.53 1.23c.02.05.04.1.05.16l1.96 4.17 20.86-9.73-10-21.7Zm-21.33 16.73c-11.17 4.98-23.21 9.98-32.93 13.95-10.19 4.16-18.06 7.33-19.43 7.96-1.9.88-3.47 2.32-4.34 3.85-.87 1.52-1.09 2.99-.47 4.33 1.32 2.85 5.26 4.06 8.95 2.35.94-.47 3.23-1.38 6.77-2.83 3.58-1.47 8.3-3.43 13.6-5.61 10.13-4.18 22.21-9.26 32.51-13.84l-.11-.27-4.55-9.89Zm36.1 6.74c-.3.02-.61.13-.9.27l-25.72 11.97c-1.17.54-1.6 1.82-1.06 2.99l2.38 5.19c.55 1.18 1.8 1.67 2.97 1.12l25.73-11.97c1.16-.54 1.65-1.87 1.11-3.05l-2.38-5.18c-.41-.88-1.24-1.39-2.12-1.34m-44.42 31.48c-2.74 0-4.87 2.17-4.87 4.92v3.74h78.82v-3.74c0-2.75-2.13-4.92-4.87-4.92h-69.08Zm-11.64 12.08c-2.72 0-4.87 2.17-4.87 4.92v.75c0 2.75 2.15 4.92 4.87 4.92h92.37c2.72 0 4.87-2.17 4.87-4.92v-.75c0-2.75-2.15-4.92-4.87-4.92h-92.37Z" style="fill:#faf2fc;stroke-width:0"/></svg>